G04 #@! TF.FileFunction,Copper,L2,Bot,Signal*
%FSLAX46Y46*%
G04 Gerber Fmt 4.6, Leading zero omitted, Abs format (unit mm)*
G04 Created by KiCad (PCBNEW 4.0.7) date 04/11/19 03:01:07*
%MOMM*%
%LPD*%
G01*
G04 APERTURE LIST*
%ADD10C,0.100000*%
%ADD11C,1.600000*%
%ADD12R,2.400000X2.400000*%
%ADD13C,2.400000*%
%ADD14C,0.600000*%
%ADD15C,2.000000*%
%ADD16C,2.800000*%
%ADD17O,2.800000X2.800000*%
%ADD18C,1.440000*%
%ADD19C,1.700000*%
%ADD20C,1.524000*%
%ADD21R,1.700000X1.700000*%
%ADD22C,0.500000*%
%ADD23C,0.250000*%
%ADD24C,1.000000*%
G04 APERTURE END LIST*
D10*
D11*
X118237000Y-85598000D03*
X118237000Y-114548000D03*
D12*
X119380000Y-43180000D03*
D13*
X114380000Y-43180000D03*
D11*
X64262000Y-86360000D03*
X64262000Y-88860000D03*
D14*
X73660000Y-119380000D03*
X76200000Y-119380000D03*
X76200000Y-116840000D03*
X73660000Y-116840000D03*
D15*
X52070000Y-46990000D03*
X52070000Y-52070000D03*
D16*
X73279000Y-105029000D03*
D17*
X93599000Y-105029000D03*
D18*
X85471000Y-88900000D03*
X85471000Y-91440000D03*
X85471000Y-93980000D03*
X73533000Y-88900000D03*
X73533000Y-91440000D03*
X73533000Y-93980000D03*
D19*
X52070000Y-26670000D03*
X57150000Y-26670000D03*
X52070000Y-31750000D03*
X54610000Y-31750000D03*
X57150000Y-31750000D03*
D20*
X66040000Y-31750000D03*
X66040000Y-38100000D03*
X66040000Y-44450000D03*
X66040000Y-50800000D03*
X96520000Y-31750000D03*
X96520000Y-38100000D03*
X96520000Y-44450000D03*
X96520000Y-50800000D03*
D15*
X49530000Y-110490000D03*
X49530000Y-115570000D03*
D21*
X75565000Y-73025000D03*
X59690000Y-89535000D03*
X85598000Y-117094000D03*
D14*
X95377000Y-86741000D03*
X95377000Y-83820000D03*
X95377000Y-79248000D03*
X96266000Y-77597000D03*
X98425000Y-53975000D03*
X98425000Y-55245000D03*
X98425000Y-56515000D03*
X98425000Y-59055000D03*
X98425000Y-57785000D03*
X62230000Y-117983000D03*
X62230000Y-116713000D03*
X76708000Y-75565000D03*
X129159000Y-76454000D03*
X129032000Y-70993000D03*
X132207000Y-73660000D03*
X64770000Y-99695000D03*
X63500000Y-99695000D03*
X62230000Y-99695000D03*
X62230000Y-100965000D03*
X62230000Y-102235000D03*
X62230000Y-103505000D03*
X48260000Y-107315000D03*
X49530000Y-107315000D03*
X50800000Y-107315000D03*
X52070000Y-107315000D03*
X53340000Y-106045000D03*
X54610000Y-104775000D03*
X57150000Y-104775000D03*
X58420000Y-104775000D03*
X62230000Y-104775000D03*
X60960000Y-104775000D03*
X62230000Y-115570000D03*
X60960000Y-115570000D03*
X52070000Y-115570000D03*
X53340000Y-115570000D03*
X54610000Y-115570000D03*
X57150000Y-115570000D03*
X58420000Y-115570000D03*
X86995000Y-114935000D03*
X88900000Y-114935000D03*
X90170000Y-113665000D03*
X91440000Y-112395000D03*
X92710000Y-111125000D03*
X93980000Y-109855000D03*
X95250000Y-108585000D03*
X96520000Y-107315000D03*
X97790000Y-106045000D03*
X97790000Y-104775000D03*
X97155000Y-102870000D03*
X97155000Y-100965000D03*
X97155000Y-99695000D03*
X97155000Y-98425000D03*
X97155000Y-97155000D03*
X97155000Y-95885000D03*
X97155000Y-94615000D03*
X97155000Y-93345000D03*
X97155000Y-92075000D03*
X97155000Y-90805000D03*
X97155000Y-89535000D03*
X97155000Y-88265000D03*
X97155000Y-86995000D03*
X98425000Y-86995000D03*
X99695000Y-86995000D03*
X100965000Y-86995000D03*
X102870000Y-86995000D03*
X104140000Y-86995000D03*
X105410000Y-85725000D03*
X106680000Y-84455000D03*
X107950000Y-83185000D03*
X109220000Y-81915000D03*
X110490000Y-80645000D03*
X116840000Y-79375000D03*
X116840000Y-78105000D03*
X116840000Y-76835000D03*
X116840000Y-75565000D03*
X116840000Y-74295000D03*
X116840000Y-73025000D03*
X115570000Y-73025000D03*
X114300000Y-73025000D03*
X113030000Y-73025000D03*
X113030000Y-74295000D03*
X113030000Y-75565000D03*
X113030000Y-76835000D03*
X113030000Y-78105000D03*
X111760000Y-79375000D03*
X90805000Y-92710000D03*
X89535000Y-93980000D03*
X88265000Y-95250000D03*
X81915000Y-95250000D03*
X80010000Y-95250000D03*
X80010000Y-93980000D03*
X80010000Y-92075000D03*
X77470000Y-92075000D03*
X77470000Y-93980000D03*
X77470000Y-95885000D03*
X76200000Y-97155000D03*
X74295000Y-97155000D03*
X72390000Y-97155000D03*
X70485000Y-97155000D03*
X69215000Y-95885000D03*
X69215000Y-93980000D03*
X69215000Y-92075000D03*
X67310000Y-92075000D03*
X65405000Y-92075000D03*
X63500000Y-92075000D03*
X61595000Y-92075000D03*
X59690000Y-92075000D03*
X57785000Y-92075000D03*
X57785000Y-90170000D03*
X57785000Y-88900000D03*
X57785000Y-86995000D03*
X57785000Y-85090000D03*
X57785000Y-83185000D03*
X57785000Y-81280000D03*
X57785000Y-79375000D03*
X57785000Y-77470000D03*
X57785000Y-75565000D03*
X59690000Y-75565000D03*
X60960000Y-75565000D03*
X62865000Y-75565000D03*
X64770000Y-75565000D03*
X66675000Y-75565000D03*
X68580000Y-75565000D03*
X70485000Y-75565000D03*
X72390000Y-75565000D03*
X74295000Y-75565000D03*
X78105000Y-75565000D03*
X80010000Y-75565000D03*
X81915000Y-75565000D03*
X83820000Y-75565000D03*
X85725000Y-75565000D03*
X87630000Y-75565000D03*
X89535000Y-75565000D03*
X91440000Y-75565000D03*
X93345000Y-75565000D03*
X95250000Y-75565000D03*
X96520000Y-74295000D03*
X97790000Y-73025000D03*
X97790000Y-71755000D03*
X97790000Y-70485000D03*
X97790000Y-69215000D03*
X97790000Y-67945000D03*
X97790000Y-66675000D03*
X97790000Y-65405000D03*
X97790000Y-64135000D03*
X97790000Y-62865000D03*
X97790000Y-61595000D03*
X97790000Y-60325000D03*
X93345000Y-92075000D03*
X92710000Y-93345000D03*
X91440000Y-94615000D03*
X90170000Y-95885000D03*
X88900000Y-97155000D03*
X87630000Y-98425000D03*
X86360000Y-98425000D03*
X85090000Y-98425000D03*
X83820000Y-98425000D03*
X82550000Y-98425000D03*
X81280000Y-98425000D03*
X80010000Y-98425000D03*
X78740000Y-98425000D03*
X77470000Y-99695000D03*
X76200000Y-100965000D03*
X111760000Y-55880000D03*
X146685000Y-60198000D03*
X146685000Y-56642000D03*
X146558000Y-37973000D03*
X146558000Y-34163000D03*
X66040000Y-99568000D03*
X80391000Y-114808000D03*
X81534000Y-112014000D03*
X86233000Y-113030000D03*
X71501000Y-79502000D03*
X117983000Y-70358000D03*
X91948000Y-78486000D03*
X101346000Y-49530000D03*
X114808000Y-27940000D03*
X111760000Y-63119000D03*
X111760000Y-65659000D03*
X94107000Y-81915000D03*
X97790000Y-83185000D03*
X101346000Y-83947000D03*
X103886000Y-78486000D03*
X109982000Y-78740000D03*
X59690000Y-104775000D03*
X55880000Y-104775000D03*
X59690000Y-115570000D03*
X55880000Y-115570000D03*
X62992000Y-83439000D03*
X82804000Y-84074000D03*
X80899000Y-80137000D03*
X83058000Y-81407000D03*
X64008000Y-78232000D03*
X71628000Y-82042000D03*
X83058000Y-80137000D03*
X91948000Y-79629000D03*
X63258000Y-80657000D03*
X86360000Y-111379000D03*
X70358000Y-107696000D03*
X93599000Y-85725000D03*
X92456000Y-82677000D03*
X91694000Y-81407000D03*
X92202000Y-85725000D03*
D22*
X95377000Y-83820000D02*
X95377000Y-86741000D01*
X95377000Y-78486000D02*
X95377000Y-79248000D01*
X96266000Y-77597000D02*
X95377000Y-78486000D01*
D23*
X98425000Y-53975000D02*
X98425000Y-53340000D01*
X98425000Y-53340000D02*
X101346000Y-50419000D01*
X101346000Y-50419000D02*
X101346000Y-49530000D01*
X98425000Y-55245000D02*
X98425000Y-56515000D01*
X98425000Y-59055000D02*
X98425000Y-57785000D01*
X62230000Y-116713000D02*
X62230000Y-117983000D01*
X76708000Y-75565000D02*
X74295000Y-75565000D01*
X64770000Y-99695000D02*
X65913000Y-99695000D01*
X65913000Y-99695000D02*
X66040000Y-99568000D01*
X62230000Y-99695000D02*
X63500000Y-99695000D01*
X62230000Y-102235000D02*
X62230000Y-100965000D01*
X62230000Y-104775000D02*
X62230000Y-103505000D01*
X50800000Y-107315000D02*
X49530000Y-107315000D01*
X53340000Y-106045000D02*
X52070000Y-107315000D01*
X57150000Y-104775000D02*
X55880000Y-104775000D01*
X59690000Y-104775000D02*
X58420000Y-104775000D01*
X59690000Y-104775000D02*
X60960000Y-104775000D01*
X59690000Y-115570000D02*
X60960000Y-115570000D01*
X54610000Y-115570000D02*
X53340000Y-115570000D01*
X58420000Y-115570000D02*
X57150000Y-115570000D01*
X88900000Y-114935000D02*
X86995000Y-114935000D01*
X91440000Y-112395000D02*
X90170000Y-113665000D01*
X93980000Y-109855000D02*
X92710000Y-111125000D01*
X96520000Y-107315000D02*
X95250000Y-108585000D01*
X97790000Y-104775000D02*
X97790000Y-106045000D01*
X97155000Y-100965000D02*
X97155000Y-102870000D01*
X97155000Y-98425000D02*
X97155000Y-99695000D01*
X97155000Y-95885000D02*
X97155000Y-97155000D01*
X97155000Y-93345000D02*
X97155000Y-94615000D01*
X97155000Y-90805000D02*
X97155000Y-92075000D01*
X97155000Y-88265000D02*
X97155000Y-89535000D01*
X98425000Y-86995000D02*
X97155000Y-86995000D01*
X100965000Y-86995000D02*
X99695000Y-86995000D01*
X104140000Y-86995000D02*
X102870000Y-86995000D01*
X106680000Y-84455000D02*
X105410000Y-85725000D01*
X109220000Y-81915000D02*
X107950000Y-83185000D01*
X111760000Y-79375000D02*
X110490000Y-80645000D01*
X116840000Y-76835000D02*
X116840000Y-78105000D01*
X116840000Y-74295000D02*
X116840000Y-75565000D01*
X115570000Y-73025000D02*
X116840000Y-73025000D01*
X113030000Y-73025000D02*
X114300000Y-73025000D01*
X113030000Y-75565000D02*
X113030000Y-74295000D01*
X113030000Y-78105000D02*
X113030000Y-76835000D01*
X109982000Y-78740000D02*
X111125000Y-78740000D01*
X111125000Y-78740000D02*
X111760000Y-79375000D01*
X89535000Y-93980000D02*
X90805000Y-92710000D01*
X81915000Y-95250000D02*
X88265000Y-95250000D01*
X80010000Y-93980000D02*
X80010000Y-95250000D01*
X77470000Y-92075000D02*
X80010000Y-92075000D01*
X77470000Y-95885000D02*
X77470000Y-93980000D01*
X74295000Y-97155000D02*
X76200000Y-97155000D01*
X70485000Y-97155000D02*
X72390000Y-97155000D01*
X69215000Y-93980000D02*
X69215000Y-95885000D01*
X67310000Y-92075000D02*
X69215000Y-92075000D01*
X63500000Y-92075000D02*
X65405000Y-92075000D01*
X59690000Y-92075000D02*
X61595000Y-92075000D01*
X57785000Y-90170000D02*
X57785000Y-92075000D01*
X57785000Y-86995000D02*
X57785000Y-88900000D01*
X57785000Y-83185000D02*
X57785000Y-85090000D01*
X57785000Y-79375000D02*
X57785000Y-81280000D01*
X57785000Y-75565000D02*
X57785000Y-77470000D01*
X60960000Y-75565000D02*
X59690000Y-75565000D01*
X64770000Y-75565000D02*
X62865000Y-75565000D01*
X68580000Y-75565000D02*
X66675000Y-75565000D01*
X72390000Y-75565000D02*
X70485000Y-75565000D01*
X80010000Y-75565000D02*
X78105000Y-75565000D01*
X83820000Y-75565000D02*
X81915000Y-75565000D01*
X87630000Y-75565000D02*
X85725000Y-75565000D01*
X91440000Y-75565000D02*
X89535000Y-75565000D01*
X95250000Y-75565000D02*
X93345000Y-75565000D01*
X97790000Y-73025000D02*
X96520000Y-74295000D01*
X97790000Y-70485000D02*
X97790000Y-71755000D01*
X97790000Y-67945000D02*
X97790000Y-69215000D01*
X97790000Y-65405000D02*
X97790000Y-66675000D01*
X97790000Y-62865000D02*
X97790000Y-64135000D01*
X97790000Y-60325000D02*
X97790000Y-61595000D01*
X92710000Y-93345000D02*
X93345000Y-92710000D01*
X93345000Y-92710000D02*
X93345000Y-92075000D01*
X90170000Y-95885000D02*
X91440000Y-94615000D01*
X87630000Y-98425000D02*
X88900000Y-97155000D01*
X85090000Y-98425000D02*
X86360000Y-98425000D01*
X82550000Y-98425000D02*
X83820000Y-98425000D01*
X78740000Y-98425000D02*
X80010000Y-98425000D01*
X73533000Y-93980000D02*
X73533000Y-98298000D01*
X73533000Y-98298000D02*
X76200000Y-100965000D01*
X117983000Y-70358000D02*
X117983000Y-70485000D01*
X117983000Y-70485000D02*
X117983000Y-70358000D01*
X78994000Y-84074000D02*
X63627000Y-84074000D01*
X63627000Y-84074000D02*
X62992000Y-83439000D01*
X82804000Y-84074000D02*
X78994000Y-84074000D01*
X83058000Y-81407000D02*
X82169000Y-81407000D01*
X82169000Y-81407000D02*
X80899000Y-80137000D01*
X83058000Y-81407000D02*
X82931000Y-81407000D01*
X67945000Y-82042000D02*
X67818000Y-82042000D01*
X67818000Y-82042000D02*
X64008000Y-78232000D01*
X71628000Y-82042000D02*
X67945000Y-82042000D01*
X80645000Y-79248000D02*
X77851000Y-82042000D01*
X77851000Y-82042000D02*
X71628000Y-82042000D01*
X81153000Y-79248000D02*
X80645000Y-79248000D01*
X82042000Y-80137000D02*
X81153000Y-79248000D01*
X83058000Y-80137000D02*
X82042000Y-80137000D01*
X91440000Y-80137000D02*
X83058000Y-80137000D01*
X91948000Y-79629000D02*
X91440000Y-80137000D01*
X63258000Y-80657000D02*
X62230000Y-81685000D01*
X62230000Y-81685000D02*
X62230000Y-84328000D01*
X62230000Y-84328000D02*
X64262000Y-86360000D01*
X84455000Y-108712000D02*
X86360000Y-110617000D01*
X86360000Y-110617000D02*
X86360000Y-111379000D01*
X71247000Y-108712000D02*
X84455000Y-108712000D01*
X70358000Y-107823000D02*
X71247000Y-108712000D01*
X70358000Y-107696000D02*
X70358000Y-107823000D01*
X92456000Y-82677000D02*
X92456000Y-84582000D01*
X92456000Y-84582000D02*
X93599000Y-85725000D01*
D24*
X66040000Y-38100000D02*
X62865000Y-41275000D01*
X62865000Y-41275000D02*
X62865000Y-47625000D01*
X62865000Y-47625000D02*
X66040000Y-50800000D01*
D23*
X91694000Y-81407000D02*
X91694000Y-85217000D01*
X91694000Y-85217000D02*
X92202000Y-85725000D01*
G36*
X146653910Y-23053867D02*
X146936987Y-23243013D01*
X147126133Y-23526090D01*
X147195000Y-23872310D01*
X147195000Y-118367690D01*
X147126133Y-118713910D01*
X146936987Y-118996987D01*
X146653910Y-119186133D01*
X146307690Y-119255000D01*
X79500000Y-119255000D01*
X79500000Y-116244000D01*
X84314674Y-116244000D01*
X84314674Y-117944000D01*
X84344309Y-118101496D01*
X84437389Y-118246146D01*
X84579412Y-118343186D01*
X84748000Y-118377326D01*
X86448000Y-118377326D01*
X86605496Y-118347691D01*
X86750146Y-118254611D01*
X86847186Y-118112588D01*
X86881326Y-117944000D01*
X86881326Y-116244000D01*
X86851691Y-116086504D01*
X86758611Y-115941854D01*
X86616588Y-115844814D01*
X86448000Y-115810674D01*
X84748000Y-115810674D01*
X84590504Y-115840309D01*
X84445854Y-115933389D01*
X84348814Y-116075412D01*
X84314674Y-116244000D01*
X79500000Y-116244000D01*
X79500000Y-114790599D01*
X117011788Y-114790599D01*
X117197890Y-115241000D01*
X117542187Y-115585899D01*
X117992263Y-115772787D01*
X118479599Y-115773212D01*
X118930000Y-115587110D01*
X119274899Y-115242813D01*
X119461787Y-114792737D01*
X119462212Y-114305401D01*
X119276110Y-113855000D01*
X118931813Y-113510101D01*
X118481737Y-113323213D01*
X117994401Y-113322788D01*
X117544000Y-113508890D01*
X117199101Y-113853187D01*
X117012213Y-114303263D01*
X117011788Y-114790599D01*
X79500000Y-114790599D01*
X79500000Y-114300000D01*
X79491451Y-114254568D01*
X79464601Y-114212841D01*
X79423632Y-114184848D01*
X79375000Y-114175000D01*
X70485000Y-114175000D01*
X70439568Y-114183549D01*
X70397841Y-114210399D01*
X70369848Y-114251368D01*
X70360000Y-114300000D01*
X70360000Y-119255000D01*
X46732310Y-119255000D01*
X46386090Y-119186133D01*
X46103013Y-118996987D01*
X45913867Y-118713910D01*
X45845000Y-118367690D01*
X45845000Y-116495926D01*
X48604781Y-116495926D01*
X48705767Y-116705310D01*
X49202973Y-116934310D01*
X49749965Y-116955605D01*
X50263470Y-116765956D01*
X50354233Y-116705310D01*
X50455219Y-116495926D01*
X49530000Y-115570707D01*
X48604781Y-116495926D01*
X45845000Y-116495926D01*
X45845000Y-115789965D01*
X48144395Y-115789965D01*
X48334044Y-116303470D01*
X48394690Y-116394233D01*
X48604074Y-116495219D01*
X49529293Y-115570000D01*
X49530707Y-115570000D01*
X50455926Y-116495219D01*
X50665310Y-116394233D01*
X50894310Y-115897027D01*
X50915605Y-115350035D01*
X50725956Y-114836530D01*
X50665310Y-114745767D01*
X50455926Y-114644781D01*
X49530707Y-115570000D01*
X49529293Y-115570000D01*
X48604074Y-114644781D01*
X48394690Y-114745767D01*
X48165690Y-115242973D01*
X48144395Y-115789965D01*
X45845000Y-115789965D01*
X45845000Y-114644074D01*
X48604781Y-114644074D01*
X49530000Y-115569293D01*
X50455219Y-114644074D01*
X50354233Y-114434690D01*
X49857027Y-114205690D01*
X49310035Y-114184395D01*
X48796530Y-114374044D01*
X48705767Y-114434690D01*
X48604781Y-114644074D01*
X45845000Y-114644074D01*
X45845000Y-110772206D01*
X48104754Y-110772206D01*
X48321240Y-111296143D01*
X48721749Y-111697351D01*
X49245307Y-111914752D01*
X49812206Y-111915246D01*
X50336143Y-111698760D01*
X50737351Y-111298251D01*
X50954752Y-110774693D01*
X50955246Y-110207794D01*
X50738760Y-109683857D01*
X50338251Y-109282649D01*
X49814693Y-109065248D01*
X49247794Y-109064754D01*
X48723857Y-109281240D01*
X48322649Y-109681749D01*
X48105248Y-110205307D01*
X48104754Y-110772206D01*
X45845000Y-110772206D01*
X45845000Y-107839579D01*
X69632874Y-107839579D01*
X69743016Y-108106143D01*
X69946784Y-108310267D01*
X70153132Y-108395950D01*
X70858091Y-109100909D01*
X71036524Y-109220134D01*
X71247000Y-109262000D01*
X84227182Y-109262000D01*
X85810000Y-110844818D01*
X85810000Y-110903629D01*
X85745733Y-110967784D01*
X85635126Y-111234156D01*
X85634874Y-111522579D01*
X85745016Y-111789143D01*
X85948784Y-111993267D01*
X86215156Y-112103874D01*
X86503579Y-112104126D01*
X86770143Y-111993984D01*
X86974267Y-111790216D01*
X87084874Y-111523844D01*
X87085126Y-111235421D01*
X86974984Y-110968857D01*
X86910000Y-110903759D01*
X86910000Y-110617000D01*
X86868134Y-110406524D01*
X86748909Y-110228091D01*
X84843909Y-108323091D01*
X84665476Y-108203866D01*
X84455000Y-108162000D01*
X71474818Y-108162000D01*
X71082936Y-107770118D01*
X71083126Y-107552421D01*
X70972984Y-107285857D01*
X70769216Y-107081733D01*
X70502844Y-106971126D01*
X70214421Y-106970874D01*
X69947857Y-107081016D01*
X69743733Y-107284784D01*
X69633126Y-107551156D01*
X69632874Y-107839579D01*
X45845000Y-107839579D01*
X45845000Y-105390422D01*
X71453684Y-105390422D01*
X71730938Y-106061429D01*
X72243871Y-106575258D01*
X72914392Y-106853683D01*
X73640422Y-106854316D01*
X74311429Y-106577062D01*
X74825258Y-106064129D01*
X75103683Y-105393608D01*
X75104000Y-105029000D01*
X91738246Y-105029000D01*
X91877166Y-105727397D01*
X92272776Y-106319470D01*
X92864849Y-106715080D01*
X93563246Y-106854000D01*
X93634754Y-106854000D01*
X94333151Y-106715080D01*
X94925224Y-106319470D01*
X95320834Y-105727397D01*
X95459754Y-105029000D01*
X95320834Y-104330603D01*
X94925224Y-103738530D01*
X94333151Y-103342920D01*
X93634754Y-103204000D01*
X93563246Y-103204000D01*
X92864849Y-103342920D01*
X92272776Y-103738530D01*
X91877166Y-104330603D01*
X91738246Y-105029000D01*
X75104000Y-105029000D01*
X75104316Y-104667578D01*
X74827062Y-103996571D01*
X74314129Y-103482742D01*
X73643608Y-103204317D01*
X72917578Y-103203684D01*
X72246571Y-103480938D01*
X71732742Y-103993871D01*
X71454317Y-104664392D01*
X71453684Y-105390422D01*
X45845000Y-105390422D01*
X45845000Y-94704058D01*
X72809650Y-94704058D01*
X72876571Y-94884348D01*
X73272618Y-95066713D01*
X73708305Y-95083636D01*
X74117304Y-94932540D01*
X74189429Y-94884348D01*
X74256350Y-94704058D01*
X84747650Y-94704058D01*
X84814571Y-94884348D01*
X85210618Y-95066713D01*
X85646305Y-95083636D01*
X86055304Y-94932540D01*
X86127429Y-94884348D01*
X86194350Y-94704058D01*
X85471000Y-93980707D01*
X84747650Y-94704058D01*
X74256350Y-94704058D01*
X73533000Y-93980707D01*
X72809650Y-94704058D01*
X45845000Y-94704058D01*
X45845000Y-94155305D01*
X72429364Y-94155305D01*
X72580460Y-94564304D01*
X72628652Y-94636429D01*
X72808942Y-94703350D01*
X73532293Y-93980000D01*
X73533707Y-93980000D01*
X74257058Y-94703350D01*
X74437348Y-94636429D01*
X74619713Y-94240382D01*
X74623017Y-94155305D01*
X84367364Y-94155305D01*
X84518460Y-94564304D01*
X84566652Y-94636429D01*
X84746942Y-94703350D01*
X85470293Y-93980000D01*
X85471707Y-93980000D01*
X86195058Y-94703350D01*
X86375348Y-94636429D01*
X86557713Y-94240382D01*
X86574636Y-93804695D01*
X86423540Y-93395696D01*
X86375348Y-93323571D01*
X86195058Y-93256650D01*
X85471707Y-93980000D01*
X85470293Y-93980000D01*
X84746942Y-93256650D01*
X84566652Y-93323571D01*
X84384287Y-93719618D01*
X84367364Y-94155305D01*
X74623017Y-94155305D01*
X74636636Y-93804695D01*
X74485540Y-93395696D01*
X74437348Y-93323571D01*
X74257058Y-93256650D01*
X73533707Y-93980000D01*
X73532293Y-93980000D01*
X72808942Y-93256650D01*
X72628652Y-93323571D01*
X72446287Y-93719618D01*
X72429364Y-94155305D01*
X45845000Y-94155305D01*
X45845000Y-93255942D01*
X72809650Y-93255942D01*
X73533000Y-93979293D01*
X74256350Y-93255942D01*
X84747650Y-93255942D01*
X85471000Y-93979293D01*
X86194350Y-93255942D01*
X86127429Y-93075652D01*
X85731382Y-92893287D01*
X85295695Y-92876364D01*
X84886696Y-93027460D01*
X84814571Y-93075652D01*
X84747650Y-93255942D01*
X74256350Y-93255942D01*
X74189429Y-93075652D01*
X73793382Y-92893287D01*
X73357695Y-92876364D01*
X72948696Y-93027460D01*
X72876571Y-93075652D01*
X72809650Y-93255942D01*
X45845000Y-93255942D01*
X45845000Y-91666755D01*
X72387802Y-91666755D01*
X72561750Y-92087743D01*
X72883563Y-92410118D01*
X73304246Y-92584801D01*
X73759755Y-92585198D01*
X74180743Y-92411250D01*
X74503118Y-92089437D01*
X74677801Y-91668754D01*
X74677802Y-91666755D01*
X84325802Y-91666755D01*
X84499750Y-92087743D01*
X84821563Y-92410118D01*
X85242246Y-92584801D01*
X85697755Y-92585198D01*
X86118743Y-92411250D01*
X86441118Y-92089437D01*
X86615801Y-91668754D01*
X86616198Y-91213245D01*
X86442250Y-90792257D01*
X86120437Y-90469882D01*
X85699754Y-90295199D01*
X85244245Y-90294802D01*
X84823257Y-90468750D01*
X84500882Y-90790563D01*
X84326199Y-91211246D01*
X84325802Y-91666755D01*
X74677802Y-91666755D01*
X74678198Y-91213245D01*
X74504250Y-90792257D01*
X74182437Y-90469882D01*
X73761754Y-90295199D01*
X73306245Y-90294802D01*
X72885257Y-90468750D01*
X72562882Y-90790563D01*
X72388199Y-91211246D01*
X72387802Y-91666755D01*
X45845000Y-91666755D01*
X45845000Y-88685000D01*
X58406674Y-88685000D01*
X58406674Y-90385000D01*
X58436309Y-90542496D01*
X58529389Y-90687146D01*
X58671412Y-90784186D01*
X58840000Y-90818326D01*
X60540000Y-90818326D01*
X60697496Y-90788691D01*
X60842146Y-90695611D01*
X60939186Y-90553588D01*
X60973326Y-90385000D01*
X60973326Y-89641734D01*
X63480973Y-89641734D01*
X63557627Y-89830337D01*
X63982576Y-90026027D01*
X64450065Y-90044199D01*
X64888922Y-89882087D01*
X64966373Y-89830337D01*
X65043027Y-89641734D01*
X64262000Y-88860707D01*
X63480973Y-89641734D01*
X60973326Y-89641734D01*
X60973326Y-89048065D01*
X63077801Y-89048065D01*
X63239913Y-89486922D01*
X63291663Y-89564373D01*
X63480266Y-89641027D01*
X64261293Y-88860000D01*
X64262707Y-88860000D01*
X65043734Y-89641027D01*
X65232337Y-89564373D01*
X65428027Y-89139424D01*
X65428519Y-89126755D01*
X72387802Y-89126755D01*
X72561750Y-89547743D01*
X72883563Y-89870118D01*
X73304246Y-90044801D01*
X73759755Y-90045198D01*
X74180743Y-89871250D01*
X74503118Y-89549437D01*
X74677801Y-89128754D01*
X74677802Y-89126755D01*
X84325802Y-89126755D01*
X84499750Y-89547743D01*
X84821563Y-89870118D01*
X85242246Y-90044801D01*
X85697755Y-90045198D01*
X86118743Y-89871250D01*
X86441118Y-89549437D01*
X86615801Y-89128754D01*
X86616198Y-88673245D01*
X86442250Y-88252257D01*
X86120437Y-87929882D01*
X85699754Y-87755199D01*
X85244245Y-87754802D01*
X84823257Y-87928750D01*
X84500882Y-88250563D01*
X84326199Y-88671246D01*
X84325802Y-89126755D01*
X74677802Y-89126755D01*
X74678198Y-88673245D01*
X74504250Y-88252257D01*
X74182437Y-87929882D01*
X73761754Y-87755199D01*
X73306245Y-87754802D01*
X72885257Y-87928750D01*
X72562882Y-88250563D01*
X72388199Y-88671246D01*
X72387802Y-89126755D01*
X65428519Y-89126755D01*
X65446199Y-88671935D01*
X65284087Y-88233078D01*
X65232337Y-88155627D01*
X65043734Y-88078973D01*
X64262707Y-88860000D01*
X64261293Y-88860000D01*
X63480266Y-88078973D01*
X63291663Y-88155627D01*
X63095973Y-88580576D01*
X63077801Y-89048065D01*
X60973326Y-89048065D01*
X60973326Y-88685000D01*
X60943691Y-88527504D01*
X60850611Y-88382854D01*
X60708588Y-88285814D01*
X60540000Y-88251674D01*
X58840000Y-88251674D01*
X58682504Y-88281309D01*
X58537854Y-88374389D01*
X58440814Y-88516412D01*
X58406674Y-88685000D01*
X45845000Y-88685000D01*
X45845000Y-88078266D01*
X63480973Y-88078266D01*
X64262000Y-88859293D01*
X65043027Y-88078266D01*
X64966373Y-87889663D01*
X64541424Y-87693973D01*
X64073935Y-87675801D01*
X63635078Y-87837913D01*
X63557627Y-87889663D01*
X63480973Y-88078266D01*
X45845000Y-88078266D01*
X45845000Y-81685000D01*
X61680000Y-81685000D01*
X61680000Y-84328000D01*
X61721866Y-84538476D01*
X61841091Y-84716909D01*
X63096549Y-85972367D01*
X63037213Y-86115263D01*
X63036788Y-86602599D01*
X63222890Y-87053000D01*
X63567187Y-87397899D01*
X64017263Y-87584787D01*
X64504599Y-87585212D01*
X64955000Y-87399110D01*
X65299899Y-87054813D01*
X65486787Y-86604737D01*
X65487212Y-86117401D01*
X65301110Y-85667000D01*
X64956813Y-85322101D01*
X64506737Y-85135213D01*
X64019401Y-85134788D01*
X63874484Y-85194666D01*
X62841232Y-84161414D01*
X62847156Y-84163874D01*
X62939137Y-84163954D01*
X63238089Y-84462906D01*
X63238091Y-84462909D01*
X63361138Y-84545126D01*
X63416524Y-84582134D01*
X63627000Y-84624001D01*
X63627005Y-84624000D01*
X82328629Y-84624000D01*
X82392784Y-84688267D01*
X82659156Y-84798874D01*
X82947579Y-84799126D01*
X83214143Y-84688984D01*
X83418267Y-84485216D01*
X83528874Y-84218844D01*
X83529126Y-83930421D01*
X83418984Y-83663857D01*
X83215216Y-83459733D01*
X82948844Y-83349126D01*
X82660421Y-83348874D01*
X82393857Y-83459016D01*
X82328759Y-83524000D01*
X63854817Y-83524000D01*
X63717047Y-83386229D01*
X63717126Y-83295421D01*
X63606984Y-83028857D01*
X63403216Y-82824733D01*
X63136844Y-82714126D01*
X62848421Y-82713874D01*
X62780000Y-82742145D01*
X62780000Y-81912818D01*
X63310771Y-81382047D01*
X63401579Y-81382126D01*
X63668143Y-81271984D01*
X63872267Y-81068216D01*
X63982874Y-80801844D01*
X63983126Y-80513421D01*
X63872984Y-80246857D01*
X63669216Y-80042733D01*
X63402844Y-79932126D01*
X63114421Y-79931874D01*
X62847857Y-80042016D01*
X62643733Y-80245784D01*
X62533126Y-80512156D01*
X62533046Y-80604137D01*
X61841091Y-81296091D01*
X61721866Y-81474524D01*
X61680000Y-81685000D01*
X45845000Y-81685000D01*
X45845000Y-78375579D01*
X63282874Y-78375579D01*
X63393016Y-78642143D01*
X63596784Y-78846267D01*
X63863156Y-78956874D01*
X63955136Y-78956954D01*
X67429089Y-82430906D01*
X67429091Y-82430909D01*
X67482393Y-82466524D01*
X67607524Y-82550134D01*
X67818000Y-82592001D01*
X67818005Y-82592000D01*
X71152629Y-82592000D01*
X71216784Y-82656267D01*
X71483156Y-82766874D01*
X71771579Y-82767126D01*
X72038143Y-82656984D01*
X72103241Y-82592000D01*
X77851000Y-82592000D01*
X78061476Y-82550134D01*
X78239909Y-82430909D01*
X80237135Y-80433683D01*
X80284016Y-80547143D01*
X80487784Y-80751267D01*
X80754156Y-80861874D01*
X80846136Y-80861954D01*
X81780091Y-81795909D01*
X81958524Y-81915134D01*
X82169000Y-81957000D01*
X82582629Y-81957000D01*
X82646784Y-82021267D01*
X82913156Y-82131874D01*
X83201579Y-82132126D01*
X83468143Y-82021984D01*
X83672267Y-81818216D01*
X83782874Y-81551844D01*
X83782875Y-81550579D01*
X90968874Y-81550579D01*
X91079016Y-81817143D01*
X91144000Y-81882241D01*
X91144000Y-85217000D01*
X91185866Y-85427476D01*
X91305091Y-85605909D01*
X91476953Y-85777771D01*
X91476874Y-85868579D01*
X91587016Y-86135143D01*
X91790784Y-86339267D01*
X92057156Y-86449874D01*
X92345579Y-86450126D01*
X92612143Y-86339984D01*
X92816267Y-86136216D01*
X92900571Y-85933190D01*
X92984016Y-86135143D01*
X93187784Y-86339267D01*
X93454156Y-86449874D01*
X93742579Y-86450126D01*
X94009143Y-86339984D01*
X94213267Y-86136216D01*
X94323874Y-85869844D01*
X94324126Y-85581421D01*
X94213984Y-85314857D01*
X94010216Y-85110733D01*
X93743844Y-85000126D01*
X93651864Y-85000046D01*
X93006000Y-84354182D01*
X93006000Y-83963579D01*
X94651874Y-83963579D01*
X94702000Y-84084893D01*
X94702000Y-86476046D01*
X94652126Y-86596156D01*
X94651874Y-86884579D01*
X94762016Y-87151143D01*
X94965784Y-87355267D01*
X95232156Y-87465874D01*
X95520579Y-87466126D01*
X95787143Y-87355984D01*
X95991267Y-87152216D01*
X96101874Y-86885844D01*
X96102126Y-86597421D01*
X96052000Y-86476107D01*
X96052000Y-85840599D01*
X117011788Y-85840599D01*
X117197890Y-86291000D01*
X117542187Y-86635899D01*
X117992263Y-86822787D01*
X118479599Y-86823212D01*
X118930000Y-86637110D01*
X119274899Y-86292813D01*
X119461787Y-85842737D01*
X119462212Y-85355401D01*
X119276110Y-84905000D01*
X118931813Y-84560101D01*
X118481737Y-84373213D01*
X117994401Y-84372788D01*
X117544000Y-84558890D01*
X117199101Y-84903187D01*
X117012213Y-85353263D01*
X117011788Y-85840599D01*
X96052000Y-85840599D01*
X96052000Y-84084954D01*
X96101874Y-83964844D01*
X96102126Y-83676421D01*
X95991984Y-83409857D01*
X95788216Y-83205733D01*
X95521844Y-83095126D01*
X95233421Y-83094874D01*
X94966857Y-83205016D01*
X94762733Y-83408784D01*
X94652126Y-83675156D01*
X94651874Y-83963579D01*
X93006000Y-83963579D01*
X93006000Y-83152371D01*
X93070267Y-83088216D01*
X93180874Y-82821844D01*
X93181126Y-82533421D01*
X93070984Y-82266857D01*
X92867216Y-82062733D01*
X92600844Y-81952126D01*
X92312421Y-81951874D01*
X92244000Y-81980145D01*
X92244000Y-81882371D01*
X92308267Y-81818216D01*
X92418874Y-81551844D01*
X92419126Y-81263421D01*
X92308984Y-80996857D01*
X92105216Y-80792733D01*
X91838844Y-80682126D01*
X91550421Y-80681874D01*
X91283857Y-80792016D01*
X91079733Y-80995784D01*
X90969126Y-81262156D01*
X90968874Y-81550579D01*
X83782875Y-81550579D01*
X83783126Y-81263421D01*
X83672984Y-80996857D01*
X83469216Y-80792733D01*
X83419492Y-80772086D01*
X83468143Y-80751984D01*
X83533241Y-80687000D01*
X91440000Y-80687000D01*
X91650476Y-80645134D01*
X91828909Y-80525909D01*
X92000771Y-80354047D01*
X92091579Y-80354126D01*
X92358143Y-80243984D01*
X92562267Y-80040216D01*
X92672874Y-79773844D01*
X92673126Y-79485421D01*
X92634352Y-79391579D01*
X94651874Y-79391579D01*
X94762016Y-79658143D01*
X94965784Y-79862267D01*
X95232156Y-79972874D01*
X95520579Y-79973126D01*
X95787143Y-79862984D01*
X95991267Y-79659216D01*
X96101874Y-79392844D01*
X96102126Y-79104421D01*
X96052000Y-78983107D01*
X96052000Y-78765594D01*
X96555945Y-78261649D01*
X96676143Y-78211984D01*
X96880267Y-78008216D01*
X96990874Y-77741844D01*
X96991126Y-77453421D01*
X96880984Y-77186857D01*
X96677216Y-76982733D01*
X96410844Y-76872126D01*
X96122421Y-76871874D01*
X95855857Y-76982016D01*
X95651733Y-77185784D01*
X95601396Y-77307010D01*
X94899703Y-78008703D01*
X94753381Y-78227688D01*
X94734596Y-78322126D01*
X94702000Y-78486000D01*
X94702000Y-78983046D01*
X94652126Y-79103156D01*
X94651874Y-79391579D01*
X92634352Y-79391579D01*
X92562984Y-79218857D01*
X92359216Y-79014733D01*
X92092844Y-78904126D01*
X91804421Y-78903874D01*
X91537857Y-79014016D01*
X91333733Y-79217784D01*
X91223126Y-79484156D01*
X91223046Y-79576137D01*
X91212182Y-79587000D01*
X83533371Y-79587000D01*
X83469216Y-79522733D01*
X83202844Y-79412126D01*
X82914421Y-79411874D01*
X82647857Y-79522016D01*
X82582759Y-79587000D01*
X82269818Y-79587000D01*
X81541909Y-78859091D01*
X81363476Y-78739866D01*
X81153000Y-78698000D01*
X80645005Y-78698000D01*
X80645000Y-78697999D01*
X80434524Y-78739866D01*
X80256091Y-78859091D01*
X77623182Y-81492000D01*
X72103371Y-81492000D01*
X72039216Y-81427733D01*
X71772844Y-81317126D01*
X71484421Y-81316874D01*
X71217857Y-81427016D01*
X71152759Y-81492000D01*
X68045817Y-81492000D01*
X64733047Y-78179229D01*
X64733126Y-78088421D01*
X64622984Y-77821857D01*
X64419216Y-77617733D01*
X64152844Y-77507126D01*
X63864421Y-77506874D01*
X63597857Y-77617016D01*
X63393733Y-77820784D01*
X63283126Y-78087156D01*
X63282874Y-78375579D01*
X45845000Y-78375579D01*
X45845000Y-72175000D01*
X74281674Y-72175000D01*
X74281674Y-73875000D01*
X74311309Y-74032496D01*
X74404389Y-74177146D01*
X74546412Y-74274186D01*
X74715000Y-74308326D01*
X76415000Y-74308326D01*
X76572496Y-74278691D01*
X76717146Y-74185611D01*
X76814186Y-74043588D01*
X76848326Y-73875000D01*
X76848326Y-72175000D01*
X76818691Y-72017504D01*
X76725611Y-71872854D01*
X76583588Y-71775814D01*
X76415000Y-71741674D01*
X74715000Y-71741674D01*
X74557504Y-71771309D01*
X74412854Y-71864389D01*
X74315814Y-72006412D01*
X74281674Y-72175000D01*
X45845000Y-72175000D01*
X45845000Y-67052310D01*
X45913867Y-66706090D01*
X46103013Y-66423013D01*
X46386090Y-66233867D01*
X46732310Y-66165000D01*
X91440000Y-66165000D01*
X91487037Y-66155813D01*
X91528388Y-66128388D01*
X97585495Y-60071281D01*
X97601041Y-60052339D01*
X97817814Y-59727916D01*
X97836478Y-59682856D01*
X97912598Y-59300172D01*
X97915000Y-59275786D01*
X97915000Y-52073728D01*
X98118788Y-51870296D01*
X98406672Y-51176994D01*
X98407327Y-50426299D01*
X98120654Y-49732497D01*
X97915000Y-49526484D01*
X97915000Y-45723728D01*
X98118788Y-45520296D01*
X98406672Y-44826994D01*
X98407175Y-44250118D01*
X113310589Y-44250118D01*
X113435907Y-44480284D01*
X114005369Y-44742594D01*
X114631865Y-44767014D01*
X115220017Y-44549826D01*
X115324093Y-44480284D01*
X115449411Y-44250118D01*
X114380000Y-43180707D01*
X113310589Y-44250118D01*
X98407175Y-44250118D01*
X98407327Y-44076299D01*
X98141053Y-43431865D01*
X112792986Y-43431865D01*
X113010174Y-44020017D01*
X113079716Y-44124093D01*
X113309882Y-44249411D01*
X114379293Y-43180000D01*
X114380707Y-43180000D01*
X115450118Y-44249411D01*
X115680284Y-44124093D01*
X115942594Y-43554631D01*
X115967014Y-42928135D01*
X115749826Y-42339983D01*
X115680284Y-42235907D01*
X115450118Y-42110589D01*
X114380707Y-43180000D01*
X114379293Y-43180000D01*
X113309882Y-42110589D01*
X113079716Y-42235907D01*
X112817406Y-42805369D01*
X112792986Y-43431865D01*
X98141053Y-43431865D01*
X98120654Y-43382497D01*
X97915000Y-43176484D01*
X97915000Y-42109882D01*
X113310589Y-42109882D01*
X114380000Y-43179293D01*
X115449411Y-42109882D01*
X115378695Y-41980000D01*
X117746674Y-41980000D01*
X117746674Y-44380000D01*
X117776309Y-44537496D01*
X117869389Y-44682146D01*
X118011412Y-44779186D01*
X118180000Y-44813326D01*
X120580000Y-44813326D01*
X120737496Y-44783691D01*
X120882146Y-44690611D01*
X120979186Y-44548588D01*
X121013326Y-44380000D01*
X121013326Y-41980000D01*
X120983691Y-41822504D01*
X120890611Y-41677854D01*
X120748588Y-41580814D01*
X120580000Y-41546674D01*
X118180000Y-41546674D01*
X118022504Y-41576309D01*
X117877854Y-41669389D01*
X117780814Y-41811412D01*
X117746674Y-41980000D01*
X115378695Y-41980000D01*
X115324093Y-41879716D01*
X114754631Y-41617406D01*
X114128135Y-41592986D01*
X113539983Y-41810174D01*
X113435907Y-41879716D01*
X113310589Y-42109882D01*
X97915000Y-42109882D01*
X97915000Y-39373728D01*
X98118788Y-39170296D01*
X98406672Y-38476994D01*
X98407327Y-37726299D01*
X98120654Y-37032497D01*
X97915000Y-36826484D01*
X97915000Y-33023728D01*
X98118788Y-32820296D01*
X98406672Y-32126994D01*
X98407327Y-31376299D01*
X98120654Y-30682497D01*
X97915000Y-30476484D01*
X97915000Y-23872310D01*
X97983867Y-23526090D01*
X98173013Y-23243013D01*
X98456090Y-23053867D01*
X98802310Y-22985000D01*
X146307690Y-22985000D01*
X146653910Y-23053867D01*
X146653910Y-23053867D01*
G37*
X146653910Y-23053867D02*
X146936987Y-23243013D01*
X147126133Y-23526090D01*
X147195000Y-23872310D01*
X147195000Y-118367690D01*
X147126133Y-118713910D01*
X146936987Y-118996987D01*
X146653910Y-119186133D01*
X146307690Y-119255000D01*
X79500000Y-119255000D01*
X79500000Y-116244000D01*
X84314674Y-116244000D01*
X84314674Y-117944000D01*
X84344309Y-118101496D01*
X84437389Y-118246146D01*
X84579412Y-118343186D01*
X84748000Y-118377326D01*
X86448000Y-118377326D01*
X86605496Y-118347691D01*
X86750146Y-118254611D01*
X86847186Y-118112588D01*
X86881326Y-117944000D01*
X86881326Y-116244000D01*
X86851691Y-116086504D01*
X86758611Y-115941854D01*
X86616588Y-115844814D01*
X86448000Y-115810674D01*
X84748000Y-115810674D01*
X84590504Y-115840309D01*
X84445854Y-115933389D01*
X84348814Y-116075412D01*
X84314674Y-116244000D01*
X79500000Y-116244000D01*
X79500000Y-114790599D01*
X117011788Y-114790599D01*
X117197890Y-115241000D01*
X117542187Y-115585899D01*
X117992263Y-115772787D01*
X118479599Y-115773212D01*
X118930000Y-115587110D01*
X119274899Y-115242813D01*
X119461787Y-114792737D01*
X119462212Y-114305401D01*
X119276110Y-113855000D01*
X118931813Y-113510101D01*
X118481737Y-113323213D01*
X117994401Y-113322788D01*
X117544000Y-113508890D01*
X117199101Y-113853187D01*
X117012213Y-114303263D01*
X117011788Y-114790599D01*
X79500000Y-114790599D01*
X79500000Y-114300000D01*
X79491451Y-114254568D01*
X79464601Y-114212841D01*
X79423632Y-114184848D01*
X79375000Y-114175000D01*
X70485000Y-114175000D01*
X70439568Y-114183549D01*
X70397841Y-114210399D01*
X70369848Y-114251368D01*
X70360000Y-114300000D01*
X70360000Y-119255000D01*
X46732310Y-119255000D01*
X46386090Y-119186133D01*
X46103013Y-118996987D01*
X45913867Y-118713910D01*
X45845000Y-118367690D01*
X45845000Y-116495926D01*
X48604781Y-116495926D01*
X48705767Y-116705310D01*
X49202973Y-116934310D01*
X49749965Y-116955605D01*
X50263470Y-116765956D01*
X50354233Y-116705310D01*
X50455219Y-116495926D01*
X49530000Y-115570707D01*
X48604781Y-116495926D01*
X45845000Y-116495926D01*
X45845000Y-115789965D01*
X48144395Y-115789965D01*
X48334044Y-116303470D01*
X48394690Y-116394233D01*
X48604074Y-116495219D01*
X49529293Y-115570000D01*
X49530707Y-115570000D01*
X50455926Y-116495219D01*
X50665310Y-116394233D01*
X50894310Y-115897027D01*
X50915605Y-115350035D01*
X50725956Y-114836530D01*
X50665310Y-114745767D01*
X50455926Y-114644781D01*
X49530707Y-115570000D01*
X49529293Y-115570000D01*
X48604074Y-114644781D01*
X48394690Y-114745767D01*
X48165690Y-115242973D01*
X48144395Y-115789965D01*
X45845000Y-115789965D01*
X45845000Y-114644074D01*
X48604781Y-114644074D01*
X49530000Y-115569293D01*
X50455219Y-114644074D01*
X50354233Y-114434690D01*
X49857027Y-114205690D01*
X49310035Y-114184395D01*
X48796530Y-114374044D01*
X48705767Y-114434690D01*
X48604781Y-114644074D01*
X45845000Y-114644074D01*
X45845000Y-110772206D01*
X48104754Y-110772206D01*
X48321240Y-111296143D01*
X48721749Y-111697351D01*
X49245307Y-111914752D01*
X49812206Y-111915246D01*
X50336143Y-111698760D01*
X50737351Y-111298251D01*
X50954752Y-110774693D01*
X50955246Y-110207794D01*
X50738760Y-109683857D01*
X50338251Y-109282649D01*
X49814693Y-109065248D01*
X49247794Y-109064754D01*
X48723857Y-109281240D01*
X48322649Y-109681749D01*
X48105248Y-110205307D01*
X48104754Y-110772206D01*
X45845000Y-110772206D01*
X45845000Y-107839579D01*
X69632874Y-107839579D01*
X69743016Y-108106143D01*
X69946784Y-108310267D01*
X70153132Y-108395950D01*
X70858091Y-109100909D01*
X71036524Y-109220134D01*
X71247000Y-109262000D01*
X84227182Y-109262000D01*
X85810000Y-110844818D01*
X85810000Y-110903629D01*
X85745733Y-110967784D01*
X85635126Y-111234156D01*
X85634874Y-111522579D01*
X85745016Y-111789143D01*
X85948784Y-111993267D01*
X86215156Y-112103874D01*
X86503579Y-112104126D01*
X86770143Y-111993984D01*
X86974267Y-111790216D01*
X87084874Y-111523844D01*
X87085126Y-111235421D01*
X86974984Y-110968857D01*
X86910000Y-110903759D01*
X86910000Y-110617000D01*
X86868134Y-110406524D01*
X86748909Y-110228091D01*
X84843909Y-108323091D01*
X84665476Y-108203866D01*
X84455000Y-108162000D01*
X71474818Y-108162000D01*
X71082936Y-107770118D01*
X71083126Y-107552421D01*
X70972984Y-107285857D01*
X70769216Y-107081733D01*
X70502844Y-106971126D01*
X70214421Y-106970874D01*
X69947857Y-107081016D01*
X69743733Y-107284784D01*
X69633126Y-107551156D01*
X69632874Y-107839579D01*
X45845000Y-107839579D01*
X45845000Y-105390422D01*
X71453684Y-105390422D01*
X71730938Y-106061429D01*
X72243871Y-106575258D01*
X72914392Y-106853683D01*
X73640422Y-106854316D01*
X74311429Y-106577062D01*
X74825258Y-106064129D01*
X75103683Y-105393608D01*
X75104000Y-105029000D01*
X91738246Y-105029000D01*
X91877166Y-105727397D01*
X92272776Y-106319470D01*
X92864849Y-106715080D01*
X93563246Y-106854000D01*
X93634754Y-106854000D01*
X94333151Y-106715080D01*
X94925224Y-106319470D01*
X95320834Y-105727397D01*
X95459754Y-105029000D01*
X95320834Y-104330603D01*
X94925224Y-103738530D01*
X94333151Y-103342920D01*
X93634754Y-103204000D01*
X93563246Y-103204000D01*
X92864849Y-103342920D01*
X92272776Y-103738530D01*
X91877166Y-104330603D01*
X91738246Y-105029000D01*
X75104000Y-105029000D01*
X75104316Y-104667578D01*
X74827062Y-103996571D01*
X74314129Y-103482742D01*
X73643608Y-103204317D01*
X72917578Y-103203684D01*
X72246571Y-103480938D01*
X71732742Y-103993871D01*
X71454317Y-104664392D01*
X71453684Y-105390422D01*
X45845000Y-105390422D01*
X45845000Y-94704058D01*
X72809650Y-94704058D01*
X72876571Y-94884348D01*
X73272618Y-95066713D01*
X73708305Y-95083636D01*
X74117304Y-94932540D01*
X74189429Y-94884348D01*
X74256350Y-94704058D01*
X84747650Y-94704058D01*
X84814571Y-94884348D01*
X85210618Y-95066713D01*
X85646305Y-95083636D01*
X86055304Y-94932540D01*
X86127429Y-94884348D01*
X86194350Y-94704058D01*
X85471000Y-93980707D01*
X84747650Y-94704058D01*
X74256350Y-94704058D01*
X73533000Y-93980707D01*
X72809650Y-94704058D01*
X45845000Y-94704058D01*
X45845000Y-94155305D01*
X72429364Y-94155305D01*
X72580460Y-94564304D01*
X72628652Y-94636429D01*
X72808942Y-94703350D01*
X73532293Y-93980000D01*
X73533707Y-93980000D01*
X74257058Y-94703350D01*
X74437348Y-94636429D01*
X74619713Y-94240382D01*
X74623017Y-94155305D01*
X84367364Y-94155305D01*
X84518460Y-94564304D01*
X84566652Y-94636429D01*
X84746942Y-94703350D01*
X85470293Y-93980000D01*
X85471707Y-93980000D01*
X86195058Y-94703350D01*
X86375348Y-94636429D01*
X86557713Y-94240382D01*
X86574636Y-93804695D01*
X86423540Y-93395696D01*
X86375348Y-93323571D01*
X86195058Y-93256650D01*
X85471707Y-93980000D01*
X85470293Y-93980000D01*
X84746942Y-93256650D01*
X84566652Y-93323571D01*
X84384287Y-93719618D01*
X84367364Y-94155305D01*
X74623017Y-94155305D01*
X74636636Y-93804695D01*
X74485540Y-93395696D01*
X74437348Y-93323571D01*
X74257058Y-93256650D01*
X73533707Y-93980000D01*
X73532293Y-93980000D01*
X72808942Y-93256650D01*
X72628652Y-93323571D01*
X72446287Y-93719618D01*
X72429364Y-94155305D01*
X45845000Y-94155305D01*
X45845000Y-93255942D01*
X72809650Y-93255942D01*
X73533000Y-93979293D01*
X74256350Y-93255942D01*
X84747650Y-93255942D01*
X85471000Y-93979293D01*
X86194350Y-93255942D01*
X86127429Y-93075652D01*
X85731382Y-92893287D01*
X85295695Y-92876364D01*
X84886696Y-93027460D01*
X84814571Y-93075652D01*
X84747650Y-93255942D01*
X74256350Y-93255942D01*
X74189429Y-93075652D01*
X73793382Y-92893287D01*
X73357695Y-92876364D01*
X72948696Y-93027460D01*
X72876571Y-93075652D01*
X72809650Y-93255942D01*
X45845000Y-93255942D01*
X45845000Y-91666755D01*
X72387802Y-91666755D01*
X72561750Y-92087743D01*
X72883563Y-92410118D01*
X73304246Y-92584801D01*
X73759755Y-92585198D01*
X74180743Y-92411250D01*
X74503118Y-92089437D01*
X74677801Y-91668754D01*
X74677802Y-91666755D01*
X84325802Y-91666755D01*
X84499750Y-92087743D01*
X84821563Y-92410118D01*
X85242246Y-92584801D01*
X85697755Y-92585198D01*
X86118743Y-92411250D01*
X86441118Y-92089437D01*
X86615801Y-91668754D01*
X86616198Y-91213245D01*
X86442250Y-90792257D01*
X86120437Y-90469882D01*
X85699754Y-90295199D01*
X85244245Y-90294802D01*
X84823257Y-90468750D01*
X84500882Y-90790563D01*
X84326199Y-91211246D01*
X84325802Y-91666755D01*
X74677802Y-91666755D01*
X74678198Y-91213245D01*
X74504250Y-90792257D01*
X74182437Y-90469882D01*
X73761754Y-90295199D01*
X73306245Y-90294802D01*
X72885257Y-90468750D01*
X72562882Y-90790563D01*
X72388199Y-91211246D01*
X72387802Y-91666755D01*
X45845000Y-91666755D01*
X45845000Y-88685000D01*
X58406674Y-88685000D01*
X58406674Y-90385000D01*
X58436309Y-90542496D01*
X58529389Y-90687146D01*
X58671412Y-90784186D01*
X58840000Y-90818326D01*
X60540000Y-90818326D01*
X60697496Y-90788691D01*
X60842146Y-90695611D01*
X60939186Y-90553588D01*
X60973326Y-90385000D01*
X60973326Y-89641734D01*
X63480973Y-89641734D01*
X63557627Y-89830337D01*
X63982576Y-90026027D01*
X64450065Y-90044199D01*
X64888922Y-89882087D01*
X64966373Y-89830337D01*
X65043027Y-89641734D01*
X64262000Y-88860707D01*
X63480973Y-89641734D01*
X60973326Y-89641734D01*
X60973326Y-89048065D01*
X63077801Y-89048065D01*
X63239913Y-89486922D01*
X63291663Y-89564373D01*
X63480266Y-89641027D01*
X64261293Y-88860000D01*
X64262707Y-88860000D01*
X65043734Y-89641027D01*
X65232337Y-89564373D01*
X65428027Y-89139424D01*
X65428519Y-89126755D01*
X72387802Y-89126755D01*
X72561750Y-89547743D01*
X72883563Y-89870118D01*
X73304246Y-90044801D01*
X73759755Y-90045198D01*
X74180743Y-89871250D01*
X74503118Y-89549437D01*
X74677801Y-89128754D01*
X74677802Y-89126755D01*
X84325802Y-89126755D01*
X84499750Y-89547743D01*
X84821563Y-89870118D01*
X85242246Y-90044801D01*
X85697755Y-90045198D01*
X86118743Y-89871250D01*
X86441118Y-89549437D01*
X86615801Y-89128754D01*
X86616198Y-88673245D01*
X86442250Y-88252257D01*
X86120437Y-87929882D01*
X85699754Y-87755199D01*
X85244245Y-87754802D01*
X84823257Y-87928750D01*
X84500882Y-88250563D01*
X84326199Y-88671246D01*
X84325802Y-89126755D01*
X74677802Y-89126755D01*
X74678198Y-88673245D01*
X74504250Y-88252257D01*
X74182437Y-87929882D01*
X73761754Y-87755199D01*
X73306245Y-87754802D01*
X72885257Y-87928750D01*
X72562882Y-88250563D01*
X72388199Y-88671246D01*
X72387802Y-89126755D01*
X65428519Y-89126755D01*
X65446199Y-88671935D01*
X65284087Y-88233078D01*
X65232337Y-88155627D01*
X65043734Y-88078973D01*
X64262707Y-88860000D01*
X64261293Y-88860000D01*
X63480266Y-88078973D01*
X63291663Y-88155627D01*
X63095973Y-88580576D01*
X63077801Y-89048065D01*
X60973326Y-89048065D01*
X60973326Y-88685000D01*
X60943691Y-88527504D01*
X60850611Y-88382854D01*
X60708588Y-88285814D01*
X60540000Y-88251674D01*
X58840000Y-88251674D01*
X58682504Y-88281309D01*
X58537854Y-88374389D01*
X58440814Y-88516412D01*
X58406674Y-88685000D01*
X45845000Y-88685000D01*
X45845000Y-88078266D01*
X63480973Y-88078266D01*
X64262000Y-88859293D01*
X65043027Y-88078266D01*
X64966373Y-87889663D01*
X64541424Y-87693973D01*
X64073935Y-87675801D01*
X63635078Y-87837913D01*
X63557627Y-87889663D01*
X63480973Y-88078266D01*
X45845000Y-88078266D01*
X45845000Y-81685000D01*
X61680000Y-81685000D01*
X61680000Y-84328000D01*
X61721866Y-84538476D01*
X61841091Y-84716909D01*
X63096549Y-85972367D01*
X63037213Y-86115263D01*
X63036788Y-86602599D01*
X63222890Y-87053000D01*
X63567187Y-87397899D01*
X64017263Y-87584787D01*
X64504599Y-87585212D01*
X64955000Y-87399110D01*
X65299899Y-87054813D01*
X65486787Y-86604737D01*
X65487212Y-86117401D01*
X65301110Y-85667000D01*
X64956813Y-85322101D01*
X64506737Y-85135213D01*
X64019401Y-85134788D01*
X63874484Y-85194666D01*
X62841232Y-84161414D01*
X62847156Y-84163874D01*
X62939137Y-84163954D01*
X63238089Y-84462906D01*
X63238091Y-84462909D01*
X63361138Y-84545126D01*
X63416524Y-84582134D01*
X63627000Y-84624001D01*
X63627005Y-84624000D01*
X82328629Y-84624000D01*
X82392784Y-84688267D01*
X82659156Y-84798874D01*
X82947579Y-84799126D01*
X83214143Y-84688984D01*
X83418267Y-84485216D01*
X83528874Y-84218844D01*
X83529126Y-83930421D01*
X83418984Y-83663857D01*
X83215216Y-83459733D01*
X82948844Y-83349126D01*
X82660421Y-83348874D01*
X82393857Y-83459016D01*
X82328759Y-83524000D01*
X63854817Y-83524000D01*
X63717047Y-83386229D01*
X63717126Y-83295421D01*
X63606984Y-83028857D01*
X63403216Y-82824733D01*
X63136844Y-82714126D01*
X62848421Y-82713874D01*
X62780000Y-82742145D01*
X62780000Y-81912818D01*
X63310771Y-81382047D01*
X63401579Y-81382126D01*
X63668143Y-81271984D01*
X63872267Y-81068216D01*
X63982874Y-80801844D01*
X63983126Y-80513421D01*
X63872984Y-80246857D01*
X63669216Y-80042733D01*
X63402844Y-79932126D01*
X63114421Y-79931874D01*
X62847857Y-80042016D01*
X62643733Y-80245784D01*
X62533126Y-80512156D01*
X62533046Y-80604137D01*
X61841091Y-81296091D01*
X61721866Y-81474524D01*
X61680000Y-81685000D01*
X45845000Y-81685000D01*
X45845000Y-78375579D01*
X63282874Y-78375579D01*
X63393016Y-78642143D01*
X63596784Y-78846267D01*
X63863156Y-78956874D01*
X63955136Y-78956954D01*
X67429089Y-82430906D01*
X67429091Y-82430909D01*
X67482393Y-82466524D01*
X67607524Y-82550134D01*
X67818000Y-82592001D01*
X67818005Y-82592000D01*
X71152629Y-82592000D01*
X71216784Y-82656267D01*
X71483156Y-82766874D01*
X71771579Y-82767126D01*
X72038143Y-82656984D01*
X72103241Y-82592000D01*
X77851000Y-82592000D01*
X78061476Y-82550134D01*
X78239909Y-82430909D01*
X80237135Y-80433683D01*
X80284016Y-80547143D01*
X80487784Y-80751267D01*
X80754156Y-80861874D01*
X80846136Y-80861954D01*
X81780091Y-81795909D01*
X81958524Y-81915134D01*
X82169000Y-81957000D01*
X82582629Y-81957000D01*
X82646784Y-82021267D01*
X82913156Y-82131874D01*
X83201579Y-82132126D01*
X83468143Y-82021984D01*
X83672267Y-81818216D01*
X83782874Y-81551844D01*
X83782875Y-81550579D01*
X90968874Y-81550579D01*
X91079016Y-81817143D01*
X91144000Y-81882241D01*
X91144000Y-85217000D01*
X91185866Y-85427476D01*
X91305091Y-85605909D01*
X91476953Y-85777771D01*
X91476874Y-85868579D01*
X91587016Y-86135143D01*
X91790784Y-86339267D01*
X92057156Y-86449874D01*
X92345579Y-86450126D01*
X92612143Y-86339984D01*
X92816267Y-86136216D01*
X92900571Y-85933190D01*
X92984016Y-86135143D01*
X93187784Y-86339267D01*
X93454156Y-86449874D01*
X93742579Y-86450126D01*
X94009143Y-86339984D01*
X94213267Y-86136216D01*
X94323874Y-85869844D01*
X94324126Y-85581421D01*
X94213984Y-85314857D01*
X94010216Y-85110733D01*
X93743844Y-85000126D01*
X93651864Y-85000046D01*
X93006000Y-84354182D01*
X93006000Y-83963579D01*
X94651874Y-83963579D01*
X94702000Y-84084893D01*
X94702000Y-86476046D01*
X94652126Y-86596156D01*
X94651874Y-86884579D01*
X94762016Y-87151143D01*
X94965784Y-87355267D01*
X95232156Y-87465874D01*
X95520579Y-87466126D01*
X95787143Y-87355984D01*
X95991267Y-87152216D01*
X96101874Y-86885844D01*
X96102126Y-86597421D01*
X96052000Y-86476107D01*
X96052000Y-85840599D01*
X117011788Y-85840599D01*
X117197890Y-86291000D01*
X117542187Y-86635899D01*
X117992263Y-86822787D01*
X118479599Y-86823212D01*
X118930000Y-86637110D01*
X119274899Y-86292813D01*
X119461787Y-85842737D01*
X119462212Y-85355401D01*
X119276110Y-84905000D01*
X118931813Y-84560101D01*
X118481737Y-84373213D01*
X117994401Y-84372788D01*
X117544000Y-84558890D01*
X117199101Y-84903187D01*
X117012213Y-85353263D01*
X117011788Y-85840599D01*
X96052000Y-85840599D01*
X96052000Y-84084954D01*
X96101874Y-83964844D01*
X96102126Y-83676421D01*
X95991984Y-83409857D01*
X95788216Y-83205733D01*
X95521844Y-83095126D01*
X95233421Y-83094874D01*
X94966857Y-83205016D01*
X94762733Y-83408784D01*
X94652126Y-83675156D01*
X94651874Y-83963579D01*
X93006000Y-83963579D01*
X93006000Y-83152371D01*
X93070267Y-83088216D01*
X93180874Y-82821844D01*
X93181126Y-82533421D01*
X93070984Y-82266857D01*
X92867216Y-82062733D01*
X92600844Y-81952126D01*
X92312421Y-81951874D01*
X92244000Y-81980145D01*
X92244000Y-81882371D01*
X92308267Y-81818216D01*
X92418874Y-81551844D01*
X92419126Y-81263421D01*
X92308984Y-80996857D01*
X92105216Y-80792733D01*
X91838844Y-80682126D01*
X91550421Y-80681874D01*
X91283857Y-80792016D01*
X91079733Y-80995784D01*
X90969126Y-81262156D01*
X90968874Y-81550579D01*
X83782875Y-81550579D01*
X83783126Y-81263421D01*
X83672984Y-80996857D01*
X83469216Y-80792733D01*
X83419492Y-80772086D01*
X83468143Y-80751984D01*
X83533241Y-80687000D01*
X91440000Y-80687000D01*
X91650476Y-80645134D01*
X91828909Y-80525909D01*
X92000771Y-80354047D01*
X92091579Y-80354126D01*
X92358143Y-80243984D01*
X92562267Y-80040216D01*
X92672874Y-79773844D01*
X92673126Y-79485421D01*
X92634352Y-79391579D01*
X94651874Y-79391579D01*
X94762016Y-79658143D01*
X94965784Y-79862267D01*
X95232156Y-79972874D01*
X95520579Y-79973126D01*
X95787143Y-79862984D01*
X95991267Y-79659216D01*
X96101874Y-79392844D01*
X96102126Y-79104421D01*
X96052000Y-78983107D01*
X96052000Y-78765594D01*
X96555945Y-78261649D01*
X96676143Y-78211984D01*
X96880267Y-78008216D01*
X96990874Y-77741844D01*
X96991126Y-77453421D01*
X96880984Y-77186857D01*
X96677216Y-76982733D01*
X96410844Y-76872126D01*
X96122421Y-76871874D01*
X95855857Y-76982016D01*
X95651733Y-77185784D01*
X95601396Y-77307010D01*
X94899703Y-78008703D01*
X94753381Y-78227688D01*
X94734596Y-78322126D01*
X94702000Y-78486000D01*
X94702000Y-78983046D01*
X94652126Y-79103156D01*
X94651874Y-79391579D01*
X92634352Y-79391579D01*
X92562984Y-79218857D01*
X92359216Y-79014733D01*
X92092844Y-78904126D01*
X91804421Y-78903874D01*
X91537857Y-79014016D01*
X91333733Y-79217784D01*
X91223126Y-79484156D01*
X91223046Y-79576137D01*
X91212182Y-79587000D01*
X83533371Y-79587000D01*
X83469216Y-79522733D01*
X83202844Y-79412126D01*
X82914421Y-79411874D01*
X82647857Y-79522016D01*
X82582759Y-79587000D01*
X82269818Y-79587000D01*
X81541909Y-78859091D01*
X81363476Y-78739866D01*
X81153000Y-78698000D01*
X80645005Y-78698000D01*
X80645000Y-78697999D01*
X80434524Y-78739866D01*
X80256091Y-78859091D01*
X77623182Y-81492000D01*
X72103371Y-81492000D01*
X72039216Y-81427733D01*
X71772844Y-81317126D01*
X71484421Y-81316874D01*
X71217857Y-81427016D01*
X71152759Y-81492000D01*
X68045817Y-81492000D01*
X64733047Y-78179229D01*
X64733126Y-78088421D01*
X64622984Y-77821857D01*
X64419216Y-77617733D01*
X64152844Y-77507126D01*
X63864421Y-77506874D01*
X63597857Y-77617016D01*
X63393733Y-77820784D01*
X63283126Y-78087156D01*
X63282874Y-78375579D01*
X45845000Y-78375579D01*
X45845000Y-72175000D01*
X74281674Y-72175000D01*
X74281674Y-73875000D01*
X74311309Y-74032496D01*
X74404389Y-74177146D01*
X74546412Y-74274186D01*
X74715000Y-74308326D01*
X76415000Y-74308326D01*
X76572496Y-74278691D01*
X76717146Y-74185611D01*
X76814186Y-74043588D01*
X76848326Y-73875000D01*
X76848326Y-72175000D01*
X76818691Y-72017504D01*
X76725611Y-71872854D01*
X76583588Y-71775814D01*
X76415000Y-71741674D01*
X74715000Y-71741674D01*
X74557504Y-71771309D01*
X74412854Y-71864389D01*
X74315814Y-72006412D01*
X74281674Y-72175000D01*
X45845000Y-72175000D01*
X45845000Y-67052310D01*
X45913867Y-66706090D01*
X46103013Y-66423013D01*
X46386090Y-66233867D01*
X46732310Y-66165000D01*
X91440000Y-66165000D01*
X91487037Y-66155813D01*
X91528388Y-66128388D01*
X97585495Y-60071281D01*
X97601041Y-60052339D01*
X97817814Y-59727916D01*
X97836478Y-59682856D01*
X97912598Y-59300172D01*
X97915000Y-59275786D01*
X97915000Y-52073728D01*
X98118788Y-51870296D01*
X98406672Y-51176994D01*
X98407327Y-50426299D01*
X98120654Y-49732497D01*
X97915000Y-49526484D01*
X97915000Y-45723728D01*
X98118788Y-45520296D01*
X98406672Y-44826994D01*
X98407175Y-44250118D01*
X113310589Y-44250118D01*
X113435907Y-44480284D01*
X114005369Y-44742594D01*
X114631865Y-44767014D01*
X115220017Y-44549826D01*
X115324093Y-44480284D01*
X115449411Y-44250118D01*
X114380000Y-43180707D01*
X113310589Y-44250118D01*
X98407175Y-44250118D01*
X98407327Y-44076299D01*
X98141053Y-43431865D01*
X112792986Y-43431865D01*
X113010174Y-44020017D01*
X113079716Y-44124093D01*
X113309882Y-44249411D01*
X114379293Y-43180000D01*
X114380707Y-43180000D01*
X115450118Y-44249411D01*
X115680284Y-44124093D01*
X115942594Y-43554631D01*
X115967014Y-42928135D01*
X115749826Y-42339983D01*
X115680284Y-42235907D01*
X115450118Y-42110589D01*
X114380707Y-43180000D01*
X114379293Y-43180000D01*
X113309882Y-42110589D01*
X113079716Y-42235907D01*
X112817406Y-42805369D01*
X112792986Y-43431865D01*
X98141053Y-43431865D01*
X98120654Y-43382497D01*
X97915000Y-43176484D01*
X97915000Y-42109882D01*
X113310589Y-42109882D01*
X114380000Y-43179293D01*
X115449411Y-42109882D01*
X115378695Y-41980000D01*
X117746674Y-41980000D01*
X117746674Y-44380000D01*
X117776309Y-44537496D01*
X117869389Y-44682146D01*
X118011412Y-44779186D01*
X118180000Y-44813326D01*
X120580000Y-44813326D01*
X120737496Y-44783691D01*
X120882146Y-44690611D01*
X120979186Y-44548588D01*
X121013326Y-44380000D01*
X121013326Y-41980000D01*
X120983691Y-41822504D01*
X120890611Y-41677854D01*
X120748588Y-41580814D01*
X120580000Y-41546674D01*
X118180000Y-41546674D01*
X118022504Y-41576309D01*
X117877854Y-41669389D01*
X117780814Y-41811412D01*
X117746674Y-41980000D01*
X115378695Y-41980000D01*
X115324093Y-41879716D01*
X114754631Y-41617406D01*
X114128135Y-41592986D01*
X113539983Y-41810174D01*
X113435907Y-41879716D01*
X113310589Y-42109882D01*
X97915000Y-42109882D01*
X97915000Y-39373728D01*
X98118788Y-39170296D01*
X98406672Y-38476994D01*
X98407327Y-37726299D01*
X98120654Y-37032497D01*
X97915000Y-36826484D01*
X97915000Y-33023728D01*
X98118788Y-32820296D01*
X98406672Y-32126994D01*
X98407327Y-31376299D01*
X98120654Y-30682497D01*
X97915000Y-30476484D01*
X97915000Y-23872310D01*
X97983867Y-23526090D01*
X98173013Y-23243013D01*
X98456090Y-23053867D01*
X98802310Y-22985000D01*
X146307690Y-22985000D01*
X146653910Y-23053867D01*
G36*
X78073910Y-115128867D02*
X78356987Y-115318013D01*
X78546133Y-115601090D01*
X78615000Y-115947310D01*
X78615000Y-119002690D01*
X78546133Y-119348910D01*
X78356987Y-119631987D01*
X78073910Y-119821133D01*
X77727690Y-119890000D01*
X76610271Y-119890000D01*
X76620548Y-119801255D01*
X76200000Y-119380707D01*
X75779452Y-119801255D01*
X75789729Y-119890000D01*
X74070271Y-119890000D01*
X74080548Y-119801255D01*
X73660000Y-119380707D01*
X73239452Y-119801255D01*
X73249729Y-119890000D01*
X72132310Y-119890000D01*
X71786090Y-119821133D01*
X71503013Y-119631987D01*
X71407015Y-119488315D01*
X72979320Y-119488315D01*
X73072584Y-119740555D01*
X73102096Y-119784723D01*
X73238745Y-119800548D01*
X73659293Y-119380000D01*
X73660707Y-119380000D01*
X74081255Y-119800548D01*
X74217904Y-119784723D01*
X74330317Y-119540415D01*
X74332326Y-119488315D01*
X75519320Y-119488315D01*
X75612584Y-119740555D01*
X75642096Y-119784723D01*
X75778745Y-119800548D01*
X76199293Y-119380000D01*
X76200707Y-119380000D01*
X76621255Y-119800548D01*
X76757904Y-119784723D01*
X76870317Y-119540415D01*
X76880680Y-119271685D01*
X76787416Y-119019445D01*
X76757904Y-118975277D01*
X76621255Y-118959452D01*
X76200707Y-119380000D01*
X76199293Y-119380000D01*
X75778745Y-118959452D01*
X75642096Y-118975277D01*
X75529683Y-119219585D01*
X75519320Y-119488315D01*
X74332326Y-119488315D01*
X74340680Y-119271685D01*
X74247416Y-119019445D01*
X74217904Y-118975277D01*
X74081255Y-118959452D01*
X73660707Y-119380000D01*
X73659293Y-119380000D01*
X73238745Y-118959452D01*
X73102096Y-118975277D01*
X72989683Y-119219585D01*
X72979320Y-119488315D01*
X71407015Y-119488315D01*
X71313867Y-119348910D01*
X71245000Y-119002690D01*
X71245000Y-118958745D01*
X73239452Y-118958745D01*
X73660000Y-119379293D01*
X74080548Y-118958745D01*
X75779452Y-118958745D01*
X76200000Y-119379293D01*
X76620548Y-118958745D01*
X76604723Y-118822096D01*
X76360415Y-118709683D01*
X76091685Y-118699320D01*
X75839445Y-118792584D01*
X75795277Y-118822096D01*
X75779452Y-118958745D01*
X74080548Y-118958745D01*
X74064723Y-118822096D01*
X73820415Y-118709683D01*
X73551685Y-118699320D01*
X73299445Y-118792584D01*
X73255277Y-118822096D01*
X73239452Y-118958745D01*
X71245000Y-118958745D01*
X71245000Y-117261255D01*
X73239452Y-117261255D01*
X73255277Y-117397904D01*
X73499585Y-117510317D01*
X73768315Y-117520680D01*
X74020555Y-117427416D01*
X74064723Y-117397904D01*
X74080548Y-117261255D01*
X75779452Y-117261255D01*
X75795277Y-117397904D01*
X76039585Y-117510317D01*
X76308315Y-117520680D01*
X76560555Y-117427416D01*
X76604723Y-117397904D01*
X76620548Y-117261255D01*
X76200000Y-116840707D01*
X75779452Y-117261255D01*
X74080548Y-117261255D01*
X73660000Y-116840707D01*
X73239452Y-117261255D01*
X71245000Y-117261255D01*
X71245000Y-116948315D01*
X72979320Y-116948315D01*
X73072584Y-117200555D01*
X73102096Y-117244723D01*
X73238745Y-117260548D01*
X73659293Y-116840000D01*
X73660707Y-116840000D01*
X74081255Y-117260548D01*
X74217904Y-117244723D01*
X74330317Y-117000415D01*
X74332326Y-116948315D01*
X75519320Y-116948315D01*
X75612584Y-117200555D01*
X75642096Y-117244723D01*
X75778745Y-117260548D01*
X76199293Y-116840000D01*
X76200707Y-116840000D01*
X76621255Y-117260548D01*
X76757904Y-117244723D01*
X76870317Y-117000415D01*
X76880680Y-116731685D01*
X76787416Y-116479445D01*
X76757904Y-116435277D01*
X76621255Y-116419452D01*
X76200707Y-116840000D01*
X76199293Y-116840000D01*
X75778745Y-116419452D01*
X75642096Y-116435277D01*
X75529683Y-116679585D01*
X75519320Y-116948315D01*
X74332326Y-116948315D01*
X74340680Y-116731685D01*
X74247416Y-116479445D01*
X74217904Y-116435277D01*
X74081255Y-116419452D01*
X73660707Y-116840000D01*
X73659293Y-116840000D01*
X73238745Y-116419452D01*
X73102096Y-116435277D01*
X72989683Y-116679585D01*
X72979320Y-116948315D01*
X71245000Y-116948315D01*
X71245000Y-116418745D01*
X73239452Y-116418745D01*
X73660000Y-116839293D01*
X74080548Y-116418745D01*
X75779452Y-116418745D01*
X76200000Y-116839293D01*
X76620548Y-116418745D01*
X76604723Y-116282096D01*
X76360415Y-116169683D01*
X76091685Y-116159320D01*
X75839445Y-116252584D01*
X75795277Y-116282096D01*
X75779452Y-116418745D01*
X74080548Y-116418745D01*
X74064723Y-116282096D01*
X73820415Y-116169683D01*
X73551685Y-116159320D01*
X73299445Y-116252584D01*
X73255277Y-116282096D01*
X73239452Y-116418745D01*
X71245000Y-116418745D01*
X71245000Y-115947310D01*
X71313867Y-115601090D01*
X71503013Y-115318013D01*
X71786090Y-115128867D01*
X72132310Y-115060000D01*
X77727690Y-115060000D01*
X78073910Y-115128867D01*
X78073910Y-115128867D01*
G37*
X78073910Y-115128867D02*
X78356987Y-115318013D01*
X78546133Y-115601090D01*
X78615000Y-115947310D01*
X78615000Y-119002690D01*
X78546133Y-119348910D01*
X78356987Y-119631987D01*
X78073910Y-119821133D01*
X77727690Y-119890000D01*
X76610271Y-119890000D01*
X76620548Y-119801255D01*
X76200000Y-119380707D01*
X75779452Y-119801255D01*
X75789729Y-119890000D01*
X74070271Y-119890000D01*
X74080548Y-119801255D01*
X73660000Y-119380707D01*
X73239452Y-119801255D01*
X73249729Y-119890000D01*
X72132310Y-119890000D01*
X71786090Y-119821133D01*
X71503013Y-119631987D01*
X71407015Y-119488315D01*
X72979320Y-119488315D01*
X73072584Y-119740555D01*
X73102096Y-119784723D01*
X73238745Y-119800548D01*
X73659293Y-119380000D01*
X73660707Y-119380000D01*
X74081255Y-119800548D01*
X74217904Y-119784723D01*
X74330317Y-119540415D01*
X74332326Y-119488315D01*
X75519320Y-119488315D01*
X75612584Y-119740555D01*
X75642096Y-119784723D01*
X75778745Y-119800548D01*
X76199293Y-119380000D01*
X76200707Y-119380000D01*
X76621255Y-119800548D01*
X76757904Y-119784723D01*
X76870317Y-119540415D01*
X76880680Y-119271685D01*
X76787416Y-119019445D01*
X76757904Y-118975277D01*
X76621255Y-118959452D01*
X76200707Y-119380000D01*
X76199293Y-119380000D01*
X75778745Y-118959452D01*
X75642096Y-118975277D01*
X75529683Y-119219585D01*
X75519320Y-119488315D01*
X74332326Y-119488315D01*
X74340680Y-119271685D01*
X74247416Y-119019445D01*
X74217904Y-118975277D01*
X74081255Y-118959452D01*
X73660707Y-119380000D01*
X73659293Y-119380000D01*
X73238745Y-118959452D01*
X73102096Y-118975277D01*
X72989683Y-119219585D01*
X72979320Y-119488315D01*
X71407015Y-119488315D01*
X71313867Y-119348910D01*
X71245000Y-119002690D01*
X71245000Y-118958745D01*
X73239452Y-118958745D01*
X73660000Y-119379293D01*
X74080548Y-118958745D01*
X75779452Y-118958745D01*
X76200000Y-119379293D01*
X76620548Y-118958745D01*
X76604723Y-118822096D01*
X76360415Y-118709683D01*
X76091685Y-118699320D01*
X75839445Y-118792584D01*
X75795277Y-118822096D01*
X75779452Y-118958745D01*
X74080548Y-118958745D01*
X74064723Y-118822096D01*
X73820415Y-118709683D01*
X73551685Y-118699320D01*
X73299445Y-118792584D01*
X73255277Y-118822096D01*
X73239452Y-118958745D01*
X71245000Y-118958745D01*
X71245000Y-117261255D01*
X73239452Y-117261255D01*
X73255277Y-117397904D01*
X73499585Y-117510317D01*
X73768315Y-117520680D01*
X74020555Y-117427416D01*
X74064723Y-117397904D01*
X74080548Y-117261255D01*
X75779452Y-117261255D01*
X75795277Y-117397904D01*
X76039585Y-117510317D01*
X76308315Y-117520680D01*
X76560555Y-117427416D01*
X76604723Y-117397904D01*
X76620548Y-117261255D01*
X76200000Y-116840707D01*
X75779452Y-117261255D01*
X74080548Y-117261255D01*
X73660000Y-116840707D01*
X73239452Y-117261255D01*
X71245000Y-117261255D01*
X71245000Y-116948315D01*
X72979320Y-116948315D01*
X73072584Y-117200555D01*
X73102096Y-117244723D01*
X73238745Y-117260548D01*
X73659293Y-116840000D01*
X73660707Y-116840000D01*
X74081255Y-117260548D01*
X74217904Y-117244723D01*
X74330317Y-117000415D01*
X74332326Y-116948315D01*
X75519320Y-116948315D01*
X75612584Y-117200555D01*
X75642096Y-117244723D01*
X75778745Y-117260548D01*
X76199293Y-116840000D01*
X76200707Y-116840000D01*
X76621255Y-117260548D01*
X76757904Y-117244723D01*
X76870317Y-117000415D01*
X76880680Y-116731685D01*
X76787416Y-116479445D01*
X76757904Y-116435277D01*
X76621255Y-116419452D01*
X76200707Y-116840000D01*
X76199293Y-116840000D01*
X75778745Y-116419452D01*
X75642096Y-116435277D01*
X75529683Y-116679585D01*
X75519320Y-116948315D01*
X74332326Y-116948315D01*
X74340680Y-116731685D01*
X74247416Y-116479445D01*
X74217904Y-116435277D01*
X74081255Y-116419452D01*
X73660707Y-116840000D01*
X73659293Y-116840000D01*
X73238745Y-116419452D01*
X73102096Y-116435277D01*
X72989683Y-116679585D01*
X72979320Y-116948315D01*
X71245000Y-116948315D01*
X71245000Y-116418745D01*
X73239452Y-116418745D01*
X73660000Y-116839293D01*
X74080548Y-116418745D01*
X75779452Y-116418745D01*
X76200000Y-116839293D01*
X76620548Y-116418745D01*
X76604723Y-116282096D01*
X76360415Y-116169683D01*
X76091685Y-116159320D01*
X75839445Y-116252584D01*
X75795277Y-116282096D01*
X75779452Y-116418745D01*
X74080548Y-116418745D01*
X74064723Y-116282096D01*
X73820415Y-116169683D01*
X73551685Y-116159320D01*
X73299445Y-116252584D01*
X73255277Y-116282096D01*
X73239452Y-116418745D01*
X71245000Y-116418745D01*
X71245000Y-115947310D01*
X71313867Y-115601090D01*
X71503013Y-115318013D01*
X71786090Y-115128867D01*
X72132310Y-115060000D01*
X77727690Y-115060000D01*
X78073910Y-115128867D01*
M02*
