G04 #@! TF.FileFunction,Copper,L1,Top,Signal*
%FSLAX46Y46*%
G04 Gerber Fmt 4.6, Leading zero omitted, Abs format (unit mm)*
G04 Created by KiCad (PCBNEW 4.0.7) date 04/11/19 03:01:07*
%MOMM*%
%LPD*%
G01*
G04 APERTURE LIST*
%ADD10C,0.100000*%
%ADD11C,1.600000*%
%ADD12R,7.000000X2.500000*%
%ADD13R,2.400000X2.400000*%
%ADD14C,2.400000*%
%ADD15R,3.500000X1.600000*%
%ADD16R,1.000000X1.250000*%
%ADD17R,1.600000X3.500000*%
%ADD18R,1.250000X1.000000*%
%ADD19R,0.800000X0.750000*%
%ADD20R,0.750000X0.800000*%
%ADD21R,1.200000X0.750000*%
%ADD22R,2.200000X2.100000*%
%ADD23R,1.600000X3.000000*%
%ADD24C,0.600000*%
%ADD25R,6.000000X6.000000*%
%ADD26R,2.100000X2.200000*%
%ADD27R,1.524000X2.032000*%
%ADD28C,2.000000*%
%ADD29R,0.800000X0.900000*%
%ADD30C,2.800000*%
%ADD31O,2.800000X2.800000*%
%ADD32R,1.300000X0.700000*%
%ADD33R,0.500000X0.900000*%
%ADD34R,0.900000X0.500000*%
%ADD35R,0.700000X1.300000*%
%ADD36C,1.440000*%
%ADD37C,1.700000*%
%ADD38C,1.524000*%
%ADD39R,1.500000X1.300000*%
%ADD40R,3.800000X2.000000*%
%ADD41R,1.500000X2.000000*%
%ADD42R,1.060000X0.650000*%
%ADD43R,1.550000X0.600000*%
%ADD44R,1.800000X1.500000*%
%ADD45R,0.450000X1.450000*%
%ADD46R,1.700000X1.700000*%
%ADD47C,0.500000*%
%ADD48C,0.250000*%
%ADD49C,1.000000*%
%ADD50C,0.750000*%
G04 APERTURE END LIST*
D10*
D11*
X118237000Y-85598000D03*
X118237000Y-114548000D03*
D12*
X130310000Y-36060000D03*
X144010000Y-36060000D03*
X130310000Y-58420000D03*
X144010000Y-58420000D03*
D13*
X119380000Y-43180000D03*
D14*
X114380000Y-43180000D03*
D15*
X119540000Y-55880000D03*
X114140000Y-55880000D03*
D16*
X104410000Y-65659000D03*
X106410000Y-65659000D03*
X106680000Y-78740000D03*
X108680000Y-78740000D03*
D17*
X66040000Y-113505000D03*
X66040000Y-118905000D03*
X66040000Y-107475000D03*
X66040000Y-102075000D03*
D18*
X59690000Y-112088333D03*
X59690000Y-114088333D03*
X59690000Y-108585000D03*
X59690000Y-106585000D03*
X55880000Y-112030000D03*
X55880000Y-114030000D03*
X55880000Y-108585000D03*
X55880000Y-106585000D03*
D19*
X78232000Y-78867000D03*
X76732000Y-78867000D03*
D20*
X78613000Y-83554000D03*
X78613000Y-82054000D03*
D19*
X79744000Y-76835000D03*
X78244000Y-76835000D03*
D16*
X108696000Y-49530000D03*
X106696000Y-49530000D03*
D21*
X104775000Y-52070000D03*
X106675000Y-52070000D03*
D16*
X104759000Y-49530000D03*
X102759000Y-49530000D03*
X100584000Y-78486000D03*
X102584000Y-78486000D03*
D18*
X94107000Y-78629000D03*
X94107000Y-80629000D03*
D11*
X64262000Y-86360000D03*
X64262000Y-88860000D03*
D20*
X72771000Y-81673000D03*
X72771000Y-83173000D03*
D22*
X118110000Y-33020000D03*
X118110000Y-28620000D03*
D23*
X77230000Y-111610000D03*
D24*
X73660000Y-119380000D03*
X76200000Y-119380000D03*
X76200000Y-116840000D03*
D25*
X74930000Y-118110000D03*
D24*
X73660000Y-116840000D03*
D23*
X72630000Y-111610000D03*
D22*
X142240000Y-94660000D03*
X142240000Y-99060000D03*
D26*
X124714000Y-73660000D03*
X129114000Y-73660000D03*
D27*
X56769000Y-39370000D03*
X60071000Y-39370000D03*
D28*
X52070000Y-46990000D03*
X52070000Y-52070000D03*
D29*
X82230000Y-115840000D03*
X80330000Y-115840000D03*
X81280000Y-117840000D03*
D30*
X73279000Y-105029000D03*
D31*
X93599000Y-105029000D03*
D32*
X81153000Y-83124000D03*
X81153000Y-85024000D03*
X76073000Y-82997000D03*
X76073000Y-84897000D03*
D33*
X79895000Y-78867000D03*
X81395000Y-78867000D03*
D34*
X78613000Y-85229000D03*
X78613000Y-86729000D03*
D32*
X101473000Y-73853000D03*
X101473000Y-75753000D03*
X101346000Y-80965000D03*
X101346000Y-82865000D03*
X92202000Y-88580000D03*
X92202000Y-86680000D03*
D35*
X112842000Y-60579000D03*
X114742000Y-60579000D03*
X74742000Y-80772000D03*
X76642000Y-80772000D03*
D33*
X67068000Y-85344000D03*
X68568000Y-85344000D03*
D34*
X62103000Y-80657000D03*
X62103000Y-82157000D03*
D35*
X112842001Y-63119000D03*
X114742001Y-63119000D03*
X112842001Y-65659000D03*
X114742001Y-65659000D03*
D34*
X60071000Y-77736000D03*
X60071000Y-79236000D03*
X60071000Y-80657000D03*
X60071000Y-82157000D03*
D36*
X85471000Y-88900000D03*
X85471000Y-91440000D03*
X85471000Y-93980000D03*
X73533000Y-88900000D03*
X73533000Y-91440000D03*
X73533000Y-93980000D03*
D37*
X52070000Y-26670000D03*
X57150000Y-26670000D03*
X52070000Y-31750000D03*
X54610000Y-31750000D03*
X57150000Y-31750000D03*
D38*
X66040000Y-31750000D03*
X66040000Y-38100000D03*
X66040000Y-44450000D03*
X66040000Y-50800000D03*
X96520000Y-31750000D03*
X96520000Y-38100000D03*
X96520000Y-44450000D03*
X96520000Y-50800000D03*
D39*
X103500000Y-33030000D03*
X112400000Y-33030000D03*
X112400000Y-27930000D03*
X103500000Y-27930000D03*
D40*
X106920000Y-60910000D03*
D41*
X106920000Y-54610000D03*
X104620000Y-54610000D03*
X109220000Y-54610000D03*
D42*
X84920000Y-113980000D03*
X84920000Y-113030000D03*
X84920000Y-112080000D03*
X82720000Y-112080000D03*
X82720000Y-113980000D03*
D29*
X98674000Y-80026000D03*
X96774000Y-80026000D03*
X97724000Y-82026000D03*
D43*
X90203000Y-82677000D03*
X90203000Y-81407000D03*
X90203000Y-80137000D03*
X90203000Y-78867000D03*
X84803000Y-78867000D03*
X84803000Y-80137000D03*
X84803000Y-81407000D03*
X84803000Y-82677000D03*
D44*
X120280000Y-66790000D03*
X120280000Y-65290000D03*
X118480000Y-65290000D03*
D45*
X117430000Y-68990000D03*
X118080000Y-68990000D03*
X118730000Y-68990000D03*
X119380000Y-68990000D03*
X120030000Y-68990000D03*
X120680000Y-68990000D03*
X121330000Y-68990000D03*
X121330000Y-63090000D03*
X120680000Y-63090000D03*
X120030000Y-63090000D03*
X119380000Y-63090000D03*
X118730000Y-63090000D03*
X118080000Y-63090000D03*
X117430000Y-63090000D03*
D44*
X118480000Y-66790000D03*
D40*
X106680000Y-75540000D03*
D41*
X106680000Y-69240000D03*
X104380000Y-69240000D03*
X108980000Y-69240000D03*
D43*
X70010000Y-83312000D03*
X70010000Y-82042000D03*
X70010000Y-80772000D03*
X70010000Y-79502000D03*
X64610000Y-79502000D03*
X64610000Y-80772000D03*
X64610000Y-82042000D03*
X64610000Y-83312000D03*
D28*
X49530000Y-110490000D03*
X49530000Y-115570000D03*
D46*
X75565000Y-73025000D03*
X59690000Y-89535000D03*
X85598000Y-117094000D03*
D24*
X95377000Y-86741000D03*
X95377000Y-83820000D03*
X95377000Y-79248000D03*
X96266000Y-77597000D03*
X98425000Y-53975000D03*
X98425000Y-55245000D03*
X98425000Y-56515000D03*
X98425000Y-59055000D03*
X98425000Y-57785000D03*
X62230000Y-117983000D03*
X62230000Y-116713000D03*
X76708000Y-75565000D03*
X129159000Y-76454000D03*
X129032000Y-70993000D03*
X132207000Y-73660000D03*
X64770000Y-99695000D03*
X63500000Y-99695000D03*
X62230000Y-99695000D03*
X62230000Y-100965000D03*
X62230000Y-102235000D03*
X62230000Y-103505000D03*
X48260000Y-107315000D03*
X49530000Y-107315000D03*
X50800000Y-107315000D03*
X52070000Y-107315000D03*
X53340000Y-106045000D03*
X54610000Y-104775000D03*
X57150000Y-104775000D03*
X58420000Y-104775000D03*
X62230000Y-104775000D03*
X60960000Y-104775000D03*
X62230000Y-115570000D03*
X60960000Y-115570000D03*
X52070000Y-115570000D03*
X53340000Y-115570000D03*
X54610000Y-115570000D03*
X57150000Y-115570000D03*
X58420000Y-115570000D03*
X86995000Y-114935000D03*
X88900000Y-114935000D03*
X90170000Y-113665000D03*
X91440000Y-112395000D03*
X92710000Y-111125000D03*
X93980000Y-109855000D03*
X95250000Y-108585000D03*
X96520000Y-107315000D03*
X97790000Y-106045000D03*
X97790000Y-104775000D03*
X97155000Y-102870000D03*
X97155000Y-100965000D03*
X97155000Y-99695000D03*
X97155000Y-98425000D03*
X97155000Y-97155000D03*
X97155000Y-95885000D03*
X97155000Y-94615000D03*
X97155000Y-93345000D03*
X97155000Y-92075000D03*
X97155000Y-90805000D03*
X97155000Y-89535000D03*
X97155000Y-88265000D03*
X97155000Y-86995000D03*
X98425000Y-86995000D03*
X99695000Y-86995000D03*
X100965000Y-86995000D03*
X102870000Y-86995000D03*
X104140000Y-86995000D03*
X105410000Y-85725000D03*
X106680000Y-84455000D03*
X107950000Y-83185000D03*
X109220000Y-81915000D03*
X110490000Y-80645000D03*
X116840000Y-79375000D03*
X116840000Y-78105000D03*
X116840000Y-76835000D03*
X116840000Y-75565000D03*
X116840000Y-74295000D03*
X116840000Y-73025000D03*
X115570000Y-73025000D03*
X114300000Y-73025000D03*
X113030000Y-73025000D03*
X113030000Y-74295000D03*
X113030000Y-75565000D03*
X113030000Y-76835000D03*
X113030000Y-78105000D03*
X111760000Y-79375000D03*
X90805000Y-92710000D03*
X89535000Y-93980000D03*
X88265000Y-95250000D03*
X81915000Y-95250000D03*
X80010000Y-95250000D03*
X80010000Y-93980000D03*
X80010000Y-92075000D03*
X77470000Y-92075000D03*
X77470000Y-93980000D03*
X77470000Y-95885000D03*
X76200000Y-97155000D03*
X74295000Y-97155000D03*
X72390000Y-97155000D03*
X70485000Y-97155000D03*
X69215000Y-95885000D03*
X69215000Y-93980000D03*
X69215000Y-92075000D03*
X67310000Y-92075000D03*
X65405000Y-92075000D03*
X63500000Y-92075000D03*
X61595000Y-92075000D03*
X59690000Y-92075000D03*
X57785000Y-92075000D03*
X57785000Y-90170000D03*
X57785000Y-88900000D03*
X57785000Y-86995000D03*
X57785000Y-85090000D03*
X57785000Y-83185000D03*
X57785000Y-81280000D03*
X57785000Y-79375000D03*
X57785000Y-77470000D03*
X57785000Y-75565000D03*
X59690000Y-75565000D03*
X60960000Y-75565000D03*
X62865000Y-75565000D03*
X64770000Y-75565000D03*
X66675000Y-75565000D03*
X68580000Y-75565000D03*
X70485000Y-75565000D03*
X72390000Y-75565000D03*
X74295000Y-75565000D03*
X78105000Y-75565000D03*
X80010000Y-75565000D03*
X81915000Y-75565000D03*
X83820000Y-75565000D03*
X85725000Y-75565000D03*
X87630000Y-75565000D03*
X89535000Y-75565000D03*
X91440000Y-75565000D03*
X93345000Y-75565000D03*
X95250000Y-75565000D03*
X96520000Y-74295000D03*
X97790000Y-73025000D03*
X97790000Y-71755000D03*
X97790000Y-70485000D03*
X97790000Y-69215000D03*
X97790000Y-67945000D03*
X97790000Y-66675000D03*
X97790000Y-65405000D03*
X97790000Y-64135000D03*
X97790000Y-62865000D03*
X97790000Y-61595000D03*
X97790000Y-60325000D03*
X93345000Y-92075000D03*
X92710000Y-93345000D03*
X91440000Y-94615000D03*
X90170000Y-95885000D03*
X88900000Y-97155000D03*
X87630000Y-98425000D03*
X86360000Y-98425000D03*
X85090000Y-98425000D03*
X83820000Y-98425000D03*
X82550000Y-98425000D03*
X81280000Y-98425000D03*
X80010000Y-98425000D03*
X78740000Y-98425000D03*
X77470000Y-99695000D03*
X76200000Y-100965000D03*
X111760000Y-55880000D03*
X146685000Y-60198000D03*
X146685000Y-56642000D03*
X146558000Y-37973000D03*
X146558000Y-34163000D03*
X66040000Y-99568000D03*
X80391000Y-114808000D03*
X81534000Y-112014000D03*
X86233000Y-113030000D03*
X71501000Y-79502000D03*
X117983000Y-70358000D03*
X91948000Y-78486000D03*
X101346000Y-49530000D03*
X114808000Y-27940000D03*
X111760000Y-63119000D03*
X111760000Y-65659000D03*
X94107000Y-81915000D03*
X97790000Y-83185000D03*
X101346000Y-83947000D03*
X103886000Y-78486000D03*
X109982000Y-78740000D03*
X59690000Y-104775000D03*
X55880000Y-104775000D03*
X59690000Y-115570000D03*
X55880000Y-115570000D03*
X62992000Y-83439000D03*
X82804000Y-84074000D03*
X80899000Y-80137000D03*
X83058000Y-81407000D03*
X64008000Y-78232000D03*
X71628000Y-82042000D03*
X83058000Y-80137000D03*
X91948000Y-79629000D03*
X63258000Y-80657000D03*
X86360000Y-111379000D03*
X70358000Y-107696000D03*
X93599000Y-85725000D03*
X92456000Y-82677000D03*
X91694000Y-81407000D03*
X92202000Y-85725000D03*
D47*
X112400000Y-33030000D02*
X115179000Y-33030000D01*
X109220000Y-51435000D02*
X109220000Y-50054000D01*
X109220000Y-54610000D02*
X109220000Y-51435000D01*
X109220000Y-51435000D02*
X122936000Y-51435000D01*
X109220000Y-50054000D02*
X108696000Y-49530000D01*
X119380000Y-43180000D02*
X121666000Y-43180000D01*
X96393000Y-106045000D02*
X88458000Y-113980000D01*
X88458000Y-113980000D02*
X84920000Y-113980000D01*
X96393000Y-103759000D02*
X96393000Y-106045000D01*
X95377000Y-102743000D02*
X96393000Y-103759000D01*
X95377000Y-86741000D02*
X95377000Y-102743000D01*
X95377000Y-79248000D02*
X95377000Y-83820000D01*
X98298000Y-77597000D02*
X96266000Y-77597000D01*
X98679000Y-77216000D02*
X98298000Y-77597000D01*
X104775000Y-52070000D02*
X104775000Y-54455000D01*
X104775000Y-54455000D02*
X104620000Y-54610000D01*
X104775000Y-52070000D02*
X102870000Y-52070000D01*
X102870000Y-52070000D02*
X102235000Y-52705000D01*
X102235000Y-52705000D02*
X102235000Y-62230000D01*
X99822000Y-64643000D02*
X99822000Y-70993000D01*
X99822000Y-70993000D02*
X99822000Y-76073000D01*
X101473000Y-73853000D02*
X101473000Y-72644000D01*
X101473000Y-72644000D02*
X99822000Y-70993000D01*
X99822000Y-76073000D02*
X98679000Y-77216000D01*
X99949000Y-64516000D02*
X99822000Y-64643000D01*
X102235000Y-62230000D02*
X99949000Y-64516000D01*
X104410000Y-65659000D02*
X104410000Y-69210000D01*
X104410000Y-69210000D02*
X104380000Y-69240000D01*
X102235000Y-62230000D02*
X104410000Y-64405000D01*
X104410000Y-64405000D02*
X104410000Y-65659000D01*
X104775000Y-52070000D02*
X104775000Y-49546000D01*
X104775000Y-49546000D02*
X104759000Y-49530000D01*
D48*
X98425000Y-53975000D02*
X98425000Y-55245000D01*
X98425000Y-56515000D02*
X98425000Y-57785000D01*
X98425000Y-59055000D02*
X97790000Y-59690000D01*
X97790000Y-59690000D02*
X97790000Y-60325000D01*
X62230000Y-115570000D02*
X62230000Y-116713000D01*
X78105000Y-75565000D02*
X76708000Y-75565000D01*
D47*
X129114000Y-73660000D02*
X129114000Y-76409000D01*
X129114000Y-76409000D02*
X129159000Y-76454000D01*
X129114000Y-73660000D02*
X129114000Y-71075000D01*
X129114000Y-71075000D02*
X129032000Y-70993000D01*
X129114000Y-73660000D02*
X132207000Y-73660000D01*
D48*
X63500000Y-99695000D02*
X64770000Y-99695000D01*
X62230000Y-100965000D02*
X62230000Y-99695000D01*
X62230000Y-103505000D02*
X62230000Y-102235000D01*
X49530000Y-107315000D02*
X48260000Y-107315000D01*
X52070000Y-107315000D02*
X50800000Y-107315000D01*
X54610000Y-104775000D02*
X53340000Y-106045000D01*
X55880000Y-104775000D02*
X54610000Y-104775000D01*
X58420000Y-104775000D02*
X57150000Y-104775000D01*
X60960000Y-104775000D02*
X62230000Y-104775000D01*
X60960000Y-115570000D02*
X62230000Y-115570000D01*
X53340000Y-115570000D02*
X52070000Y-115570000D01*
X55880000Y-115570000D02*
X54610000Y-115570000D01*
X57150000Y-115570000D02*
X55880000Y-115570000D01*
X59690000Y-115570000D02*
X58420000Y-115570000D01*
X90170000Y-113665000D02*
X88900000Y-114935000D01*
X92710000Y-111125000D02*
X91440000Y-112395000D01*
X95250000Y-108585000D02*
X93980000Y-109855000D01*
X97790000Y-106045000D02*
X96520000Y-107315000D01*
X97155000Y-102870000D02*
X97155000Y-104140000D01*
X97155000Y-104140000D02*
X97790000Y-104775000D01*
X97155000Y-99695000D02*
X97155000Y-100965000D01*
X97155000Y-97155000D02*
X97155000Y-98425000D01*
X97155000Y-94615000D02*
X97155000Y-95885000D01*
X97155000Y-92075000D02*
X97155000Y-93345000D01*
X97155000Y-89535000D02*
X97155000Y-90805000D01*
X97155000Y-86995000D02*
X97155000Y-88265000D01*
X99695000Y-86995000D02*
X98425000Y-86995000D01*
X102870000Y-86995000D02*
X100965000Y-86995000D01*
X105410000Y-85725000D02*
X104140000Y-86995000D01*
X107950000Y-83185000D02*
X106680000Y-84455000D01*
X110490000Y-80645000D02*
X109220000Y-81915000D01*
X116840000Y-78105000D02*
X116840000Y-79375000D01*
X116840000Y-75565000D02*
X116840000Y-76835000D01*
X116840000Y-73025000D02*
X116840000Y-74295000D01*
X114300000Y-73025000D02*
X115570000Y-73025000D01*
X113030000Y-74295000D02*
X113030000Y-73025000D01*
X113030000Y-76835000D02*
X113030000Y-75565000D01*
X111760000Y-79375000D02*
X113030000Y-78105000D01*
X88265000Y-95250000D02*
X89535000Y-93980000D01*
X80010000Y-95250000D02*
X81915000Y-95250000D01*
X80010000Y-92075000D02*
X80010000Y-93980000D01*
X77470000Y-93980000D02*
X77470000Y-92075000D01*
X76200000Y-97155000D02*
X77470000Y-95885000D01*
X72390000Y-97155000D02*
X74295000Y-97155000D01*
X69215000Y-95885000D02*
X70485000Y-97155000D01*
X69215000Y-92075000D02*
X69215000Y-93980000D01*
X65405000Y-92075000D02*
X67310000Y-92075000D01*
X61595000Y-92075000D02*
X63500000Y-92075000D01*
X57785000Y-92075000D02*
X59690000Y-92075000D01*
X57785000Y-88900000D02*
X57785000Y-90170000D01*
X57785000Y-85090000D02*
X57785000Y-86995000D01*
X57785000Y-81280000D02*
X57785000Y-83185000D01*
X57785000Y-77470000D02*
X57785000Y-79375000D01*
X59690000Y-75565000D02*
X57785000Y-75565000D01*
X62865000Y-75565000D02*
X60960000Y-75565000D01*
X66675000Y-75565000D02*
X64770000Y-75565000D01*
X70485000Y-75565000D02*
X68580000Y-75565000D01*
X74295000Y-75565000D02*
X72390000Y-75565000D01*
X81915000Y-75565000D02*
X80010000Y-75565000D01*
X85725000Y-75565000D02*
X83820000Y-75565000D01*
X89535000Y-75565000D02*
X87630000Y-75565000D01*
X93345000Y-75565000D02*
X91440000Y-75565000D01*
X96520000Y-74295000D02*
X95250000Y-75565000D01*
X97790000Y-71755000D02*
X97790000Y-73025000D01*
X97790000Y-69215000D02*
X97790000Y-70485000D01*
X97790000Y-66675000D02*
X97790000Y-67945000D01*
X97790000Y-64135000D02*
X97790000Y-65405000D01*
X97790000Y-61595000D02*
X97790000Y-62865000D01*
X73533000Y-93980000D02*
X76835000Y-93980000D01*
X85471000Y-93980000D02*
X89535000Y-93980000D01*
X85471000Y-93980000D02*
X81280000Y-93980000D01*
X91440000Y-94615000D02*
X92710000Y-93345000D01*
X88900000Y-97155000D02*
X90170000Y-95885000D01*
X86360000Y-98425000D02*
X87630000Y-98425000D01*
X83820000Y-98425000D02*
X85090000Y-98425000D01*
X81280000Y-98425000D02*
X82550000Y-98425000D01*
X80010000Y-98425000D02*
X81280000Y-98425000D01*
X77470000Y-99695000D02*
X78740000Y-98425000D01*
X76200000Y-100965000D02*
X77470000Y-99695000D01*
X91948000Y-75692000D02*
X92075000Y-75565000D01*
X91948000Y-78486000D02*
X91948000Y-75692000D01*
D47*
X66040000Y-118905000D02*
X61120000Y-118905000D01*
X114140000Y-55880000D02*
X111760000Y-55880000D01*
D48*
X144907000Y-58420000D02*
X146685000Y-60198000D01*
X144010000Y-58420000D02*
X144907000Y-58420000D01*
X144907000Y-58420000D02*
X146685000Y-56642000D01*
X144010000Y-36060000D02*
X144645000Y-36060000D01*
X144645000Y-36060000D02*
X146558000Y-37973000D01*
X144010000Y-36060000D02*
X144661000Y-36060000D01*
X144661000Y-36060000D02*
X146558000Y-34163000D01*
D47*
X66040000Y-102075000D02*
X66040000Y-99568000D01*
D48*
X80330000Y-115840000D02*
X80330000Y-114869000D01*
X80330000Y-114869000D02*
X80391000Y-114808000D01*
X82720000Y-112080000D02*
X81600000Y-112080000D01*
X81600000Y-112080000D02*
X81534000Y-112014000D01*
X84920000Y-113030000D02*
X86233000Y-113030000D01*
X82720000Y-112311000D02*
X83439000Y-113030000D01*
X83439000Y-113030000D02*
X84920000Y-113030000D01*
X82720000Y-112080000D02*
X82720000Y-112311000D01*
X70010000Y-79502000D02*
X71501000Y-79502000D01*
X118080000Y-68990000D02*
X118080000Y-70261000D01*
X118080000Y-70261000D02*
X117983000Y-70358000D01*
X90203000Y-78867000D02*
X91567000Y-78867000D01*
X91567000Y-78867000D02*
X91948000Y-78486000D01*
D47*
X102759000Y-49530000D02*
X101346000Y-49530000D01*
X114808000Y-27940000D02*
X116078000Y-27940000D01*
X116078000Y-27940000D02*
X116758000Y-28620000D01*
X116758000Y-28620000D02*
X118110000Y-28620000D01*
X112400000Y-27930000D02*
X114798000Y-27930000D01*
X114798000Y-27930000D02*
X114808000Y-27940000D01*
D48*
X112842001Y-63119000D02*
X111760000Y-63119000D01*
X112842001Y-65659000D02*
X111760000Y-65659000D01*
D47*
X106675000Y-52070000D02*
X106675000Y-54365000D01*
X106675000Y-54365000D02*
X106920000Y-54610000D01*
X94107000Y-80629000D02*
X94107000Y-81915000D01*
X97724000Y-82026000D02*
X97724000Y-83119000D01*
X97724000Y-83119000D02*
X97790000Y-83185000D01*
X101346000Y-82865000D02*
X101346000Y-83947000D01*
X102584000Y-78486000D02*
X103886000Y-78486000D01*
X108680000Y-78740000D02*
X109982000Y-78740000D01*
X59690000Y-106585000D02*
X59690000Y-104775000D01*
X55880000Y-106585000D02*
X55880000Y-104775000D01*
X59690000Y-114088333D02*
X59690000Y-115570000D01*
X55880000Y-114030000D02*
X55880000Y-115570000D01*
X107696000Y-65659000D02*
X108980000Y-66943000D01*
X108980000Y-66943000D02*
X108980000Y-69240000D01*
X106410000Y-65659000D02*
X107696000Y-65659000D01*
X106920000Y-63514000D02*
X106410000Y-64024000D01*
X106410000Y-64024000D02*
X106410000Y-65659000D01*
X106920000Y-60910000D02*
X106920000Y-63514000D01*
X106920000Y-54610000D02*
X106920000Y-60910000D01*
X106696000Y-49530000D02*
X106696000Y-52049000D01*
X106696000Y-52049000D02*
X106675000Y-52070000D01*
D48*
X62992000Y-83439000D02*
X63119000Y-83312000D01*
X63119000Y-83312000D02*
X64610000Y-83312000D01*
D47*
X106680000Y-78740000D02*
X106680000Y-79883000D01*
X82804000Y-84074000D02*
X82804000Y-83439000D01*
X106680000Y-79883000D02*
X101727000Y-84836000D01*
X101727000Y-84836000D02*
X83566000Y-84836000D01*
X83566000Y-84836000D02*
X82804000Y-84074000D01*
X82804000Y-83439000D02*
X83566000Y-82677000D01*
X83566000Y-82677000D02*
X84803000Y-82677000D01*
D48*
X106680000Y-75540000D02*
X110388000Y-75540000D01*
X110388000Y-75540000D02*
X110998000Y-74930000D01*
X110998000Y-74930000D02*
X110998000Y-61341000D01*
X110998000Y-61341000D02*
X111760000Y-60579000D01*
X111760000Y-60579000D02*
X112842000Y-60579000D01*
D47*
X106680000Y-75540000D02*
X106680000Y-78740000D01*
X106680000Y-69240000D02*
X106680000Y-75540000D01*
D48*
X78232000Y-78867000D02*
X79895000Y-78867000D01*
X76732000Y-77113000D02*
X75565000Y-75946000D01*
X75565000Y-75946000D02*
X75565000Y-73025000D01*
X76732000Y-77319000D02*
X76732000Y-77113000D01*
X76642000Y-80772000D02*
X76642000Y-78957000D01*
X76642000Y-78957000D02*
X76732000Y-78867000D01*
X78359000Y-80264000D02*
X77851000Y-80772000D01*
X77851000Y-80772000D02*
X76642000Y-80772000D01*
X80772000Y-80264000D02*
X78359000Y-80264000D01*
X80899000Y-80137000D02*
X80772000Y-80264000D01*
X77216000Y-76835000D02*
X76732000Y-77319000D01*
X76732000Y-77319000D02*
X76732000Y-78867000D01*
X78244000Y-76835000D02*
X77216000Y-76835000D01*
X84803000Y-81407000D02*
X83058000Y-81407000D01*
X78613000Y-83554000D02*
X78613000Y-85229000D01*
X76315000Y-82054000D02*
X76073000Y-82296000D01*
X76073000Y-82296000D02*
X76073000Y-82997000D01*
X78613000Y-82054000D02*
X76315000Y-82054000D01*
X81153000Y-81026000D02*
X78994000Y-81026000D01*
X78613000Y-81407000D02*
X78613000Y-82054000D01*
X78994000Y-81026000D02*
X78613000Y-81407000D01*
X81395000Y-77585000D02*
X80645000Y-76835000D01*
X80645000Y-76835000D02*
X79744000Y-76835000D01*
X81395000Y-78867000D02*
X81395000Y-77585000D01*
X81395000Y-78867000D02*
X83312000Y-78867000D01*
X81153000Y-81026000D02*
X81153000Y-83124000D01*
X83312000Y-78867000D02*
X81153000Y-81026000D01*
X84803000Y-78867000D02*
X83312000Y-78867000D01*
X60579000Y-76708000D02*
X60071000Y-77216000D01*
X60071000Y-77216000D02*
X60071000Y-77736000D01*
X62484000Y-76708000D02*
X60579000Y-76708000D01*
X64008000Y-78232000D02*
X62484000Y-76708000D01*
X71628000Y-82042000D02*
X70010000Y-82042000D01*
X90203000Y-80137000D02*
X91440000Y-80137000D01*
X91440000Y-80137000D02*
X91948000Y-79629000D01*
X83058000Y-80137000D02*
X84803000Y-80137000D01*
X92583000Y-78994000D02*
X91948000Y-79629000D01*
X92948000Y-78629000D02*
X92583000Y-78994000D01*
X94107000Y-78629000D02*
X92948000Y-78629000D01*
X96774000Y-80026000D02*
X96774000Y-78994000D01*
X96774000Y-78994000D02*
X96266000Y-78486000D01*
X96266000Y-78486000D02*
X94250000Y-78486000D01*
X94250000Y-78486000D02*
X94107000Y-78629000D01*
X66421000Y-85344000D02*
X65405000Y-86360000D01*
X65405000Y-86360000D02*
X64262000Y-86360000D01*
X67068000Y-85344000D02*
X66421000Y-85344000D01*
X63373000Y-80772000D02*
X63258000Y-80657000D01*
X63258000Y-80657000D02*
X62103000Y-80657000D01*
X64610000Y-80772000D02*
X63373000Y-80772000D01*
X74742000Y-82865000D02*
X72263000Y-85344000D01*
X72263000Y-85344000D02*
X68568000Y-85344000D01*
X74742000Y-80772000D02*
X74742000Y-82865000D01*
X70010000Y-80772000D02*
X72898000Y-80772000D01*
X72898000Y-80772000D02*
X74742000Y-80772000D01*
X72771000Y-81673000D02*
X72771000Y-80899000D01*
X72771000Y-80899000D02*
X72898000Y-80772000D01*
X70010000Y-83312000D02*
X72632000Y-83312000D01*
X72632000Y-83312000D02*
X72771000Y-83173000D01*
D49*
X54610000Y-38735000D02*
X55245000Y-39370000D01*
X55245000Y-39370000D02*
X56769000Y-39370000D01*
X54610000Y-31750000D02*
X54610000Y-38735000D01*
X52070000Y-46990000D02*
X52070000Y-31750000D01*
D48*
X66040000Y-110490000D02*
X71510000Y-110490000D01*
X71510000Y-110490000D02*
X72630000Y-111610000D01*
X59690000Y-110490000D02*
X66040000Y-110490000D01*
X59690000Y-110490000D02*
X55880000Y-110490000D01*
X55880000Y-110490000D02*
X52070000Y-110490000D01*
X52070000Y-110490000D02*
X49530000Y-110490000D01*
X88011000Y-96774000D02*
X92202000Y-92583000D01*
X92202000Y-92583000D02*
X92202000Y-88580000D01*
X78613000Y-96774000D02*
X88011000Y-96774000D01*
D47*
X72630000Y-111610000D02*
X72630000Y-108317000D01*
X71120000Y-104267000D02*
X78613000Y-96774000D01*
X71120000Y-106807000D02*
X71120000Y-104267000D01*
X72630000Y-108317000D02*
X71120000Y-106807000D01*
X78613000Y-96774000D02*
X78613000Y-88519000D01*
D48*
X78613000Y-88519000D02*
X78613000Y-86729000D01*
X81153000Y-85979000D02*
X78613000Y-88519000D01*
X81153000Y-85024000D02*
X81153000Y-85979000D01*
D47*
X59690000Y-108585000D02*
X59690000Y-110490000D01*
X59690000Y-110490000D02*
X59690000Y-112088333D01*
X55880000Y-112030000D02*
X55880000Y-108585000D01*
D50*
X49530000Y-110490000D02*
X52070000Y-110490000D01*
D47*
X66040000Y-107475000D02*
X66040000Y-110490000D01*
X66040000Y-110490000D02*
X66040000Y-112870000D01*
X142240000Y-94660000D02*
X142240000Y-88900000D01*
X142240000Y-88900000D02*
X138938000Y-85598000D01*
X138938000Y-85598000D02*
X118237000Y-85598000D01*
D48*
X80772000Y-109220000D02*
X84963000Y-105029000D01*
X84963000Y-105029000D02*
X93599000Y-105029000D01*
X80772000Y-113030000D02*
X80772000Y-109220000D01*
X81722000Y-113980000D02*
X80772000Y-113030000D01*
X82720000Y-113980000D02*
X81722000Y-113980000D01*
X73533000Y-88519000D02*
X76073000Y-85979000D01*
X76073000Y-85979000D02*
X76073000Y-84897000D01*
X73533000Y-88900000D02*
X73533000Y-88519000D01*
X73533000Y-91440000D02*
X73533000Y-88900000D01*
X118110000Y-59944000D02*
X118730000Y-60564000D01*
X118730000Y-60564000D02*
X118730000Y-63090000D01*
X116078000Y-59944000D02*
X118110000Y-59944000D01*
X115443000Y-60579000D02*
X116078000Y-59944000D01*
X114742000Y-60579000D02*
X115443000Y-60579000D01*
X62103000Y-89408000D02*
X59817000Y-89408000D01*
X59817000Y-89408000D02*
X59690000Y-89535000D01*
X86360000Y-111633000D02*
X85913000Y-112080000D01*
X85913000Y-112080000D02*
X84920000Y-112080000D01*
X86360000Y-111379000D02*
X86360000Y-111633000D01*
X71628000Y-102489000D02*
X70358000Y-103759000D01*
X70358000Y-103759000D02*
X70358000Y-107696000D01*
X71628000Y-101981000D02*
X71628000Y-102489000D01*
X71628000Y-101981000D02*
X71628000Y-93091000D01*
X71628000Y-93091000D02*
X69469000Y-90932000D01*
X62103000Y-89408000D02*
X62103000Y-82157000D01*
X69469000Y-90932000D02*
X63627000Y-90932000D01*
X63627000Y-90932000D02*
X62103000Y-89408000D01*
X62103000Y-82157000D02*
X60071000Y-82157000D01*
X64610000Y-82042000D02*
X63119000Y-82042000D01*
X63119000Y-82042000D02*
X63004000Y-82157000D01*
X63004000Y-82157000D02*
X62103000Y-82157000D01*
X64610000Y-79502000D02*
X61722000Y-79502000D01*
X61722000Y-79502000D02*
X61456000Y-79236000D01*
X61456000Y-79236000D02*
X60071000Y-79236000D01*
X60071000Y-79236000D02*
X60071000Y-80657000D01*
X60071000Y-79236000D02*
X60186000Y-79236000D01*
D49*
X96520000Y-38100000D02*
X96520000Y-44450000D01*
D48*
X93599000Y-85725000D02*
X101981000Y-85725000D01*
X101981000Y-85725000D02*
X107569000Y-80137000D01*
X107569000Y-80137000D02*
X109982000Y-80137000D01*
X118745000Y-70612000D02*
X118745000Y-69005000D01*
X109982000Y-80137000D02*
X111760000Y-78359000D01*
X111760000Y-78359000D02*
X111760000Y-71628000D01*
X111760000Y-71628000D02*
X112268000Y-71120000D01*
X112268000Y-71120000D02*
X118237000Y-71120000D01*
X118745000Y-69005000D02*
X118730000Y-68990000D01*
X118237000Y-71120000D02*
X118745000Y-70612000D01*
X90203000Y-82677000D02*
X92456000Y-82677000D01*
X100584000Y-79375000D02*
X101346000Y-80137000D01*
X101346000Y-80137000D02*
X101346000Y-80965000D01*
X100584000Y-78486000D02*
X100584000Y-79375000D01*
X101473000Y-76581000D02*
X100584000Y-77470000D01*
X100584000Y-77470000D02*
X100584000Y-78486000D01*
X101473000Y-75753000D02*
X101473000Y-76581000D01*
X98674000Y-79126000D02*
X99314000Y-78486000D01*
X98674000Y-80026000D02*
X98674000Y-79126000D01*
X99314000Y-78486000D02*
X100584000Y-78486000D01*
X77978000Y-119126000D02*
X79994000Y-119126000D01*
X79994000Y-119126000D02*
X81280000Y-117840000D01*
X76962000Y-118110000D02*
X77978000Y-119126000D01*
X74930000Y-118110000D02*
X76962000Y-118110000D01*
D47*
X139452000Y-114548000D02*
X142240000Y-111760000D01*
X142240000Y-111760000D02*
X142240000Y-99060000D01*
X118237000Y-114548000D02*
X139452000Y-114548000D01*
D49*
X61595000Y-39370000D02*
X62865000Y-40640000D01*
X62865000Y-40640000D02*
X62865000Y-43180000D01*
X62865000Y-43180000D02*
X64135000Y-44450000D01*
X64135000Y-44450000D02*
X66040000Y-44450000D01*
X62865000Y-33020000D02*
X64135000Y-31750000D01*
X64135000Y-31750000D02*
X66040000Y-31750000D01*
X62865000Y-38100000D02*
X62865000Y-33020000D01*
X61595000Y-39370000D02*
X62865000Y-38100000D01*
X60071000Y-39370000D02*
X61595000Y-39370000D01*
X52070000Y-52070000D02*
X64770000Y-52070000D01*
X64770000Y-52070000D02*
X66040000Y-50800000D01*
D48*
X85598000Y-117094000D02*
X84328000Y-117094000D01*
X84328000Y-117094000D02*
X83074000Y-115840000D01*
X82230000Y-115840000D02*
X83074000Y-115840000D01*
X80137000Y-109220000D02*
X75946000Y-105029000D01*
X75946000Y-105029000D02*
X73279000Y-105029000D01*
X80137000Y-113157000D02*
X80137000Y-109220000D01*
X82230000Y-115250000D02*
X80137000Y-113157000D01*
X82230000Y-115840000D02*
X82230000Y-115250000D01*
X85471000Y-87376000D02*
X87122000Y-85725000D01*
X87122000Y-85725000D02*
X92202000Y-85725000D01*
X85471000Y-88900000D02*
X85471000Y-87376000D01*
X85471000Y-91440000D02*
X85471000Y-88900000D01*
X92202000Y-85725000D02*
X92202000Y-86680000D01*
X90203000Y-81407000D02*
X91694000Y-81407000D01*
X117729000Y-60452000D02*
X118080000Y-60803000D01*
X118080000Y-60803000D02*
X118080000Y-63090000D01*
X116459000Y-60452000D02*
X117729000Y-60452000D01*
X115824000Y-61087000D02*
X116459000Y-60452000D01*
X115824000Y-62484000D02*
X115824000Y-61087000D01*
X115189000Y-63119000D02*
X115824000Y-62484000D01*
X114742001Y-63119000D02*
X115189000Y-63119000D01*
X117094000Y-61214000D02*
X117430000Y-61550000D01*
X117430000Y-61550000D02*
X117430000Y-63090000D01*
X116713000Y-61214000D02*
X117094000Y-61214000D01*
X116332000Y-61595000D02*
X116713000Y-61214000D01*
X116332000Y-64516000D02*
X116332000Y-61595000D01*
X115189000Y-65659000D02*
X116332000Y-64516000D01*
X114742001Y-65659000D02*
X115189000Y-65659000D01*
D49*
X101600000Y-27940000D02*
X100330000Y-27940000D01*
X100330000Y-27940000D02*
X96520000Y-31750000D01*
X101610000Y-27930000D02*
X101600000Y-27940000D01*
D47*
X103500000Y-27930000D02*
X101610000Y-27930000D01*
X100965000Y-33020000D02*
X103490000Y-33020000D01*
X103490000Y-33020000D02*
X103500000Y-33030000D01*
D49*
X100330000Y-33020000D02*
X100965000Y-33020000D01*
X99060000Y-34290000D02*
X100330000Y-33020000D01*
X99060000Y-48260000D02*
X99060000Y-34290000D01*
X98425000Y-48895000D02*
X99060000Y-48260000D01*
X96520000Y-50800000D02*
X98425000Y-48895000D01*
D48*
G36*
X116634000Y-32925500D02*
X116728000Y-33019500D01*
X118109500Y-33019500D01*
X118109500Y-32999500D01*
X118110500Y-32999500D01*
X118110500Y-33019500D01*
X119492000Y-33019500D01*
X119586000Y-32925500D01*
X119586000Y-32510000D01*
X124672590Y-32510000D01*
X124906974Y-32540857D01*
X125117748Y-32628163D01*
X125305300Y-32772076D01*
X125983719Y-33450495D01*
X125996012Y-33461276D01*
X126203119Y-33620194D01*
X126231378Y-33636510D01*
X126472559Y-33736411D01*
X126504079Y-33744857D01*
X126762898Y-33778931D01*
X126779214Y-33780000D01*
X129797690Y-33780000D01*
X130143910Y-33848867D01*
X130426987Y-34038013D01*
X130616133Y-34321090D01*
X130638592Y-34434000D01*
X130404500Y-34434000D01*
X130310500Y-34528000D01*
X130310500Y-36059500D01*
X130330500Y-36059500D01*
X130330500Y-36060500D01*
X130310500Y-36060500D01*
X130310500Y-37592000D01*
X130404500Y-37686000D01*
X130685000Y-37686000D01*
X130685000Y-37722690D01*
X130616133Y-38068910D01*
X130426987Y-38351987D01*
X130143910Y-38541133D01*
X129797690Y-38610000D01*
X127365000Y-38610000D01*
X127340614Y-38612402D01*
X126957931Y-38688522D01*
X126912871Y-38707186D01*
X126588447Y-38923959D01*
X126553959Y-38958447D01*
X126337186Y-39282871D01*
X126318522Y-39327931D01*
X126242402Y-39710614D01*
X126240000Y-39735000D01*
X126240000Y-54880000D01*
X126242402Y-54904386D01*
X126318522Y-55287069D01*
X126337186Y-55332129D01*
X126553959Y-55656553D01*
X126588447Y-55691041D01*
X126912871Y-55907814D01*
X126957931Y-55926478D01*
X127340614Y-56002598D01*
X127365000Y-56005000D01*
X129797690Y-56005000D01*
X130143910Y-56073867D01*
X130426987Y-56263013D01*
X130616133Y-56546090D01*
X130665445Y-56794000D01*
X130404500Y-56794000D01*
X130310500Y-56888000D01*
X130310500Y-58419500D01*
X130330500Y-58419500D01*
X130330500Y-58420500D01*
X130310500Y-58420500D01*
X130310500Y-59952000D01*
X130404500Y-60046000D01*
X130665445Y-60046000D01*
X130616133Y-60293910D01*
X130426987Y-60576987D01*
X130143910Y-60766133D01*
X129797690Y-60835000D01*
X126144214Y-60835000D01*
X126119828Y-60837402D01*
X125737144Y-60913522D01*
X125692084Y-60932186D01*
X125367661Y-61148959D01*
X125348719Y-61164505D01*
X123403213Y-63110011D01*
X123109697Y-63306133D01*
X122763476Y-63375000D01*
X121931000Y-63375000D01*
X121931000Y-63184500D01*
X121837000Y-63090500D01*
X121330500Y-63090500D01*
X121330500Y-63110500D01*
X121329500Y-63110500D01*
X121329500Y-63090500D01*
X120680500Y-63090500D01*
X120680500Y-63110500D01*
X120679500Y-63110500D01*
X120679500Y-63090500D01*
X120659500Y-63090500D01*
X120659500Y-63089500D01*
X120679500Y-63089500D01*
X120679500Y-62083000D01*
X120680500Y-62083000D01*
X120680500Y-63089500D01*
X121329500Y-63089500D01*
X121329500Y-62083000D01*
X121330500Y-62083000D01*
X121330500Y-63089500D01*
X121837000Y-63089500D01*
X121931000Y-62995500D01*
X121931000Y-62290209D01*
X121873757Y-62152013D01*
X121767987Y-62046243D01*
X121629791Y-61989000D01*
X121424500Y-61989000D01*
X121330500Y-62083000D01*
X121329500Y-62083000D01*
X121235500Y-61989000D01*
X121030209Y-61989000D01*
X121005000Y-61999442D01*
X120979791Y-61989000D01*
X120774500Y-61989000D01*
X120680500Y-62083000D01*
X120679500Y-62083000D01*
X120585500Y-61989000D01*
X120380209Y-61989000D01*
X120355000Y-61999442D01*
X120329791Y-61989000D01*
X120124500Y-61989000D01*
X120030500Y-62083000D01*
X120030500Y-62323409D01*
X120029500Y-62318094D01*
X120029500Y-62083000D01*
X119935500Y-61989000D01*
X119886000Y-61989000D01*
X119886000Y-61005524D01*
X119954867Y-60659303D01*
X120150989Y-60365787D01*
X121715495Y-58801281D01*
X121731041Y-58782339D01*
X121910005Y-58514500D01*
X126434000Y-58514500D01*
X126434000Y-59744791D01*
X126491243Y-59882987D01*
X126597013Y-59988757D01*
X126735209Y-60046000D01*
X130215500Y-60046000D01*
X130309500Y-59952000D01*
X130309500Y-58420500D01*
X126528000Y-58420500D01*
X126434000Y-58514500D01*
X121910005Y-58514500D01*
X121947814Y-58457916D01*
X121966478Y-58412856D01*
X122042598Y-58030172D01*
X122045000Y-58005786D01*
X122045000Y-57785000D01*
X122042598Y-57760614D01*
X121994262Y-57517610D01*
X121975598Y-57472550D01*
X121837947Y-57266541D01*
X121803459Y-57232053D01*
X121598658Y-57095209D01*
X126434000Y-57095209D01*
X126434000Y-58325500D01*
X126528000Y-58419500D01*
X130309500Y-58419500D01*
X130309500Y-56888000D01*
X130215500Y-56794000D01*
X126735209Y-56794000D01*
X126597013Y-56851243D01*
X126491243Y-56957013D01*
X126434000Y-57095209D01*
X121598658Y-57095209D01*
X121597450Y-57094402D01*
X121552390Y-57075738D01*
X121393459Y-57044125D01*
X121502987Y-56998757D01*
X121608757Y-56892987D01*
X121666000Y-56754791D01*
X121666000Y-55974500D01*
X121572000Y-55880500D01*
X119540500Y-55880500D01*
X119540500Y-55900500D01*
X119539500Y-55900500D01*
X119539500Y-55880500D01*
X119519500Y-55880500D01*
X119519500Y-55879500D01*
X119539500Y-55879500D01*
X119539500Y-55859500D01*
X119540500Y-55859500D01*
X119540500Y-55879500D01*
X121572000Y-55879500D01*
X121666000Y-55785500D01*
X121666000Y-55005209D01*
X121608757Y-54867013D01*
X121502987Y-54761243D01*
X121364791Y-54704000D01*
X121088159Y-54704000D01*
X121327069Y-54656478D01*
X121372129Y-54637814D01*
X121696553Y-54421041D01*
X121731041Y-54386553D01*
X121947814Y-54062129D01*
X121966478Y-54017069D01*
X122042598Y-53634386D01*
X122045000Y-53610000D01*
X122045000Y-46388214D01*
X122042598Y-46363828D01*
X121966478Y-45981144D01*
X121947814Y-45936084D01*
X121731041Y-45611661D01*
X121715495Y-45592719D01*
X120807260Y-44684484D01*
X120898757Y-44592987D01*
X120956000Y-44454791D01*
X120956000Y-43274500D01*
X120862000Y-43180500D01*
X120521000Y-43180500D01*
X120521000Y-43179500D01*
X120862000Y-43179500D01*
X120956000Y-43085500D01*
X120956000Y-41905209D01*
X120919554Y-41817222D01*
X121715495Y-41021281D01*
X121731041Y-41002339D01*
X121947814Y-40677916D01*
X121966478Y-40632856D01*
X122042598Y-40250172D01*
X122045000Y-40225786D01*
X122045000Y-37879214D01*
X122042598Y-37854828D01*
X121966478Y-37472144D01*
X121947814Y-37427084D01*
X121731041Y-37102661D01*
X121715495Y-37083719D01*
X121031281Y-36399505D01*
X121012339Y-36383959D01*
X120687916Y-36167186D01*
X120657289Y-36154500D01*
X126434000Y-36154500D01*
X126434000Y-37384791D01*
X126491243Y-37522987D01*
X126597013Y-37628757D01*
X126735209Y-37686000D01*
X130215500Y-37686000D01*
X130309500Y-37592000D01*
X130309500Y-36060500D01*
X126528000Y-36060500D01*
X126434000Y-36154500D01*
X120657289Y-36154500D01*
X120642856Y-36148522D01*
X120260172Y-36072402D01*
X120235786Y-36070000D01*
X115312310Y-36070000D01*
X114966090Y-36001133D01*
X114683013Y-35811987D01*
X114493867Y-35528910D01*
X114425000Y-35182690D01*
X114425000Y-34735209D01*
X126434000Y-34735209D01*
X126434000Y-35965500D01*
X126528000Y-36059500D01*
X130309500Y-36059500D01*
X130309500Y-34528000D01*
X130215500Y-34434000D01*
X126735209Y-34434000D01*
X126597013Y-34491243D01*
X126491243Y-34597013D01*
X126434000Y-34735209D01*
X114425000Y-34735209D01*
X114425000Y-33397310D01*
X114481254Y-33114500D01*
X116634000Y-33114500D01*
X116634000Y-34144791D01*
X116691243Y-34282987D01*
X116797013Y-34388757D01*
X116935209Y-34446000D01*
X118015500Y-34446000D01*
X118109500Y-34352000D01*
X118109500Y-33020500D01*
X118110500Y-33020500D01*
X118110500Y-34352000D01*
X118204500Y-34446000D01*
X119284791Y-34446000D01*
X119422987Y-34388757D01*
X119528757Y-34282987D01*
X119586000Y-34144791D01*
X119586000Y-33114500D01*
X119492000Y-33020500D01*
X118110500Y-33020500D01*
X118109500Y-33020500D01*
X116728000Y-33020500D01*
X116634000Y-33114500D01*
X114481254Y-33114500D01*
X114493867Y-33051090D01*
X114683013Y-32768013D01*
X114966090Y-32578867D01*
X115312310Y-32510000D01*
X116634000Y-32510000D01*
X116634000Y-32925500D01*
X116634000Y-32925500D01*
G37*
X116634000Y-32925500D02*
X116728000Y-33019500D01*
X118109500Y-33019500D01*
X118109500Y-32999500D01*
X118110500Y-32999500D01*
X118110500Y-33019500D01*
X119492000Y-33019500D01*
X119586000Y-32925500D01*
X119586000Y-32510000D01*
X124672590Y-32510000D01*
X124906974Y-32540857D01*
X125117748Y-32628163D01*
X125305300Y-32772076D01*
X125983719Y-33450495D01*
X125996012Y-33461276D01*
X126203119Y-33620194D01*
X126231378Y-33636510D01*
X126472559Y-33736411D01*
X126504079Y-33744857D01*
X126762898Y-33778931D01*
X126779214Y-33780000D01*
X129797690Y-33780000D01*
X130143910Y-33848867D01*
X130426987Y-34038013D01*
X130616133Y-34321090D01*
X130638592Y-34434000D01*
X130404500Y-34434000D01*
X130310500Y-34528000D01*
X130310500Y-36059500D01*
X130330500Y-36059500D01*
X130330500Y-36060500D01*
X130310500Y-36060500D01*
X130310500Y-37592000D01*
X130404500Y-37686000D01*
X130685000Y-37686000D01*
X130685000Y-37722690D01*
X130616133Y-38068910D01*
X130426987Y-38351987D01*
X130143910Y-38541133D01*
X129797690Y-38610000D01*
X127365000Y-38610000D01*
X127340614Y-38612402D01*
X126957931Y-38688522D01*
X126912871Y-38707186D01*
X126588447Y-38923959D01*
X126553959Y-38958447D01*
X126337186Y-39282871D01*
X126318522Y-39327931D01*
X126242402Y-39710614D01*
X126240000Y-39735000D01*
X126240000Y-54880000D01*
X126242402Y-54904386D01*
X126318522Y-55287069D01*
X126337186Y-55332129D01*
X126553959Y-55656553D01*
X126588447Y-55691041D01*
X126912871Y-55907814D01*
X126957931Y-55926478D01*
X127340614Y-56002598D01*
X127365000Y-56005000D01*
X129797690Y-56005000D01*
X130143910Y-56073867D01*
X130426987Y-56263013D01*
X130616133Y-56546090D01*
X130665445Y-56794000D01*
X130404500Y-56794000D01*
X130310500Y-56888000D01*
X130310500Y-58419500D01*
X130330500Y-58419500D01*
X130330500Y-58420500D01*
X130310500Y-58420500D01*
X130310500Y-59952000D01*
X130404500Y-60046000D01*
X130665445Y-60046000D01*
X130616133Y-60293910D01*
X130426987Y-60576987D01*
X130143910Y-60766133D01*
X129797690Y-60835000D01*
X126144214Y-60835000D01*
X126119828Y-60837402D01*
X125737144Y-60913522D01*
X125692084Y-60932186D01*
X125367661Y-61148959D01*
X125348719Y-61164505D01*
X123403213Y-63110011D01*
X123109697Y-63306133D01*
X122763476Y-63375000D01*
X121931000Y-63375000D01*
X121931000Y-63184500D01*
X121837000Y-63090500D01*
X121330500Y-63090500D01*
X121330500Y-63110500D01*
X121329500Y-63110500D01*
X121329500Y-63090500D01*
X120680500Y-63090500D01*
X120680500Y-63110500D01*
X120679500Y-63110500D01*
X120679500Y-63090500D01*
X120659500Y-63090500D01*
X120659500Y-63089500D01*
X120679500Y-63089500D01*
X120679500Y-62083000D01*
X120680500Y-62083000D01*
X120680500Y-63089500D01*
X121329500Y-63089500D01*
X121329500Y-62083000D01*
X121330500Y-62083000D01*
X121330500Y-63089500D01*
X121837000Y-63089500D01*
X121931000Y-62995500D01*
X121931000Y-62290209D01*
X121873757Y-62152013D01*
X121767987Y-62046243D01*
X121629791Y-61989000D01*
X121424500Y-61989000D01*
X121330500Y-62083000D01*
X121329500Y-62083000D01*
X121235500Y-61989000D01*
X121030209Y-61989000D01*
X121005000Y-61999442D01*
X120979791Y-61989000D01*
X120774500Y-61989000D01*
X120680500Y-62083000D01*
X120679500Y-62083000D01*
X120585500Y-61989000D01*
X120380209Y-61989000D01*
X120355000Y-61999442D01*
X120329791Y-61989000D01*
X120124500Y-61989000D01*
X120030500Y-62083000D01*
X120030500Y-62323409D01*
X120029500Y-62318094D01*
X120029500Y-62083000D01*
X119935500Y-61989000D01*
X119886000Y-61989000D01*
X119886000Y-61005524D01*
X119954867Y-60659303D01*
X120150989Y-60365787D01*
X121715495Y-58801281D01*
X121731041Y-58782339D01*
X121910005Y-58514500D01*
X126434000Y-58514500D01*
X126434000Y-59744791D01*
X126491243Y-59882987D01*
X126597013Y-59988757D01*
X126735209Y-60046000D01*
X130215500Y-60046000D01*
X130309500Y-59952000D01*
X130309500Y-58420500D01*
X126528000Y-58420500D01*
X126434000Y-58514500D01*
X121910005Y-58514500D01*
X121947814Y-58457916D01*
X121966478Y-58412856D01*
X122042598Y-58030172D01*
X122045000Y-58005786D01*
X122045000Y-57785000D01*
X122042598Y-57760614D01*
X121994262Y-57517610D01*
X121975598Y-57472550D01*
X121837947Y-57266541D01*
X121803459Y-57232053D01*
X121598658Y-57095209D01*
X126434000Y-57095209D01*
X126434000Y-58325500D01*
X126528000Y-58419500D01*
X130309500Y-58419500D01*
X130309500Y-56888000D01*
X130215500Y-56794000D01*
X126735209Y-56794000D01*
X126597013Y-56851243D01*
X126491243Y-56957013D01*
X126434000Y-57095209D01*
X121598658Y-57095209D01*
X121597450Y-57094402D01*
X121552390Y-57075738D01*
X121393459Y-57044125D01*
X121502987Y-56998757D01*
X121608757Y-56892987D01*
X121666000Y-56754791D01*
X121666000Y-55974500D01*
X121572000Y-55880500D01*
X119540500Y-55880500D01*
X119540500Y-55900500D01*
X119539500Y-55900500D01*
X119539500Y-55880500D01*
X119519500Y-55880500D01*
X119519500Y-55879500D01*
X119539500Y-55879500D01*
X119539500Y-55859500D01*
X119540500Y-55859500D01*
X119540500Y-55879500D01*
X121572000Y-55879500D01*
X121666000Y-55785500D01*
X121666000Y-55005209D01*
X121608757Y-54867013D01*
X121502987Y-54761243D01*
X121364791Y-54704000D01*
X121088159Y-54704000D01*
X121327069Y-54656478D01*
X121372129Y-54637814D01*
X121696553Y-54421041D01*
X121731041Y-54386553D01*
X121947814Y-54062129D01*
X121966478Y-54017069D01*
X122042598Y-53634386D01*
X122045000Y-53610000D01*
X122045000Y-46388214D01*
X122042598Y-46363828D01*
X121966478Y-45981144D01*
X121947814Y-45936084D01*
X121731041Y-45611661D01*
X121715495Y-45592719D01*
X120807260Y-44684484D01*
X120898757Y-44592987D01*
X120956000Y-44454791D01*
X120956000Y-43274500D01*
X120862000Y-43180500D01*
X120521000Y-43180500D01*
X120521000Y-43179500D01*
X120862000Y-43179500D01*
X120956000Y-43085500D01*
X120956000Y-41905209D01*
X120919554Y-41817222D01*
X121715495Y-41021281D01*
X121731041Y-41002339D01*
X121947814Y-40677916D01*
X121966478Y-40632856D01*
X122042598Y-40250172D01*
X122045000Y-40225786D01*
X122045000Y-37879214D01*
X122042598Y-37854828D01*
X121966478Y-37472144D01*
X121947814Y-37427084D01*
X121731041Y-37102661D01*
X121715495Y-37083719D01*
X121031281Y-36399505D01*
X121012339Y-36383959D01*
X120687916Y-36167186D01*
X120657289Y-36154500D01*
X126434000Y-36154500D01*
X126434000Y-37384791D01*
X126491243Y-37522987D01*
X126597013Y-37628757D01*
X126735209Y-37686000D01*
X130215500Y-37686000D01*
X130309500Y-37592000D01*
X130309500Y-36060500D01*
X126528000Y-36060500D01*
X126434000Y-36154500D01*
X120657289Y-36154500D01*
X120642856Y-36148522D01*
X120260172Y-36072402D01*
X120235786Y-36070000D01*
X115312310Y-36070000D01*
X114966090Y-36001133D01*
X114683013Y-35811987D01*
X114493867Y-35528910D01*
X114425000Y-35182690D01*
X114425000Y-34735209D01*
X126434000Y-34735209D01*
X126434000Y-35965500D01*
X126528000Y-36059500D01*
X130309500Y-36059500D01*
X130309500Y-34528000D01*
X130215500Y-34434000D01*
X126735209Y-34434000D01*
X126597013Y-34491243D01*
X126491243Y-34597013D01*
X126434000Y-34735209D01*
X114425000Y-34735209D01*
X114425000Y-33397310D01*
X114481254Y-33114500D01*
X116634000Y-33114500D01*
X116634000Y-34144791D01*
X116691243Y-34282987D01*
X116797013Y-34388757D01*
X116935209Y-34446000D01*
X118015500Y-34446000D01*
X118109500Y-34352000D01*
X118109500Y-33020500D01*
X118110500Y-33020500D01*
X118110500Y-34352000D01*
X118204500Y-34446000D01*
X119284791Y-34446000D01*
X119422987Y-34388757D01*
X119528757Y-34282987D01*
X119586000Y-34144791D01*
X119586000Y-33114500D01*
X119492000Y-33020500D01*
X118110500Y-33020500D01*
X118109500Y-33020500D01*
X116728000Y-33020500D01*
X116634000Y-33114500D01*
X114481254Y-33114500D01*
X114493867Y-33051090D01*
X114683013Y-32768013D01*
X114966090Y-32578867D01*
X115312310Y-32510000D01*
X116634000Y-32510000D01*
X116634000Y-32925500D01*
G36*
X78014475Y-109413867D02*
X78297552Y-109603013D01*
X78486698Y-109886090D01*
X78555565Y-110232310D01*
X78555565Y-111382690D01*
X78486698Y-111728910D01*
X78406000Y-111849683D01*
X78406000Y-111704500D01*
X78312000Y-111610500D01*
X77230500Y-111610500D01*
X77230500Y-111630500D01*
X77229500Y-111630500D01*
X77229500Y-111610500D01*
X77209500Y-111610500D01*
X77209500Y-111609500D01*
X77229500Y-111609500D01*
X77229500Y-109828000D01*
X77230500Y-109828000D01*
X77230500Y-111609500D01*
X78312000Y-111609500D01*
X78406000Y-111515500D01*
X78406000Y-110035209D01*
X78348757Y-109897013D01*
X78242987Y-109791243D01*
X78104791Y-109734000D01*
X77324500Y-109734000D01*
X77230500Y-109828000D01*
X77229500Y-109828000D01*
X77135500Y-109734000D01*
X76355209Y-109734000D01*
X76217013Y-109791243D01*
X76111243Y-109897013D01*
X76054000Y-110035209D01*
X76054000Y-110231691D01*
X75951606Y-110078447D01*
X75917118Y-110043959D01*
X75592694Y-109827186D01*
X75547634Y-109808522D01*
X75164951Y-109732402D01*
X75140565Y-109730000D01*
X74600565Y-109730000D01*
X74576179Y-109732402D01*
X74193496Y-109808522D01*
X74148436Y-109827186D01*
X73824012Y-110043959D01*
X73806000Y-110061971D01*
X73806000Y-110035209D01*
X73748757Y-109897013D01*
X73642987Y-109791243D01*
X73504791Y-109734000D01*
X72724500Y-109734000D01*
X72630500Y-109828000D01*
X72630500Y-111609500D01*
X72650500Y-111609500D01*
X72650500Y-111610500D01*
X72630500Y-111610500D01*
X72630500Y-111630500D01*
X72629500Y-111630500D01*
X72629500Y-111610500D01*
X71548000Y-111610500D01*
X71454000Y-111704500D01*
X71454000Y-112197289D01*
X71336672Y-112118893D01*
X71226648Y-111954231D01*
X71134827Y-111492610D01*
X71116163Y-111447550D01*
X70978512Y-111241541D01*
X70944024Y-111207053D01*
X70738015Y-111069402D01*
X70692955Y-111050738D01*
X70449951Y-111002402D01*
X70425565Y-111000000D01*
X51387875Y-111000000D01*
X51181334Y-110958917D01*
X51016672Y-110848893D01*
X50906648Y-110684231D01*
X50900653Y-110654092D01*
X50915095Y-110283127D01*
X51016672Y-110131107D01*
X51160193Y-110035209D01*
X71454000Y-110035209D01*
X71454000Y-111515500D01*
X71548000Y-111609500D01*
X72629500Y-111609500D01*
X72629500Y-109828000D01*
X72535500Y-109734000D01*
X71755209Y-109734000D01*
X71617013Y-109791243D01*
X71511243Y-109897013D01*
X71454000Y-110035209D01*
X51160193Y-110035209D01*
X51181334Y-110021083D01*
X51387875Y-109980000D01*
X70011351Y-109980000D01*
X70035737Y-109977598D01*
X70418421Y-109901478D01*
X70463481Y-109882814D01*
X70787904Y-109666041D01*
X70806846Y-109650495D01*
X70847352Y-109609989D01*
X71140868Y-109413867D01*
X71487089Y-109345000D01*
X77668255Y-109345000D01*
X78014475Y-109413867D01*
X78014475Y-109413867D01*
G37*
X78014475Y-109413867D02*
X78297552Y-109603013D01*
X78486698Y-109886090D01*
X78555565Y-110232310D01*
X78555565Y-111382690D01*
X78486698Y-111728910D01*
X78406000Y-111849683D01*
X78406000Y-111704500D01*
X78312000Y-111610500D01*
X77230500Y-111610500D01*
X77230500Y-111630500D01*
X77229500Y-111630500D01*
X77229500Y-111610500D01*
X77209500Y-111610500D01*
X77209500Y-111609500D01*
X77229500Y-111609500D01*
X77229500Y-109828000D01*
X77230500Y-109828000D01*
X77230500Y-111609500D01*
X78312000Y-111609500D01*
X78406000Y-111515500D01*
X78406000Y-110035209D01*
X78348757Y-109897013D01*
X78242987Y-109791243D01*
X78104791Y-109734000D01*
X77324500Y-109734000D01*
X77230500Y-109828000D01*
X77229500Y-109828000D01*
X77135500Y-109734000D01*
X76355209Y-109734000D01*
X76217013Y-109791243D01*
X76111243Y-109897013D01*
X76054000Y-110035209D01*
X76054000Y-110231691D01*
X75951606Y-110078447D01*
X75917118Y-110043959D01*
X75592694Y-109827186D01*
X75547634Y-109808522D01*
X75164951Y-109732402D01*
X75140565Y-109730000D01*
X74600565Y-109730000D01*
X74576179Y-109732402D01*
X74193496Y-109808522D01*
X74148436Y-109827186D01*
X73824012Y-110043959D01*
X73806000Y-110061971D01*
X73806000Y-110035209D01*
X73748757Y-109897013D01*
X73642987Y-109791243D01*
X73504791Y-109734000D01*
X72724500Y-109734000D01*
X72630500Y-109828000D01*
X72630500Y-111609500D01*
X72650500Y-111609500D01*
X72650500Y-111610500D01*
X72630500Y-111610500D01*
X72630500Y-111630500D01*
X72629500Y-111630500D01*
X72629500Y-111610500D01*
X71548000Y-111610500D01*
X71454000Y-111704500D01*
X71454000Y-112197289D01*
X71336672Y-112118893D01*
X71226648Y-111954231D01*
X71134827Y-111492610D01*
X71116163Y-111447550D01*
X70978512Y-111241541D01*
X70944024Y-111207053D01*
X70738015Y-111069402D01*
X70692955Y-111050738D01*
X70449951Y-111002402D01*
X70425565Y-111000000D01*
X51387875Y-111000000D01*
X51181334Y-110958917D01*
X51016672Y-110848893D01*
X50906648Y-110684231D01*
X50900653Y-110654092D01*
X50915095Y-110283127D01*
X51016672Y-110131107D01*
X51160193Y-110035209D01*
X71454000Y-110035209D01*
X71454000Y-111515500D01*
X71548000Y-111609500D01*
X72629500Y-111609500D01*
X72629500Y-109828000D01*
X72535500Y-109734000D01*
X71755209Y-109734000D01*
X71617013Y-109791243D01*
X71511243Y-109897013D01*
X71454000Y-110035209D01*
X51160193Y-110035209D01*
X51181334Y-110021083D01*
X51387875Y-109980000D01*
X70011351Y-109980000D01*
X70035737Y-109977598D01*
X70418421Y-109901478D01*
X70463481Y-109882814D01*
X70787904Y-109666041D01*
X70806846Y-109650495D01*
X70847352Y-109609989D01*
X71140868Y-109413867D01*
X71487089Y-109345000D01*
X77668255Y-109345000D01*
X78014475Y-109413867D01*
G36*
X120680500Y-68989500D02*
X121329500Y-68989500D01*
X121329500Y-68969500D01*
X121330500Y-68969500D01*
X121330500Y-68989500D01*
X121350500Y-68989500D01*
X121350500Y-68990500D01*
X121330500Y-68990500D01*
X121330500Y-69997000D01*
X121424500Y-70091000D01*
X121629791Y-70091000D01*
X121668000Y-70075173D01*
X121668000Y-70104000D01*
X121677848Y-70152632D01*
X121704612Y-70192388D01*
X123609612Y-72097388D01*
X123650963Y-72124813D01*
X123698000Y-72134000D01*
X124843000Y-72134000D01*
X124843000Y-72184000D01*
X124808500Y-72184000D01*
X124714500Y-72278000D01*
X124714500Y-73659500D01*
X124734500Y-73659500D01*
X124734500Y-73660500D01*
X124714500Y-73660500D01*
X124714500Y-75042000D01*
X124808500Y-75136000D01*
X124839224Y-75136000D01*
X122593612Y-77381612D01*
X122566187Y-77422963D01*
X122557000Y-77470000D01*
X122557000Y-82371224D01*
X119417272Y-85510952D01*
X119421199Y-85409935D01*
X119259087Y-84971078D01*
X119207337Y-84893627D01*
X119018734Y-84816973D01*
X118237707Y-85598000D01*
X118251850Y-85612143D01*
X118251143Y-85612850D01*
X118237000Y-85598707D01*
X118222858Y-85612850D01*
X118222151Y-85612143D01*
X118236293Y-85598000D01*
X118222151Y-85583858D01*
X118222858Y-85583151D01*
X118237000Y-85597293D01*
X119018027Y-84816266D01*
X118941373Y-84627663D01*
X118516424Y-84431973D01*
X118317534Y-84424242D01*
X120230388Y-82511388D01*
X120257813Y-82470037D01*
X120267000Y-82423000D01*
X120267000Y-76835000D01*
X120257152Y-76786368D01*
X120230388Y-76746612D01*
X118743000Y-75259224D01*
X118743000Y-73754500D01*
X123288000Y-73754500D01*
X123288000Y-74834791D01*
X123345243Y-74972987D01*
X123451013Y-75078757D01*
X123589209Y-75136000D01*
X124619500Y-75136000D01*
X124713500Y-75042000D01*
X124713500Y-73660500D01*
X123382000Y-73660500D01*
X123288000Y-73754500D01*
X118743000Y-73754500D01*
X118743000Y-72485209D01*
X123288000Y-72485209D01*
X123288000Y-73565500D01*
X123382000Y-73659500D01*
X124713500Y-73659500D01*
X124713500Y-72278000D01*
X124619500Y-72184000D01*
X123589209Y-72184000D01*
X123451013Y-72241243D01*
X123345243Y-72347013D01*
X123288000Y-72485209D01*
X118743000Y-72485209D01*
X118743000Y-72060776D01*
X119849388Y-70954388D01*
X119876813Y-70913037D01*
X119886000Y-70866000D01*
X119886000Y-70091000D01*
X119935500Y-70091000D01*
X120029500Y-69997000D01*
X120029500Y-69758584D01*
X120030500Y-69753646D01*
X120030500Y-69997000D01*
X120124500Y-70091000D01*
X120329791Y-70091000D01*
X120355000Y-70080558D01*
X120380209Y-70091000D01*
X120585500Y-70091000D01*
X120679500Y-69997000D01*
X120679500Y-68990500D01*
X120680500Y-68990500D01*
X120680500Y-69997000D01*
X120774500Y-70091000D01*
X120979791Y-70091000D01*
X121005000Y-70080558D01*
X121030209Y-70091000D01*
X121235500Y-70091000D01*
X121329500Y-69997000D01*
X121329500Y-68990500D01*
X120680500Y-68990500D01*
X120679500Y-68990500D01*
X120038326Y-68990500D01*
X120038326Y-68989500D01*
X120679500Y-68989500D01*
X120679500Y-68969500D01*
X120680500Y-68969500D01*
X120680500Y-68989500D01*
X120680500Y-68989500D01*
G37*
X120680500Y-68989500D02*
X121329500Y-68989500D01*
X121329500Y-68969500D01*
X121330500Y-68969500D01*
X121330500Y-68989500D01*
X121350500Y-68989500D01*
X121350500Y-68990500D01*
X121330500Y-68990500D01*
X121330500Y-69997000D01*
X121424500Y-70091000D01*
X121629791Y-70091000D01*
X121668000Y-70075173D01*
X121668000Y-70104000D01*
X121677848Y-70152632D01*
X121704612Y-70192388D01*
X123609612Y-72097388D01*
X123650963Y-72124813D01*
X123698000Y-72134000D01*
X124843000Y-72134000D01*
X124843000Y-72184000D01*
X124808500Y-72184000D01*
X124714500Y-72278000D01*
X124714500Y-73659500D01*
X124734500Y-73659500D01*
X124734500Y-73660500D01*
X124714500Y-73660500D01*
X124714500Y-75042000D01*
X124808500Y-75136000D01*
X124839224Y-75136000D01*
X122593612Y-77381612D01*
X122566187Y-77422963D01*
X122557000Y-77470000D01*
X122557000Y-82371224D01*
X119417272Y-85510952D01*
X119421199Y-85409935D01*
X119259087Y-84971078D01*
X119207337Y-84893627D01*
X119018734Y-84816973D01*
X118237707Y-85598000D01*
X118251850Y-85612143D01*
X118251143Y-85612850D01*
X118237000Y-85598707D01*
X118222858Y-85612850D01*
X118222151Y-85612143D01*
X118236293Y-85598000D01*
X118222151Y-85583858D01*
X118222858Y-85583151D01*
X118237000Y-85597293D01*
X119018027Y-84816266D01*
X118941373Y-84627663D01*
X118516424Y-84431973D01*
X118317534Y-84424242D01*
X120230388Y-82511388D01*
X120257813Y-82470037D01*
X120267000Y-82423000D01*
X120267000Y-76835000D01*
X120257152Y-76786368D01*
X120230388Y-76746612D01*
X118743000Y-75259224D01*
X118743000Y-73754500D01*
X123288000Y-73754500D01*
X123288000Y-74834791D01*
X123345243Y-74972987D01*
X123451013Y-75078757D01*
X123589209Y-75136000D01*
X124619500Y-75136000D01*
X124713500Y-75042000D01*
X124713500Y-73660500D01*
X123382000Y-73660500D01*
X123288000Y-73754500D01*
X118743000Y-73754500D01*
X118743000Y-72485209D01*
X123288000Y-72485209D01*
X123288000Y-73565500D01*
X123382000Y-73659500D01*
X124713500Y-73659500D01*
X124713500Y-72278000D01*
X124619500Y-72184000D01*
X123589209Y-72184000D01*
X123451013Y-72241243D01*
X123345243Y-72347013D01*
X123288000Y-72485209D01*
X118743000Y-72485209D01*
X118743000Y-72060776D01*
X119849388Y-70954388D01*
X119876813Y-70913037D01*
X119886000Y-70866000D01*
X119886000Y-70091000D01*
X119935500Y-70091000D01*
X120029500Y-69997000D01*
X120029500Y-69758584D01*
X120030500Y-69753646D01*
X120030500Y-69997000D01*
X120124500Y-70091000D01*
X120329791Y-70091000D01*
X120355000Y-70080558D01*
X120380209Y-70091000D01*
X120585500Y-70091000D01*
X120679500Y-69997000D01*
X120679500Y-68990500D01*
X120680500Y-68990500D01*
X120680500Y-69997000D01*
X120774500Y-70091000D01*
X120979791Y-70091000D01*
X121005000Y-70080558D01*
X121030209Y-70091000D01*
X121235500Y-70091000D01*
X121329500Y-69997000D01*
X121329500Y-68990500D01*
X120680500Y-68990500D01*
X120679500Y-68990500D01*
X120038326Y-68990500D01*
X120038326Y-68989500D01*
X120679500Y-68989500D01*
X120679500Y-68969500D01*
X120680500Y-68969500D01*
X120680500Y-68989500D01*
G36*
X118251850Y-114533858D02*
X118237707Y-114548000D01*
X118251850Y-114562143D01*
X118251143Y-114562850D01*
X118237000Y-114548707D01*
X117455973Y-115329734D01*
X117532627Y-115518337D01*
X117957576Y-115714027D01*
X118162241Y-115721983D01*
X114386213Y-119498011D01*
X114092697Y-119694133D01*
X113746476Y-119763000D01*
X78498310Y-119763000D01*
X78306000Y-119724747D01*
X78306000Y-118527253D01*
X78498310Y-118489000D01*
X80327500Y-118489000D01*
X80351886Y-118486598D01*
X80473388Y-118462430D01*
X80518449Y-118443765D01*
X80532753Y-118434207D01*
X80561243Y-118502987D01*
X80667013Y-118608757D01*
X80805209Y-118666000D01*
X81185500Y-118666000D01*
X81279500Y-118572000D01*
X81279500Y-117854000D01*
X81280500Y-117854000D01*
X81280500Y-118572000D01*
X81374500Y-118666000D01*
X81754791Y-118666000D01*
X81892987Y-118608757D01*
X81998757Y-118502987D01*
X82027247Y-118434207D01*
X82041551Y-118443765D01*
X82086612Y-118462430D01*
X82208114Y-118486598D01*
X82232500Y-118489000D01*
X112869786Y-118489000D01*
X112894172Y-118486598D01*
X113276856Y-118410478D01*
X113321916Y-118391814D01*
X113646339Y-118175041D01*
X113665281Y-118159495D01*
X117062488Y-114762288D01*
X117214913Y-115174922D01*
X117266663Y-115252373D01*
X117455266Y-115329027D01*
X118236293Y-114548000D01*
X118222151Y-114533858D01*
X118222858Y-114533151D01*
X118237000Y-114547293D01*
X118251143Y-114533151D01*
X118251850Y-114533858D01*
X118251850Y-114533858D01*
G37*
X118251850Y-114533858D02*
X118237707Y-114548000D01*
X118251850Y-114562143D01*
X118251143Y-114562850D01*
X118237000Y-114548707D01*
X117455973Y-115329734D01*
X117532627Y-115518337D01*
X117957576Y-115714027D01*
X118162241Y-115721983D01*
X114386213Y-119498011D01*
X114092697Y-119694133D01*
X113746476Y-119763000D01*
X78498310Y-119763000D01*
X78306000Y-119724747D01*
X78306000Y-118527253D01*
X78498310Y-118489000D01*
X80327500Y-118489000D01*
X80351886Y-118486598D01*
X80473388Y-118462430D01*
X80518449Y-118443765D01*
X80532753Y-118434207D01*
X80561243Y-118502987D01*
X80667013Y-118608757D01*
X80805209Y-118666000D01*
X81185500Y-118666000D01*
X81279500Y-118572000D01*
X81279500Y-117854000D01*
X81280500Y-117854000D01*
X81280500Y-118572000D01*
X81374500Y-118666000D01*
X81754791Y-118666000D01*
X81892987Y-118608757D01*
X81998757Y-118502987D01*
X82027247Y-118434207D01*
X82041551Y-118443765D01*
X82086612Y-118462430D01*
X82208114Y-118486598D01*
X82232500Y-118489000D01*
X112869786Y-118489000D01*
X112894172Y-118486598D01*
X113276856Y-118410478D01*
X113321916Y-118391814D01*
X113646339Y-118175041D01*
X113665281Y-118159495D01*
X117062488Y-114762288D01*
X117214913Y-115174922D01*
X117266663Y-115252373D01*
X117455266Y-115329027D01*
X118236293Y-114548000D01*
X118222151Y-114533858D01*
X118222858Y-114533151D01*
X118237000Y-114547293D01*
X118251143Y-114533151D01*
X118251850Y-114533858D01*
G36*
X100933910Y-53533867D02*
X101216987Y-53723013D01*
X101406133Y-54006090D01*
X101475000Y-54352310D01*
X101475000Y-60533476D01*
X101406133Y-60879697D01*
X101210011Y-61173213D01*
X98971612Y-63411612D01*
X98944848Y-63451368D01*
X98935000Y-63500000D01*
X98935000Y-75187690D01*
X98866133Y-75533910D01*
X98676987Y-75816987D01*
X98393910Y-76006133D01*
X98047690Y-76075000D01*
X80333350Y-76075000D01*
X80312588Y-76060814D01*
X80144000Y-76026674D01*
X79344000Y-76026674D01*
X79186504Y-76056309D01*
X79157457Y-76075000D01*
X78833350Y-76075000D01*
X78812588Y-76060814D01*
X78644000Y-76026674D01*
X77844000Y-76026674D01*
X77686504Y-76056309D01*
X77657457Y-76075000D01*
X76471818Y-76075000D01*
X76115000Y-75718182D01*
X76115000Y-74308326D01*
X76415000Y-74308326D01*
X76572496Y-74278691D01*
X76717146Y-74185611D01*
X76814186Y-74043588D01*
X76848326Y-73875000D01*
X76848326Y-72175000D01*
X76818691Y-72017504D01*
X76725611Y-71872854D01*
X76583588Y-71775814D01*
X76415000Y-71741674D01*
X74715000Y-71741674D01*
X74557504Y-71771309D01*
X74412854Y-71864389D01*
X74315814Y-72006412D01*
X74281674Y-72175000D01*
X74281674Y-73875000D01*
X74311309Y-74032496D01*
X74404389Y-74177146D01*
X74546412Y-74274186D01*
X74715000Y-74308326D01*
X75015000Y-74308326D01*
X75015000Y-75946000D01*
X75040660Y-76075000D01*
X58420000Y-76075000D01*
X58374568Y-76083549D01*
X58332841Y-76110399D01*
X58304848Y-76151368D01*
X58295000Y-76200000D01*
X58295000Y-91697690D01*
X58226133Y-92043910D01*
X58036987Y-92326987D01*
X57753910Y-92516133D01*
X57407690Y-92585000D01*
X46732310Y-92585000D01*
X46386090Y-92516133D01*
X46103013Y-92326987D01*
X45913867Y-92043910D01*
X45845000Y-91697690D01*
X45845000Y-67052310D01*
X45913867Y-66706090D01*
X46103013Y-66423013D01*
X46386090Y-66233867D01*
X46732310Y-66165000D01*
X91440000Y-66165000D01*
X91487037Y-66155813D01*
X91528388Y-66128388D01*
X97585495Y-60071281D01*
X97601041Y-60052339D01*
X97817814Y-59727916D01*
X97836478Y-59682856D01*
X97912598Y-59300172D01*
X97915000Y-59275786D01*
X97915000Y-54352310D01*
X97983867Y-54006090D01*
X98173013Y-53723013D01*
X98456090Y-53533867D01*
X98802310Y-53465000D01*
X100587690Y-53465000D01*
X100933910Y-53533867D01*
X100933910Y-53533867D01*
G37*
X100933910Y-53533867D02*
X101216987Y-53723013D01*
X101406133Y-54006090D01*
X101475000Y-54352310D01*
X101475000Y-60533476D01*
X101406133Y-60879697D01*
X101210011Y-61173213D01*
X98971612Y-63411612D01*
X98944848Y-63451368D01*
X98935000Y-63500000D01*
X98935000Y-75187690D01*
X98866133Y-75533910D01*
X98676987Y-75816987D01*
X98393910Y-76006133D01*
X98047690Y-76075000D01*
X80333350Y-76075000D01*
X80312588Y-76060814D01*
X80144000Y-76026674D01*
X79344000Y-76026674D01*
X79186504Y-76056309D01*
X79157457Y-76075000D01*
X78833350Y-76075000D01*
X78812588Y-76060814D01*
X78644000Y-76026674D01*
X77844000Y-76026674D01*
X77686504Y-76056309D01*
X77657457Y-76075000D01*
X76471818Y-76075000D01*
X76115000Y-75718182D01*
X76115000Y-74308326D01*
X76415000Y-74308326D01*
X76572496Y-74278691D01*
X76717146Y-74185611D01*
X76814186Y-74043588D01*
X76848326Y-73875000D01*
X76848326Y-72175000D01*
X76818691Y-72017504D01*
X76725611Y-71872854D01*
X76583588Y-71775814D01*
X76415000Y-71741674D01*
X74715000Y-71741674D01*
X74557504Y-71771309D01*
X74412854Y-71864389D01*
X74315814Y-72006412D01*
X74281674Y-72175000D01*
X74281674Y-73875000D01*
X74311309Y-74032496D01*
X74404389Y-74177146D01*
X74546412Y-74274186D01*
X74715000Y-74308326D01*
X75015000Y-74308326D01*
X75015000Y-75946000D01*
X75040660Y-76075000D01*
X58420000Y-76075000D01*
X58374568Y-76083549D01*
X58332841Y-76110399D01*
X58304848Y-76151368D01*
X58295000Y-76200000D01*
X58295000Y-91697690D01*
X58226133Y-92043910D01*
X58036987Y-92326987D01*
X57753910Y-92516133D01*
X57407690Y-92585000D01*
X46732310Y-92585000D01*
X46386090Y-92516133D01*
X46103013Y-92326987D01*
X45913867Y-92043910D01*
X45845000Y-91697690D01*
X45845000Y-67052310D01*
X45913867Y-66706090D01*
X46103013Y-66423013D01*
X46386090Y-66233867D01*
X46732310Y-66165000D01*
X91440000Y-66165000D01*
X91487037Y-66155813D01*
X91528388Y-66128388D01*
X97585495Y-60071281D01*
X97601041Y-60052339D01*
X97817814Y-59727916D01*
X97836478Y-59682856D01*
X97912598Y-59300172D01*
X97915000Y-59275786D01*
X97915000Y-54352310D01*
X97983867Y-54006090D01*
X98173013Y-53723013D01*
X98456090Y-53533867D01*
X98802310Y-53465000D01*
X100587690Y-53465000D01*
X100933910Y-53533867D01*
G36*
X70360000Y-92600818D02*
X70360000Y-96520000D01*
X70368549Y-96565432D01*
X70395399Y-96607159D01*
X70436368Y-96635152D01*
X70485000Y-96645000D01*
X70995000Y-96645000D01*
X70995000Y-101173476D01*
X70926133Y-101519697D01*
X70730011Y-101813213D01*
X69340000Y-103203224D01*
X69340000Y-100330000D01*
X69331451Y-100284568D01*
X69304601Y-100242841D01*
X69263632Y-100214848D01*
X69215000Y-100205000D01*
X67197274Y-100205000D01*
X67158757Y-100112013D01*
X67052987Y-100006243D01*
X66914791Y-99949000D01*
X66134500Y-99949000D01*
X66040500Y-100043000D01*
X66040500Y-100205000D01*
X66039500Y-100205000D01*
X66039500Y-100043000D01*
X65945500Y-99949000D01*
X65165209Y-99949000D01*
X65027013Y-100006243D01*
X64921243Y-100112013D01*
X64882726Y-100205000D01*
X62865000Y-100205000D01*
X62819568Y-100213549D01*
X62777841Y-100240399D01*
X62749848Y-100281368D01*
X62740000Y-100330000D01*
X62740000Y-106504813D01*
X62487690Y-106555000D01*
X60626500Y-106555000D01*
X60691000Y-106490500D01*
X60691000Y-106010209D01*
X60633757Y-105872013D01*
X60527987Y-105766243D01*
X60389791Y-105709000D01*
X59784500Y-105709000D01*
X59690500Y-105803000D01*
X59690500Y-106555000D01*
X59689500Y-106555000D01*
X59689500Y-105803000D01*
X59595500Y-105709000D01*
X58990209Y-105709000D01*
X58852013Y-105766243D01*
X58746243Y-105872013D01*
X58689000Y-106010209D01*
X58689000Y-106490500D01*
X58753500Y-106555000D01*
X56816500Y-106555000D01*
X56881000Y-106490500D01*
X56881000Y-106010209D01*
X56823757Y-105872013D01*
X56717987Y-105766243D01*
X56579791Y-105709000D01*
X55974500Y-105709000D01*
X55880500Y-105803000D01*
X55880500Y-106555000D01*
X55879500Y-106555000D01*
X55879500Y-105803000D01*
X55785500Y-105709000D01*
X55180209Y-105709000D01*
X55042013Y-105766243D01*
X54936243Y-105872013D01*
X54879000Y-106010209D01*
X54879000Y-106490500D01*
X54943500Y-106555000D01*
X53754214Y-106555000D01*
X53729828Y-106557402D01*
X53347144Y-106633522D01*
X53302084Y-106652186D01*
X52977661Y-106868959D01*
X52958719Y-106884505D01*
X51013213Y-108830011D01*
X50719697Y-109026133D01*
X50373476Y-109095000D01*
X49886344Y-109095000D01*
X49814693Y-109065248D01*
X49247794Y-109064754D01*
X49106739Y-109123037D01*
X48852931Y-109173522D01*
X48807871Y-109192186D01*
X48483447Y-109408959D01*
X48448959Y-109443447D01*
X48232186Y-109767871D01*
X48213522Y-109812931D01*
X48163267Y-110065583D01*
X48105248Y-110205307D01*
X48104754Y-110772206D01*
X48135000Y-110845407D01*
X48135000Y-113300000D01*
X48137402Y-113324386D01*
X48213522Y-113707069D01*
X48232186Y-113752129D01*
X48448959Y-114076553D01*
X48483447Y-114111041D01*
X48807871Y-114327814D01*
X48852931Y-114346478D01*
X48864785Y-114348836D01*
X48796530Y-114374044D01*
X48705767Y-114434690D01*
X48604781Y-114644074D01*
X49530000Y-115569293D01*
X50455219Y-114644074D01*
X50354233Y-114434690D01*
X50333194Y-114425000D01*
X54879000Y-114425000D01*
X54879000Y-114604791D01*
X54936243Y-114742987D01*
X55042013Y-114848757D01*
X55180209Y-114906000D01*
X55785500Y-114906000D01*
X55879500Y-114812000D01*
X55879500Y-114425000D01*
X55880500Y-114425000D01*
X55880500Y-114812000D01*
X55974500Y-114906000D01*
X56579791Y-114906000D01*
X56717987Y-114848757D01*
X56823757Y-114742987D01*
X56881000Y-114604791D01*
X56881000Y-114425000D01*
X58689000Y-114425000D01*
X58689000Y-114663124D01*
X58746243Y-114801320D01*
X58852013Y-114907090D01*
X58990209Y-114964333D01*
X59595500Y-114964333D01*
X59689500Y-114870333D01*
X59689500Y-114425000D01*
X59690500Y-114425000D01*
X59690500Y-114870333D01*
X59784500Y-114964333D01*
X60389791Y-114964333D01*
X60527987Y-114907090D01*
X60633757Y-114801320D01*
X60691000Y-114663124D01*
X60691000Y-114425000D01*
X62740000Y-114425000D01*
X62740000Y-119255000D01*
X46732310Y-119255000D01*
X46386090Y-119186133D01*
X46103013Y-118996987D01*
X45913867Y-118713910D01*
X45845000Y-118367690D01*
X45845000Y-116495926D01*
X48604781Y-116495926D01*
X48705767Y-116705310D01*
X49202973Y-116934310D01*
X49749965Y-116955605D01*
X50263470Y-116765956D01*
X50354233Y-116705310D01*
X50455219Y-116495926D01*
X49530000Y-115570707D01*
X48604781Y-116495926D01*
X45845000Y-116495926D01*
X45845000Y-115789965D01*
X48144395Y-115789965D01*
X48334044Y-116303470D01*
X48394690Y-116394233D01*
X48604074Y-116495219D01*
X49529293Y-115570000D01*
X49530707Y-115570000D01*
X50455926Y-116495219D01*
X50665310Y-116394233D01*
X50894310Y-115897027D01*
X50915605Y-115350035D01*
X50725956Y-114836530D01*
X50665310Y-114745767D01*
X50455926Y-114644781D01*
X49530707Y-115570000D01*
X49529293Y-115570000D01*
X48604074Y-114644781D01*
X48394690Y-114745767D01*
X48165690Y-115242973D01*
X48144395Y-115789965D01*
X45845000Y-115789965D01*
X45845000Y-92452310D01*
X45913867Y-92106090D01*
X46103013Y-91823013D01*
X46386090Y-91633867D01*
X46732310Y-91565000D01*
X69324182Y-91565000D01*
X70360000Y-92600818D01*
X70360000Y-92600818D01*
G37*
X70360000Y-92600818D02*
X70360000Y-96520000D01*
X70368549Y-96565432D01*
X70395399Y-96607159D01*
X70436368Y-96635152D01*
X70485000Y-96645000D01*
X70995000Y-96645000D01*
X70995000Y-101173476D01*
X70926133Y-101519697D01*
X70730011Y-101813213D01*
X69340000Y-103203224D01*
X69340000Y-100330000D01*
X69331451Y-100284568D01*
X69304601Y-100242841D01*
X69263632Y-100214848D01*
X69215000Y-100205000D01*
X67197274Y-100205000D01*
X67158757Y-100112013D01*
X67052987Y-100006243D01*
X66914791Y-99949000D01*
X66134500Y-99949000D01*
X66040500Y-100043000D01*
X66040500Y-100205000D01*
X66039500Y-100205000D01*
X66039500Y-100043000D01*
X65945500Y-99949000D01*
X65165209Y-99949000D01*
X65027013Y-100006243D01*
X64921243Y-100112013D01*
X64882726Y-100205000D01*
X62865000Y-100205000D01*
X62819568Y-100213549D01*
X62777841Y-100240399D01*
X62749848Y-100281368D01*
X62740000Y-100330000D01*
X62740000Y-106504813D01*
X62487690Y-106555000D01*
X60626500Y-106555000D01*
X60691000Y-106490500D01*
X60691000Y-106010209D01*
X60633757Y-105872013D01*
X60527987Y-105766243D01*
X60389791Y-105709000D01*
X59784500Y-105709000D01*
X59690500Y-105803000D01*
X59690500Y-106555000D01*
X59689500Y-106555000D01*
X59689500Y-105803000D01*
X59595500Y-105709000D01*
X58990209Y-105709000D01*
X58852013Y-105766243D01*
X58746243Y-105872013D01*
X58689000Y-106010209D01*
X58689000Y-106490500D01*
X58753500Y-106555000D01*
X56816500Y-106555000D01*
X56881000Y-106490500D01*
X56881000Y-106010209D01*
X56823757Y-105872013D01*
X56717987Y-105766243D01*
X56579791Y-105709000D01*
X55974500Y-105709000D01*
X55880500Y-105803000D01*
X55880500Y-106555000D01*
X55879500Y-106555000D01*
X55879500Y-105803000D01*
X55785500Y-105709000D01*
X55180209Y-105709000D01*
X55042013Y-105766243D01*
X54936243Y-105872013D01*
X54879000Y-106010209D01*
X54879000Y-106490500D01*
X54943500Y-106555000D01*
X53754214Y-106555000D01*
X53729828Y-106557402D01*
X53347144Y-106633522D01*
X53302084Y-106652186D01*
X52977661Y-106868959D01*
X52958719Y-106884505D01*
X51013213Y-108830011D01*
X50719697Y-109026133D01*
X50373476Y-109095000D01*
X49886344Y-109095000D01*
X49814693Y-109065248D01*
X49247794Y-109064754D01*
X49106739Y-109123037D01*
X48852931Y-109173522D01*
X48807871Y-109192186D01*
X48483447Y-109408959D01*
X48448959Y-109443447D01*
X48232186Y-109767871D01*
X48213522Y-109812931D01*
X48163267Y-110065583D01*
X48105248Y-110205307D01*
X48104754Y-110772206D01*
X48135000Y-110845407D01*
X48135000Y-113300000D01*
X48137402Y-113324386D01*
X48213522Y-113707069D01*
X48232186Y-113752129D01*
X48448959Y-114076553D01*
X48483447Y-114111041D01*
X48807871Y-114327814D01*
X48852931Y-114346478D01*
X48864785Y-114348836D01*
X48796530Y-114374044D01*
X48705767Y-114434690D01*
X48604781Y-114644074D01*
X49530000Y-115569293D01*
X50455219Y-114644074D01*
X50354233Y-114434690D01*
X50333194Y-114425000D01*
X54879000Y-114425000D01*
X54879000Y-114604791D01*
X54936243Y-114742987D01*
X55042013Y-114848757D01*
X55180209Y-114906000D01*
X55785500Y-114906000D01*
X55879500Y-114812000D01*
X55879500Y-114425000D01*
X55880500Y-114425000D01*
X55880500Y-114812000D01*
X55974500Y-114906000D01*
X56579791Y-114906000D01*
X56717987Y-114848757D01*
X56823757Y-114742987D01*
X56881000Y-114604791D01*
X56881000Y-114425000D01*
X58689000Y-114425000D01*
X58689000Y-114663124D01*
X58746243Y-114801320D01*
X58852013Y-114907090D01*
X58990209Y-114964333D01*
X59595500Y-114964333D01*
X59689500Y-114870333D01*
X59689500Y-114425000D01*
X59690500Y-114425000D01*
X59690500Y-114870333D01*
X59784500Y-114964333D01*
X60389791Y-114964333D01*
X60527987Y-114907090D01*
X60633757Y-114801320D01*
X60691000Y-114663124D01*
X60691000Y-114425000D01*
X62740000Y-114425000D01*
X62740000Y-119255000D01*
X46732310Y-119255000D01*
X46386090Y-119186133D01*
X46103013Y-118996987D01*
X45913867Y-118713910D01*
X45845000Y-118367690D01*
X45845000Y-116495926D01*
X48604781Y-116495926D01*
X48705767Y-116705310D01*
X49202973Y-116934310D01*
X49749965Y-116955605D01*
X50263470Y-116765956D01*
X50354233Y-116705310D01*
X50455219Y-116495926D01*
X49530000Y-115570707D01*
X48604781Y-116495926D01*
X45845000Y-116495926D01*
X45845000Y-115789965D01*
X48144395Y-115789965D01*
X48334044Y-116303470D01*
X48394690Y-116394233D01*
X48604074Y-116495219D01*
X49529293Y-115570000D01*
X49530707Y-115570000D01*
X50455926Y-116495219D01*
X50665310Y-116394233D01*
X50894310Y-115897027D01*
X50915605Y-115350035D01*
X50725956Y-114836530D01*
X50665310Y-114745767D01*
X50455926Y-114644781D01*
X49530707Y-115570000D01*
X49529293Y-115570000D01*
X48604074Y-114644781D01*
X48394690Y-114745767D01*
X48165690Y-115242973D01*
X48144395Y-115789965D01*
X45845000Y-115789965D01*
X45845000Y-92452310D01*
X45913867Y-92106090D01*
X46103013Y-91823013D01*
X46386090Y-91633867D01*
X46732310Y-91565000D01*
X69324182Y-91565000D01*
X70360000Y-92600818D01*
G36*
X116554910Y-71948867D02*
X116837987Y-72138013D01*
X117027133Y-72421090D01*
X117096000Y-72767310D01*
X117096000Y-85151482D01*
X117012213Y-85353263D01*
X117011788Y-85840599D01*
X117110229Y-86078844D01*
X117174522Y-86402069D01*
X117193186Y-86447129D01*
X117409959Y-86771553D01*
X117444447Y-86806041D01*
X117768871Y-87022814D01*
X117813931Y-87041478D01*
X118196614Y-87117598D01*
X118221000Y-87120000D01*
X137368476Y-87120000D01*
X137714697Y-87188867D01*
X138008213Y-87384989D01*
X140072011Y-89448787D01*
X140268133Y-89742303D01*
X140337000Y-90088524D01*
X140337000Y-110571476D01*
X140268133Y-110917697D01*
X140072011Y-111211213D01*
X138643213Y-112640011D01*
X138349697Y-112836133D01*
X138003476Y-112905000D01*
X117889214Y-112905000D01*
X117864828Y-112907402D01*
X117482144Y-112983522D01*
X117437084Y-113002186D01*
X117112661Y-113218959D01*
X117093719Y-113234505D01*
X113243213Y-117085011D01*
X112949697Y-117281133D01*
X112603476Y-117350000D01*
X86881326Y-117350000D01*
X86881326Y-116244000D01*
X86851691Y-116086504D01*
X86758611Y-115941854D01*
X86616588Y-115844814D01*
X86448000Y-115810674D01*
X85850000Y-115810674D01*
X85850000Y-115312310D01*
X85918867Y-114966090D01*
X86108013Y-114683013D01*
X86149937Y-114655000D01*
X88458000Y-114655000D01*
X88716312Y-114603619D01*
X88935297Y-114457297D01*
X96870297Y-106522297D01*
X96902149Y-106474627D01*
X96950495Y-106426281D01*
X96966041Y-106407339D01*
X97182814Y-106082916D01*
X97201478Y-106037856D01*
X97277598Y-105655172D01*
X97280000Y-105630786D01*
X97280000Y-103919214D01*
X97277598Y-103894828D01*
X97201478Y-103512144D01*
X97182814Y-103467084D01*
X96966041Y-103142661D01*
X96950495Y-103123719D01*
X96206602Y-102379826D01*
X96061094Y-102162059D01*
X96052000Y-102116340D01*
X96052000Y-87161160D01*
X96078867Y-87026090D01*
X96268013Y-86743013D01*
X96551090Y-86553867D01*
X96897310Y-86485000D01*
X103725786Y-86485000D01*
X103750172Y-86482598D01*
X104132856Y-86406478D01*
X104177916Y-86387814D01*
X104502339Y-86171041D01*
X104521281Y-86155495D01*
X109991707Y-80685069D01*
X110192476Y-80645134D01*
X110370909Y-80525909D01*
X112031818Y-78865000D01*
X112395000Y-78865000D01*
X112440432Y-78856451D01*
X112482159Y-78829601D01*
X112510152Y-78788632D01*
X112520000Y-78740000D01*
X112520000Y-71930187D01*
X112772310Y-71880000D01*
X116208690Y-71880000D01*
X116554910Y-71948867D01*
X116554910Y-71948867D01*
G37*
X116554910Y-71948867D02*
X116837987Y-72138013D01*
X117027133Y-72421090D01*
X117096000Y-72767310D01*
X117096000Y-85151482D01*
X117012213Y-85353263D01*
X117011788Y-85840599D01*
X117110229Y-86078844D01*
X117174522Y-86402069D01*
X117193186Y-86447129D01*
X117409959Y-86771553D01*
X117444447Y-86806041D01*
X117768871Y-87022814D01*
X117813931Y-87041478D01*
X118196614Y-87117598D01*
X118221000Y-87120000D01*
X137368476Y-87120000D01*
X137714697Y-87188867D01*
X138008213Y-87384989D01*
X140072011Y-89448787D01*
X140268133Y-89742303D01*
X140337000Y-90088524D01*
X140337000Y-110571476D01*
X140268133Y-110917697D01*
X140072011Y-111211213D01*
X138643213Y-112640011D01*
X138349697Y-112836133D01*
X138003476Y-112905000D01*
X117889214Y-112905000D01*
X117864828Y-112907402D01*
X117482144Y-112983522D01*
X117437084Y-113002186D01*
X117112661Y-113218959D01*
X117093719Y-113234505D01*
X113243213Y-117085011D01*
X112949697Y-117281133D01*
X112603476Y-117350000D01*
X86881326Y-117350000D01*
X86881326Y-116244000D01*
X86851691Y-116086504D01*
X86758611Y-115941854D01*
X86616588Y-115844814D01*
X86448000Y-115810674D01*
X85850000Y-115810674D01*
X85850000Y-115312310D01*
X85918867Y-114966090D01*
X86108013Y-114683013D01*
X86149937Y-114655000D01*
X88458000Y-114655000D01*
X88716312Y-114603619D01*
X88935297Y-114457297D01*
X96870297Y-106522297D01*
X96902149Y-106474627D01*
X96950495Y-106426281D01*
X96966041Y-106407339D01*
X97182814Y-106082916D01*
X97201478Y-106037856D01*
X97277598Y-105655172D01*
X97280000Y-105630786D01*
X97280000Y-103919214D01*
X97277598Y-103894828D01*
X97201478Y-103512144D01*
X97182814Y-103467084D01*
X96966041Y-103142661D01*
X96950495Y-103123719D01*
X96206602Y-102379826D01*
X96061094Y-102162059D01*
X96052000Y-102116340D01*
X96052000Y-87161160D01*
X96078867Y-87026090D01*
X96268013Y-86743013D01*
X96551090Y-86553867D01*
X96897310Y-86485000D01*
X103725786Y-86485000D01*
X103750172Y-86482598D01*
X104132856Y-86406478D01*
X104177916Y-86387814D01*
X104502339Y-86171041D01*
X104521281Y-86155495D01*
X109991707Y-80685069D01*
X110192476Y-80645134D01*
X110370909Y-80525909D01*
X112031818Y-78865000D01*
X112395000Y-78865000D01*
X112440432Y-78856451D01*
X112482159Y-78829601D01*
X112510152Y-78788632D01*
X112520000Y-78740000D01*
X112520000Y-71930187D01*
X112772310Y-71880000D01*
X116208690Y-71880000D01*
X116554910Y-71948867D01*
G36*
X70360000Y-96520000D02*
X70368549Y-96565432D01*
X70395399Y-96607159D01*
X70436368Y-96635152D01*
X70485000Y-96645000D01*
X71078000Y-96645000D01*
X71078000Y-101475000D01*
X70430928Y-101475000D01*
X70119554Y-101419749D01*
X69855854Y-101266359D01*
X69661029Y-101031609D01*
X69558863Y-100744158D01*
X69561941Y-100427932D01*
X70360000Y-96171616D01*
X70360000Y-96520000D01*
X70360000Y-96520000D01*
G37*
X70360000Y-96520000D02*
X70368549Y-96565432D01*
X70395399Y-96607159D01*
X70436368Y-96635152D01*
X70485000Y-96645000D01*
X71078000Y-96645000D01*
X71078000Y-101475000D01*
X70430928Y-101475000D01*
X70119554Y-101419749D01*
X69855854Y-101266359D01*
X69661029Y-101031609D01*
X69558863Y-100744158D01*
X69561941Y-100427932D01*
X70360000Y-96171616D01*
X70360000Y-96520000D01*
G36*
X94702000Y-101475000D02*
X74866594Y-101475000D01*
X79017594Y-97324000D01*
X88011000Y-97324000D01*
X88221476Y-97282134D01*
X88399909Y-97162909D01*
X92590909Y-92971909D01*
X92710134Y-92793476D01*
X92752000Y-92583000D01*
X92752000Y-91565000D01*
X94702000Y-91565000D01*
X94702000Y-101475000D01*
X94702000Y-101475000D01*
G37*
X94702000Y-101475000D02*
X74866594Y-101475000D01*
X79017594Y-97324000D01*
X88011000Y-97324000D01*
X88221476Y-97282134D01*
X88399909Y-97162909D01*
X92590909Y-92971909D01*
X92710134Y-92793476D01*
X92752000Y-92583000D01*
X92752000Y-91565000D01*
X94702000Y-91565000D01*
X94702000Y-101475000D01*
G36*
X77938000Y-96494406D02*
X72957406Y-101475000D01*
X72178000Y-101475000D01*
X72178000Y-96645000D01*
X76200000Y-96645000D01*
X76245432Y-96636451D01*
X76287159Y-96609601D01*
X76315152Y-96568632D01*
X76325000Y-96520000D01*
X76325000Y-91565000D01*
X77938000Y-91565000D01*
X77938000Y-96494406D01*
X77938000Y-96494406D01*
G37*
X77938000Y-96494406D02*
X72957406Y-101475000D01*
X72178000Y-101475000D01*
X72178000Y-96645000D01*
X76200000Y-96645000D01*
X76245432Y-96636451D01*
X76287159Y-96609601D01*
X76315152Y-96568632D01*
X76325000Y-96520000D01*
X76325000Y-91565000D01*
X77938000Y-91565000D01*
X77938000Y-96494406D01*
G36*
X83060000Y-95885000D02*
X83068549Y-95930432D01*
X83095399Y-95972159D01*
X83136368Y-96000152D01*
X83185000Y-96010000D01*
X87630000Y-96010000D01*
X87675432Y-96001451D01*
X87717159Y-95974601D01*
X87745152Y-95933632D01*
X87755000Y-95885000D01*
X87755000Y-91565000D01*
X91652000Y-91565000D01*
X91652000Y-92355182D01*
X87783182Y-96224000D01*
X79288000Y-96224000D01*
X79288000Y-91565000D01*
X83060000Y-91565000D01*
X83060000Y-95885000D01*
X83060000Y-95885000D01*
G37*
X83060000Y-95885000D02*
X83068549Y-95930432D01*
X83095399Y-95972159D01*
X83136368Y-96000152D01*
X83185000Y-96010000D01*
X87630000Y-96010000D01*
X87675432Y-96001451D01*
X87717159Y-95974601D01*
X87745152Y-95933632D01*
X87755000Y-95885000D01*
X87755000Y-91565000D01*
X91652000Y-91565000D01*
X91652000Y-92355182D01*
X87783182Y-96224000D01*
X79288000Y-96224000D01*
X79288000Y-91565000D01*
X83060000Y-91565000D01*
X83060000Y-95885000D01*
M02*
