M48
INCH,TZ
T1C0.016
T2C0.030
T3C0.031
T4C0.039
T5C0.043
T6C0.047
T7C0.055
%
G90
G05
T1
X19000Y-42250
X19500Y-42250
X20000Y-42250
X20500Y-42250
X20500Y-45500
X21000Y-41750
X21000Y-45500
X21500Y-41250
X21500Y-45500
X22000Y-41250
X22000Y-45500
X22500Y-41250
X22500Y-45500
X22750Y-29750
X22750Y-30500
X22750Y-31250
X22750Y-32000
X22750Y-32750
X22750Y-33500
X22750Y-34250
X22750Y-35000
X22750Y-35500
X22750Y-36250
X23000Y-41250
X23000Y-45500
X23500Y-29750
X23500Y-36250
X23500Y-41250
X23500Y-45500
X24000Y-29750
X24000Y-41250
X24000Y-45500
X24250Y-36250
X24500Y-39250
X24500Y-39750
X24500Y-40250
X24500Y-40750
X24500Y-41250
X24500Y-45500
X24500Y-45950
X24500Y-46450
X24750Y-29750
X24800Y-32850
X24905Y-31755
X25000Y-36250
X25000Y-39250
X25200Y-30800
X25500Y-29750
X25500Y-39250
X25750Y-36250
X26000Y-39200
X26250Y-29750
X26500Y-36250
X27000Y-29750
X27250Y-36250
X27250Y-37000
X27250Y-37750
X27700Y-42400
X27750Y-29750
X27750Y-38250
X28150Y-31300
X28200Y-32300
X28500Y-29750
X28500Y-38250
X29000Y-46000
X29000Y-47000
X29250Y-29750
X29250Y-38250
X30000Y-38250
X30000Y-39750
X30000Y-46000
X30000Y-47000
X30200Y-29750
X30500Y-36250
X30500Y-37000
X30500Y-37750
X30500Y-39250
X30750Y-29750
X31000Y-38750
X31500Y-29750
X31500Y-36250
X31500Y-37000
X31500Y-37500
X31500Y-38750
X31650Y-45200
X31850Y-31550
X32000Y-38750
X32100Y-44100
X32250Y-29750
X32250Y-37500
X32500Y-38750
X32600Y-33100
X32700Y-31550
X32700Y-32050
X33000Y-29750
X33000Y-38750
X33500Y-38750
X33750Y-29750
X33950Y-44500
X34000Y-38750
X34000Y-43850
X34250Y-45250
X34500Y-29750
X34500Y-38750
X34750Y-37500
X35000Y-38250
X35000Y-45250
X35250Y-29750
X35250Y-37000
X35500Y-37750
X35500Y-44750
X35750Y-36500
X36000Y-29750
X36000Y-37250
X36000Y-44250
X36100Y-32050
X36200Y-30900
X36200Y-31350
X36300Y-33750
X36400Y-32550
X36500Y-36750
X36500Y-43750
X36750Y-29750
X36750Y-36250
X36850Y-33750
X37000Y-43250
X37050Y-32250
X37500Y-29750
X37500Y-42750
X37550Y-31200
X37550Y-33000
X37550Y-34150
X37900Y-30550
X38000Y-29250
X38000Y-42250
X38250Y-34250
X38250Y-34750
X38250Y-35250
X38250Y-35750
X38250Y-36250
X38250Y-36750
X38250Y-37250
X38250Y-37750
X38250Y-38250
X38250Y-38750
X38250Y-39250
X38250Y-39750
X38250Y-40500
X38500Y-23750
X38500Y-24250
X38500Y-24750
X38500Y-25250
X38500Y-25750
X38500Y-26250
X38500Y-26750
X38500Y-27250
X38500Y-27750
X38500Y-28250
X38500Y-28750
X38500Y-32750
X38500Y-41250
X38500Y-41750
X38750Y-21250
X38750Y-21750
X38750Y-22250
X38750Y-22750
X38750Y-23250
X38750Y-34250
X39250Y-34250
X39750Y-34250
X39900Y-19500
X39900Y-33050
X40500Y-34250
X40900Y-30900
X41000Y-34250
X41500Y-33750
X42000Y-33250
X42500Y-32750
X43000Y-32250
X43300Y-31000
X43500Y-31750
X44000Y-22000
X44000Y-24850
X44000Y-25850
X44000Y-31250
X44500Y-28750
X44500Y-29250
X44500Y-29750
X44500Y-30250
X44500Y-30750
X45000Y-28750
X45200Y-11000
X45500Y-28750
X46000Y-28750
X46000Y-29250
X46000Y-29750
X46000Y-30250
X46000Y-30750
X46000Y-31250
X46450Y-27700
X50800Y-27950
X50850Y-30100
X52050Y-29000
X57700Y-13450
X57700Y-14950
X57750Y-22300
X57750Y-23700
T2
X26000Y-12500
X26000Y-15000
X26000Y-17500
X26000Y-20000
X38000Y-12500
X38000Y-15000
X38000Y-17500
X38000Y-20000
T3
X25300Y-34000
X25300Y-34984
X28950Y-35000
X28950Y-36000
X28950Y-37000
X33650Y-35000
X33650Y-36000
X33650Y-37000
T4
X19500Y-43500
X19500Y-45500
X20500Y-18500
X20500Y-20500
X23500Y-35250
X29750Y-28750
X33700Y-46100
X46550Y-33700
X46550Y-45098
T5
X20500Y-10500
X20500Y-12500
X21500Y-12500
X22500Y-10500
X22500Y-12500
T6
X45031Y-17000
X47000Y-17000
T7
X28850Y-41350
X36850Y-41350
T0
M30
