G04 #@! TF.FileFunction,Legend,Top*
%FSLAX46Y46*%
G04 Gerber Fmt 4.6, Leading zero omitted, Abs format (unit mm)*
G04 Created by KiCad (PCBNEW 4.0.7) date 04/11/19 03:01:07*
%MOMM*%
%LPD*%
G01*
G04 APERTURE LIST*
%ADD10C,0.100000*%
%ADD11C,0.200000*%
%ADD12C,0.150000*%
%ADD13C,0.120000*%
%ADD14C,0.300000*%
%ADD15C,0.250000*%
G04 APERTURE END LIST*
D10*
D11*
X137487000Y-100073000D02*
G75*
G03X137487000Y-100073000I-19250000J0D01*
G01*
D12*
X127660000Y-26560000D02*
X146660000Y-26560000D01*
X127660000Y-26560000D02*
X127660000Y-45560000D01*
X146660000Y-26560000D02*
X146660000Y-45560000D01*
X127660000Y-45560000D02*
X146660000Y-45560000D01*
X127660000Y-48920000D02*
X146660000Y-48920000D01*
X127660000Y-48920000D02*
X127660000Y-67920000D01*
X146660000Y-48920000D02*
X146660000Y-67920000D01*
X127660000Y-67920000D02*
X146660000Y-67920000D01*
D13*
X123220000Y-43180000D02*
G75*
G03X123220000Y-43180000I-6340000J0D01*
G01*
X116880000Y-49480000D02*
X116880000Y-36880000D01*
X116840000Y-49480000D02*
X116840000Y-36880000D01*
X116800000Y-49480000D02*
X116800000Y-36880000D01*
X116760000Y-49479000D02*
X116760000Y-36881000D01*
X116720000Y-49478000D02*
X116720000Y-36882000D01*
X116680000Y-49477000D02*
X116680000Y-36883000D01*
X116640000Y-49476000D02*
X116640000Y-36884000D01*
X116600000Y-49474000D02*
X116600000Y-36886000D01*
X116560000Y-49472000D02*
X116560000Y-36888000D01*
X116520000Y-49470000D02*
X116520000Y-36890000D01*
X116480000Y-49468000D02*
X116480000Y-36892000D01*
X116440000Y-49465000D02*
X116440000Y-36895000D01*
X116400000Y-49462000D02*
X116400000Y-36898000D01*
X116360000Y-49459000D02*
X116360000Y-36901000D01*
X116320000Y-49456000D02*
X116320000Y-36904000D01*
X116280000Y-49452000D02*
X116280000Y-36908000D01*
X116240000Y-49448000D02*
X116240000Y-36912000D01*
X116200000Y-49444000D02*
X116200000Y-36916000D01*
X116159000Y-49439000D02*
X116159000Y-36921000D01*
X116119000Y-49435000D02*
X116119000Y-36925000D01*
X116079000Y-49430000D02*
X116079000Y-36930000D01*
X116039000Y-49425000D02*
X116039000Y-36935000D01*
X115999000Y-49419000D02*
X115999000Y-36941000D01*
X115959000Y-49413000D02*
X115959000Y-36947000D01*
X115919000Y-49407000D02*
X115919000Y-36953000D01*
X115879000Y-49401000D02*
X115879000Y-36959000D01*
X115839000Y-49395000D02*
X115839000Y-36965000D01*
X115799000Y-49388000D02*
X115799000Y-36972000D01*
X115759000Y-49381000D02*
X115759000Y-44560000D01*
X115759000Y-41800000D02*
X115759000Y-36979000D01*
X115719000Y-49373000D02*
X115719000Y-44560000D01*
X115719000Y-41800000D02*
X115719000Y-36987000D01*
X115679000Y-49366000D02*
X115679000Y-44560000D01*
X115679000Y-41800000D02*
X115679000Y-36994000D01*
X115639000Y-49358000D02*
X115639000Y-44560000D01*
X115639000Y-41800000D02*
X115639000Y-37002000D01*
X115599000Y-49350000D02*
X115599000Y-44560000D01*
X115599000Y-41800000D02*
X115599000Y-37010000D01*
X115559000Y-49342000D02*
X115559000Y-44560000D01*
X115559000Y-41800000D02*
X115559000Y-37018000D01*
X115519000Y-49333000D02*
X115519000Y-44560000D01*
X115519000Y-41800000D02*
X115519000Y-37027000D01*
X115479000Y-49324000D02*
X115479000Y-44560000D01*
X115479000Y-41800000D02*
X115479000Y-37036000D01*
X115439000Y-49315000D02*
X115439000Y-44560000D01*
X115439000Y-41800000D02*
X115439000Y-37045000D01*
X115399000Y-49305000D02*
X115399000Y-44560000D01*
X115399000Y-41800000D02*
X115399000Y-37055000D01*
X115359000Y-49296000D02*
X115359000Y-44560000D01*
X115359000Y-41800000D02*
X115359000Y-37064000D01*
X115319000Y-49286000D02*
X115319000Y-44560000D01*
X115319000Y-41800000D02*
X115319000Y-37074000D01*
X115279000Y-49275000D02*
X115279000Y-44560000D01*
X115279000Y-41800000D02*
X115279000Y-37085000D01*
X115239000Y-49265000D02*
X115239000Y-44560000D01*
X115239000Y-41800000D02*
X115239000Y-37095000D01*
X115199000Y-49254000D02*
X115199000Y-44560000D01*
X115199000Y-41800000D02*
X115199000Y-37106000D01*
X115159000Y-49243000D02*
X115159000Y-44560000D01*
X115159000Y-41800000D02*
X115159000Y-37117000D01*
X115119000Y-49231000D02*
X115119000Y-44560000D01*
X115119000Y-41800000D02*
X115119000Y-37129000D01*
X115079000Y-49220000D02*
X115079000Y-44560000D01*
X115079000Y-41800000D02*
X115079000Y-37140000D01*
X115039000Y-49208000D02*
X115039000Y-44560000D01*
X115039000Y-41800000D02*
X115039000Y-37152000D01*
X114999000Y-49195000D02*
X114999000Y-44560000D01*
X114999000Y-41800000D02*
X114999000Y-37165000D01*
X114959000Y-49183000D02*
X114959000Y-44560000D01*
X114959000Y-41800000D02*
X114959000Y-37177000D01*
X114919000Y-49170000D02*
X114919000Y-44560000D01*
X114919000Y-41800000D02*
X114919000Y-37190000D01*
X114879000Y-49157000D02*
X114879000Y-44560000D01*
X114879000Y-41800000D02*
X114879000Y-37203000D01*
X114839000Y-49143000D02*
X114839000Y-44560000D01*
X114839000Y-41800000D02*
X114839000Y-37217000D01*
X114799000Y-49130000D02*
X114799000Y-44560000D01*
X114799000Y-41800000D02*
X114799000Y-37230000D01*
X114759000Y-49116000D02*
X114759000Y-44560000D01*
X114759000Y-41800000D02*
X114759000Y-37244000D01*
X114719000Y-49101000D02*
X114719000Y-44560000D01*
X114719000Y-41800000D02*
X114719000Y-37259000D01*
X114679000Y-49087000D02*
X114679000Y-44560000D01*
X114679000Y-41800000D02*
X114679000Y-37273000D01*
X114639000Y-49072000D02*
X114639000Y-44560000D01*
X114639000Y-41800000D02*
X114639000Y-37288000D01*
X114599000Y-49056000D02*
X114599000Y-44560000D01*
X114599000Y-41800000D02*
X114599000Y-37304000D01*
X114559000Y-49041000D02*
X114559000Y-44560000D01*
X114559000Y-41800000D02*
X114559000Y-37319000D01*
X114519000Y-49025000D02*
X114519000Y-44560000D01*
X114519000Y-41800000D02*
X114519000Y-37335000D01*
X114479000Y-49009000D02*
X114479000Y-44560000D01*
X114479000Y-41800000D02*
X114479000Y-37351000D01*
X114439000Y-48992000D02*
X114439000Y-44560000D01*
X114439000Y-41800000D02*
X114439000Y-37368000D01*
X114399000Y-48975000D02*
X114399000Y-44560000D01*
X114399000Y-41800000D02*
X114399000Y-37385000D01*
X114359000Y-48958000D02*
X114359000Y-44560000D01*
X114359000Y-41800000D02*
X114359000Y-37402000D01*
X114319000Y-48941000D02*
X114319000Y-44560000D01*
X114319000Y-41800000D02*
X114319000Y-37419000D01*
X114279000Y-48923000D02*
X114279000Y-44560000D01*
X114279000Y-41800000D02*
X114279000Y-37437000D01*
X114239000Y-48905000D02*
X114239000Y-44560000D01*
X114239000Y-41800000D02*
X114239000Y-37455000D01*
X114199000Y-48886000D02*
X114199000Y-44560000D01*
X114199000Y-41800000D02*
X114199000Y-37474000D01*
X114159000Y-48867000D02*
X114159000Y-44560000D01*
X114159000Y-41800000D02*
X114159000Y-37493000D01*
X114119000Y-48848000D02*
X114119000Y-44560000D01*
X114119000Y-41800000D02*
X114119000Y-37512000D01*
X114079000Y-48829000D02*
X114079000Y-44560000D01*
X114079000Y-41800000D02*
X114079000Y-37531000D01*
X114039000Y-48809000D02*
X114039000Y-44560000D01*
X114039000Y-41800000D02*
X114039000Y-37551000D01*
X113999000Y-48789000D02*
X113999000Y-44560000D01*
X113999000Y-41800000D02*
X113999000Y-37571000D01*
X113959000Y-48768000D02*
X113959000Y-44560000D01*
X113959000Y-41800000D02*
X113959000Y-37592000D01*
X113919000Y-48747000D02*
X113919000Y-44560000D01*
X113919000Y-41800000D02*
X113919000Y-37613000D01*
X113879000Y-48726000D02*
X113879000Y-44560000D01*
X113879000Y-41800000D02*
X113879000Y-37634000D01*
X113839000Y-48704000D02*
X113839000Y-44560000D01*
X113839000Y-41800000D02*
X113839000Y-37656000D01*
X113799000Y-48682000D02*
X113799000Y-44560000D01*
X113799000Y-41800000D02*
X113799000Y-37678000D01*
X113759000Y-48660000D02*
X113759000Y-44560000D01*
X113759000Y-41800000D02*
X113759000Y-37700000D01*
X113719000Y-48637000D02*
X113719000Y-44560000D01*
X113719000Y-41800000D02*
X113719000Y-37723000D01*
X113679000Y-48614000D02*
X113679000Y-44560000D01*
X113679000Y-41800000D02*
X113679000Y-37746000D01*
X113639000Y-48590000D02*
X113639000Y-44560000D01*
X113639000Y-41800000D02*
X113639000Y-37770000D01*
X113599000Y-48566000D02*
X113599000Y-44560000D01*
X113599000Y-41800000D02*
X113599000Y-37794000D01*
X113559000Y-48542000D02*
X113559000Y-44560000D01*
X113559000Y-41800000D02*
X113559000Y-37818000D01*
X113519000Y-48517000D02*
X113519000Y-44560000D01*
X113519000Y-41800000D02*
X113519000Y-37843000D01*
X113479000Y-48492000D02*
X113479000Y-44560000D01*
X113479000Y-41800000D02*
X113479000Y-37868000D01*
X113439000Y-48466000D02*
X113439000Y-44560000D01*
X113439000Y-41800000D02*
X113439000Y-37894000D01*
X113399000Y-48440000D02*
X113399000Y-44560000D01*
X113399000Y-41800000D02*
X113399000Y-37920000D01*
X113359000Y-48414000D02*
X113359000Y-44560000D01*
X113359000Y-41800000D02*
X113359000Y-37946000D01*
X113319000Y-48387000D02*
X113319000Y-44560000D01*
X113319000Y-41800000D02*
X113319000Y-37973000D01*
X113279000Y-48359000D02*
X113279000Y-44560000D01*
X113279000Y-41800000D02*
X113279000Y-38001000D01*
X113239000Y-48331000D02*
X113239000Y-44560000D01*
X113239000Y-41800000D02*
X113239000Y-38029000D01*
X113199000Y-48303000D02*
X113199000Y-44560000D01*
X113199000Y-41800000D02*
X113199000Y-38057000D01*
X113159000Y-48274000D02*
X113159000Y-44560000D01*
X113159000Y-41800000D02*
X113159000Y-38086000D01*
X113119000Y-48245000D02*
X113119000Y-44560000D01*
X113119000Y-41800000D02*
X113119000Y-38115000D01*
X113079000Y-48215000D02*
X113079000Y-44560000D01*
X113079000Y-41800000D02*
X113079000Y-38145000D01*
X113039000Y-48185000D02*
X113039000Y-44560000D01*
X113039000Y-41800000D02*
X113039000Y-38175000D01*
X112999000Y-48155000D02*
X112999000Y-38205000D01*
X112959000Y-48123000D02*
X112959000Y-38237000D01*
X112919000Y-48092000D02*
X112919000Y-38268000D01*
X112879000Y-48059000D02*
X112879000Y-38301000D01*
X112839000Y-48027000D02*
X112839000Y-38333000D01*
X112799000Y-47993000D02*
X112799000Y-38367000D01*
X112759000Y-47959000D02*
X112759000Y-38401000D01*
X112719000Y-47925000D02*
X112719000Y-38435000D01*
X112679000Y-47890000D02*
X112679000Y-38470000D01*
X112639000Y-47854000D02*
X112639000Y-38506000D01*
X112599000Y-47818000D02*
X112599000Y-38542000D01*
X112559000Y-47781000D02*
X112559000Y-38579000D01*
X112519000Y-47743000D02*
X112519000Y-38617000D01*
X112479000Y-47705000D02*
X112479000Y-38655000D01*
X112439000Y-47666000D02*
X112439000Y-38694000D01*
X112399000Y-47627000D02*
X112399000Y-38733000D01*
X112359000Y-47586000D02*
X112359000Y-38774000D01*
X112319000Y-47545000D02*
X112319000Y-38815000D01*
X112279000Y-47503000D02*
X112279000Y-38857000D01*
X112239000Y-47461000D02*
X112239000Y-38899000D01*
X112199000Y-47418000D02*
X112199000Y-38942000D01*
X112159000Y-47373000D02*
X112159000Y-38987000D01*
X112119000Y-47328000D02*
X112119000Y-39032000D01*
X112079000Y-47282000D02*
X112079000Y-39078000D01*
X112039000Y-47236000D02*
X112039000Y-39124000D01*
X111999000Y-47188000D02*
X111999000Y-39172000D01*
X111959000Y-47139000D02*
X111959000Y-39221000D01*
X111919000Y-47089000D02*
X111919000Y-39271000D01*
X111879000Y-47039000D02*
X111879000Y-39321000D01*
X111839000Y-46987000D02*
X111839000Y-39373000D01*
X111799000Y-46934000D02*
X111799000Y-39426000D01*
X111759000Y-46880000D02*
X111759000Y-39480000D01*
X111719000Y-46824000D02*
X111719000Y-39536000D01*
X111679000Y-46768000D02*
X111679000Y-39592000D01*
X111639000Y-46710000D02*
X111639000Y-39650000D01*
X111599000Y-46650000D02*
X111599000Y-39710000D01*
X111559000Y-46589000D02*
X111559000Y-39771000D01*
X111519000Y-46527000D02*
X111519000Y-39833000D01*
X111479000Y-46462000D02*
X111479000Y-39898000D01*
X111439000Y-46397000D02*
X111439000Y-39963000D01*
X111399000Y-46329000D02*
X111399000Y-40031000D01*
X111359000Y-46259000D02*
X111359000Y-40101000D01*
X111319000Y-46187000D02*
X111319000Y-40173000D01*
X111279000Y-46113000D02*
X111279000Y-40247000D01*
X111239000Y-46036000D02*
X111239000Y-40324000D01*
X111199000Y-45957000D02*
X111199000Y-40403000D01*
X111159000Y-45875000D02*
X111159000Y-40485000D01*
X111119000Y-45790000D02*
X111119000Y-40570000D01*
X111079000Y-45701000D02*
X111079000Y-40659000D01*
X111039000Y-45608000D02*
X111039000Y-40752000D01*
X110999000Y-45511000D02*
X110999000Y-40849000D01*
X110959000Y-45410000D02*
X110959000Y-40950000D01*
X110919000Y-45302000D02*
X110919000Y-41058000D01*
X110879000Y-45189000D02*
X110879000Y-41171000D01*
X110839000Y-45068000D02*
X110839000Y-41292000D01*
X110799000Y-44937000D02*
X110799000Y-41423000D01*
X110759000Y-44796000D02*
X110759000Y-41564000D01*
X110719000Y-44640000D02*
X110719000Y-41720000D01*
X110679000Y-44465000D02*
X110679000Y-41895000D01*
X110639000Y-44262000D02*
X110639000Y-42098000D01*
X110599000Y-44011000D02*
X110599000Y-42349000D01*
X110559000Y-43644000D02*
X110559000Y-42716000D01*
X122580000Y-43180000D02*
X120780000Y-43180000D01*
X121680000Y-44080000D02*
X121680000Y-42280000D01*
X120140000Y-53340000D02*
X120140000Y-54760000D01*
X113540000Y-52580000D02*
X113540000Y-54760000D01*
X113540000Y-59180000D02*
X113540000Y-57000000D01*
X120140000Y-58420000D02*
X120140000Y-57000000D01*
X113540000Y-52580000D02*
X119380000Y-52580000D01*
X119380000Y-52580000D02*
X120140000Y-53340000D01*
X120140000Y-58420000D02*
X119380000Y-59180000D01*
X119380000Y-59180000D02*
X113540000Y-59180000D01*
X105910000Y-64809000D02*
X104910000Y-64809000D01*
X104910000Y-66509000D02*
X105910000Y-66509000D01*
X108180000Y-77890000D02*
X107180000Y-77890000D01*
X107180000Y-79590000D02*
X108180000Y-79590000D01*
X63500000Y-112905000D02*
X64920000Y-112905000D01*
X62740000Y-119505000D02*
X64920000Y-119505000D01*
X69340000Y-119505000D02*
X67160000Y-119505000D01*
X68580000Y-112905000D02*
X67160000Y-112905000D01*
X62740000Y-119505000D02*
X62740000Y-113665000D01*
X62740000Y-113665000D02*
X63500000Y-112905000D01*
X68580000Y-112905000D02*
X69340000Y-113665000D01*
X69340000Y-113665000D02*
X69340000Y-119505000D01*
X68580000Y-108075000D02*
X67160000Y-108075000D01*
X69340000Y-101475000D02*
X67160000Y-101475000D01*
X62740000Y-101475000D02*
X64920000Y-101475000D01*
X63500000Y-108075000D02*
X64920000Y-108075000D01*
X69340000Y-101475000D02*
X69340000Y-107315000D01*
X69340000Y-107315000D02*
X68580000Y-108075000D01*
X63500000Y-108075000D02*
X62740000Y-107315000D01*
X62740000Y-107315000D02*
X62740000Y-101475000D01*
X60540000Y-113588333D02*
X60540000Y-112588333D01*
X58840000Y-112588333D02*
X58840000Y-113588333D01*
X58840000Y-107085000D02*
X58840000Y-108085000D01*
X60540000Y-108085000D02*
X60540000Y-107085000D01*
X56730000Y-113530000D02*
X56730000Y-112530000D01*
X55030000Y-112530000D02*
X55030000Y-113530000D01*
X55030000Y-107085000D02*
X55030000Y-108085000D01*
X56730000Y-108085000D02*
X56730000Y-107085000D01*
X77832000Y-79467000D02*
X77132000Y-79467000D01*
X77132000Y-78267000D02*
X77832000Y-78267000D01*
X78013000Y-83154000D02*
X78013000Y-82454000D01*
X79213000Y-82454000D02*
X79213000Y-83154000D01*
X79344000Y-77435000D02*
X78644000Y-77435000D01*
X78644000Y-76235000D02*
X79344000Y-76235000D01*
X107196000Y-50380000D02*
X108196000Y-50380000D01*
X108196000Y-48680000D02*
X107196000Y-48680000D01*
X105375000Y-51470000D02*
X106075000Y-51470000D01*
X106075000Y-52670000D02*
X105375000Y-52670000D01*
X103259000Y-50380000D02*
X104259000Y-50380000D01*
X104259000Y-48680000D02*
X103259000Y-48680000D01*
X102084000Y-77636000D02*
X101084000Y-77636000D01*
X101084000Y-79336000D02*
X102084000Y-79336000D01*
X94957000Y-80129000D02*
X94957000Y-79129000D01*
X93257000Y-79129000D02*
X93257000Y-80129000D01*
X65572000Y-85050000D02*
X65572000Y-90170000D01*
X62952000Y-85050000D02*
X62952000Y-90170000D01*
X65572000Y-85050000D02*
X62952000Y-85050000D01*
X65572000Y-90170000D02*
X62952000Y-90170000D01*
X73371000Y-82073000D02*
X73371000Y-82773000D01*
X72171000Y-82773000D02*
X72171000Y-82073000D01*
D12*
X120015000Y-34925000D02*
X120015000Y-26670000D01*
X116205000Y-34925000D02*
X116205000Y-26670000D01*
X140335000Y-92755000D02*
X140335000Y-101010000D01*
X144145000Y-92755000D02*
X144145000Y-101010000D01*
X122809000Y-75565000D02*
X131064000Y-75565000D01*
X122809000Y-71755000D02*
X131064000Y-71755000D01*
X55880000Y-38227000D02*
X55626000Y-38227000D01*
X55626000Y-38227000D02*
X55626000Y-40513000D01*
X55626000Y-40513000D02*
X55880000Y-40513000D01*
X55880000Y-38227000D02*
X55880000Y-40513000D01*
X55880000Y-40513000D02*
X57531000Y-40513000D01*
X59309000Y-38227000D02*
X60960000Y-38227000D01*
X60960000Y-38227000D02*
X60960000Y-40513000D01*
X60960000Y-40513000D02*
X59309000Y-40513000D01*
X57531000Y-38227000D02*
X55880000Y-38227000D01*
X47070000Y-51030000D02*
X49070000Y-51030000D01*
X49070000Y-51030000D02*
X49070000Y-53030000D01*
X49070000Y-53030000D02*
X47070000Y-53030000D01*
X47070000Y-46030000D02*
X49070000Y-46030000D01*
X49070000Y-46030000D02*
X49070000Y-48030000D01*
X49070000Y-48030000D02*
X47070000Y-48030000D01*
X47070000Y-44530000D02*
X56070000Y-44530000D01*
X56070000Y-44530000D02*
X56070000Y-54530000D01*
X56070000Y-54530000D02*
X47070000Y-54530000D01*
X47070000Y-44530000D02*
X47070000Y-54530000D01*
D13*
X79700000Y-117600000D02*
X80630000Y-117600000D01*
X82860000Y-117600000D02*
X81930000Y-117600000D01*
X82860000Y-117600000D02*
X82860000Y-115440000D01*
X79700000Y-117600000D02*
X79700000Y-116140000D01*
X76229000Y-102119000D02*
X76229000Y-107939000D01*
X76229000Y-107939000D02*
X90649000Y-107939000D01*
X90649000Y-107939000D02*
X90649000Y-102119000D01*
X90649000Y-102119000D02*
X76229000Y-102119000D01*
X74859000Y-105029000D02*
X76229000Y-105029000D01*
X92019000Y-105029000D02*
X90649000Y-105029000D01*
X80273000Y-84674000D02*
X80273000Y-83474000D01*
X82033000Y-83474000D02*
X82033000Y-84674000D01*
X75193000Y-84547000D02*
X75193000Y-83347000D01*
X76953000Y-83347000D02*
X76953000Y-84547000D01*
X81145000Y-79547000D02*
X80145000Y-79547000D01*
X80145000Y-78187000D02*
X81145000Y-78187000D01*
X77933000Y-86479000D02*
X77933000Y-85479000D01*
X79293000Y-85479000D02*
X79293000Y-86479000D01*
X100593000Y-75403000D02*
X100593000Y-74203000D01*
X102353000Y-74203000D02*
X102353000Y-75403000D01*
X100466000Y-82515000D02*
X100466000Y-81315000D01*
X102226000Y-81315000D02*
X102226000Y-82515000D01*
X93082000Y-87030000D02*
X93082000Y-88230000D01*
X91322000Y-88230000D02*
X91322000Y-87030000D01*
X114392000Y-61459000D02*
X113192000Y-61459000D01*
X113192000Y-59699000D02*
X114392000Y-59699000D01*
X76292000Y-81652000D02*
X75092000Y-81652000D01*
X75092000Y-79892000D02*
X76292000Y-79892000D01*
X68318000Y-86024000D02*
X67318000Y-86024000D01*
X67318000Y-84664000D02*
X68318000Y-84664000D01*
X61423000Y-81907000D02*
X61423000Y-80907000D01*
X62783000Y-80907000D02*
X62783000Y-81907000D01*
X114392001Y-63999000D02*
X113192001Y-63999000D01*
X113192001Y-62239000D02*
X114392001Y-62239000D01*
X114392001Y-66539000D02*
X113192001Y-66539000D01*
X113192001Y-64779000D02*
X114392001Y-64779000D01*
X59391000Y-78986000D02*
X59391000Y-77986000D01*
X60751000Y-77986000D02*
X60751000Y-78986000D01*
X59391000Y-81907000D02*
X59391000Y-80907000D01*
X60751000Y-80907000D02*
X60751000Y-81907000D01*
X85466704Y-87985309D02*
G75*
G02X87776000Y-87945000I1154296J40309D01*
G01*
X87775052Y-87924879D02*
G75*
G02X86381000Y-89074000I-1154052J-20121D01*
G01*
X83001000Y-96265000D02*
X83001000Y-86615000D01*
X87952000Y-96265000D02*
X87952000Y-86615000D01*
X83001000Y-96265000D02*
X87952000Y-96265000D01*
X83001000Y-86615000D02*
X87952000Y-86615000D01*
X85887000Y-87069000D02*
X87497000Y-88680000D01*
X85746000Y-87209000D02*
X87356000Y-88821000D01*
X73528704Y-87985309D02*
G75*
G02X75838000Y-87945000I1154296J40309D01*
G01*
X75837052Y-87924879D02*
G75*
G02X74443000Y-89074000I-1154052J-20121D01*
G01*
X71063000Y-96265000D02*
X71063000Y-86615000D01*
X76014000Y-96265000D02*
X76014000Y-86615000D01*
X71063000Y-96265000D02*
X76014000Y-96265000D01*
X71063000Y-86615000D02*
X76014000Y-86615000D01*
X73949000Y-87069000D02*
X75559000Y-88680000D01*
X73808000Y-87209000D02*
X75418000Y-88821000D01*
D12*
X50545000Y-22810000D02*
X50545000Y-33170000D01*
X50610000Y-33170000D02*
X58610000Y-33170000D01*
X58675000Y-33170000D02*
X58675000Y-22810000D01*
X50545000Y-22810000D02*
X58675000Y-22810000D01*
X102450000Y-25980000D02*
X113450000Y-25980000D01*
X102450000Y-34980000D02*
X113450000Y-34980000D01*
X113450000Y-33980000D02*
X113450000Y-34980000D01*
D13*
X103510000Y-59670000D02*
X104770000Y-59670000D01*
X110330000Y-59670000D02*
X109070000Y-59670000D01*
X103510000Y-55910000D02*
X103510000Y-59670000D01*
X110330000Y-53660000D02*
X110330000Y-59670000D01*
X84720000Y-111420000D02*
X82920000Y-111420000D01*
X82920000Y-114640000D02*
X85370000Y-114640000D01*
X96144000Y-81786000D02*
X97074000Y-81786000D01*
X99304000Y-81786000D02*
X98374000Y-81786000D01*
X99304000Y-81786000D02*
X99304000Y-79626000D01*
X96144000Y-81786000D02*
X96144000Y-80326000D01*
D12*
X89578000Y-83347000D02*
X89578000Y-83297000D01*
X85428000Y-83347000D02*
X85428000Y-83202000D01*
X85428000Y-78197000D02*
X85428000Y-78342000D01*
X89578000Y-78197000D02*
X89578000Y-78342000D01*
X89578000Y-83347000D02*
X85428000Y-83347000D01*
X89578000Y-78197000D02*
X85428000Y-78197000D01*
X89578000Y-83297000D02*
X90978000Y-83297000D01*
X116755000Y-68365000D02*
X116880000Y-68365000D01*
X116755000Y-63715000D02*
X116980000Y-63715000D01*
X122005000Y-63715000D02*
X121780000Y-63715000D01*
X122005000Y-68365000D02*
X121780000Y-68365000D01*
X116755000Y-68365000D02*
X116755000Y-63715000D01*
X122005000Y-68365000D02*
X122005000Y-63715000D01*
X116880000Y-68365000D02*
X116880000Y-69715000D01*
D13*
X103270000Y-74300000D02*
X104530000Y-74300000D01*
X110090000Y-74300000D02*
X108830000Y-74300000D01*
X103270000Y-70540000D02*
X103270000Y-74300000D01*
X110090000Y-68290000D02*
X110090000Y-74300000D01*
D12*
X69385000Y-83982000D02*
X69385000Y-83932000D01*
X65235000Y-83982000D02*
X65235000Y-83837000D01*
X65235000Y-78832000D02*
X65235000Y-78977000D01*
X69385000Y-78832000D02*
X69385000Y-78977000D01*
X69385000Y-83982000D02*
X65235000Y-83982000D01*
X69385000Y-78832000D02*
X65235000Y-78832000D01*
X69385000Y-83932000D02*
X70785000Y-83932000D01*
X44530000Y-114530000D02*
X46530000Y-114530000D01*
X46530000Y-114530000D02*
X46530000Y-116530000D01*
X46530000Y-116530000D02*
X44530000Y-116530000D01*
X44530000Y-109530000D02*
X46530000Y-109530000D01*
X46530000Y-109530000D02*
X46530000Y-111530000D01*
X46530000Y-111530000D02*
X44530000Y-111530000D01*
X44530000Y-108030000D02*
X53530000Y-108030000D01*
X53530000Y-108030000D02*
X53530000Y-118030000D01*
X53530000Y-118030000D02*
X44530000Y-118030000D01*
X44530000Y-108030000D02*
X44530000Y-118030000D01*
D13*
X74235000Y-74355000D02*
X76895000Y-74355000D01*
X74235000Y-74295000D02*
X74235000Y-74355000D01*
X76895000Y-74295000D02*
X76895000Y-74355000D01*
X74235000Y-74295000D02*
X76895000Y-74295000D01*
X74235000Y-73025000D02*
X74235000Y-71695000D01*
X74235000Y-71695000D02*
X75565000Y-71695000D01*
X58360000Y-90865000D02*
X61020000Y-90865000D01*
X58360000Y-90805000D02*
X58360000Y-90865000D01*
X61020000Y-90805000D02*
X61020000Y-90865000D01*
X58360000Y-90805000D02*
X61020000Y-90805000D01*
X58360000Y-89535000D02*
X58360000Y-88205000D01*
X58360000Y-88205000D02*
X59690000Y-88205000D01*
X84268000Y-118424000D02*
X86928000Y-118424000D01*
X84268000Y-118364000D02*
X84268000Y-118424000D01*
X86928000Y-118364000D02*
X86928000Y-118424000D01*
X84268000Y-118364000D02*
X86928000Y-118364000D01*
X84268000Y-117094000D02*
X84268000Y-115764000D01*
X84268000Y-115764000D02*
X85598000Y-115764000D01*
D14*
X97290000Y-114387143D02*
X95861429Y-114387143D01*
X95861429Y-111387143D01*
X99861428Y-114387143D02*
X98147143Y-114387143D01*
X99004285Y-114387143D02*
X99004285Y-111387143D01*
X98718571Y-111815714D01*
X98432857Y-112101429D01*
X98147143Y-112244286D01*
D12*
X136040953Y-42877143D02*
X135993334Y-42924762D01*
X135850477Y-42972381D01*
X135755239Y-42972381D01*
X135612381Y-42924762D01*
X135517143Y-42829524D01*
X135469524Y-42734286D01*
X135421905Y-42543810D01*
X135421905Y-42400952D01*
X135469524Y-42210476D01*
X135517143Y-42115238D01*
X135612381Y-42020000D01*
X135755239Y-41972381D01*
X135850477Y-41972381D01*
X135993334Y-42020000D01*
X136040953Y-42067619D01*
X136993334Y-42972381D02*
X136421905Y-42972381D01*
X136707619Y-42972381D02*
X136707619Y-41972381D01*
X136612381Y-42115238D01*
X136517143Y-42210476D01*
X136421905Y-42258095D01*
X137612381Y-41972381D02*
X137707620Y-41972381D01*
X137802858Y-42020000D01*
X137850477Y-42067619D01*
X137898096Y-42162857D01*
X137945715Y-42353333D01*
X137945715Y-42591429D01*
X137898096Y-42781905D01*
X137850477Y-42877143D01*
X137802858Y-42924762D01*
X137707620Y-42972381D01*
X137612381Y-42972381D01*
X137517143Y-42924762D01*
X137469524Y-42877143D01*
X137421905Y-42781905D01*
X137374286Y-42591429D01*
X137374286Y-42353333D01*
X137421905Y-42162857D01*
X137469524Y-42067619D01*
X137517143Y-42020000D01*
X137612381Y-41972381D01*
X138898096Y-42972381D02*
X138326667Y-42972381D01*
X138612381Y-42972381D02*
X138612381Y-41972381D01*
X138517143Y-42115238D01*
X138421905Y-42210476D01*
X138326667Y-42258095D01*
X136040953Y-65237143D02*
X135993334Y-65284762D01*
X135850477Y-65332381D01*
X135755239Y-65332381D01*
X135612381Y-65284762D01*
X135517143Y-65189524D01*
X135469524Y-65094286D01*
X135421905Y-64903810D01*
X135421905Y-64760952D01*
X135469524Y-64570476D01*
X135517143Y-64475238D01*
X135612381Y-64380000D01*
X135755239Y-64332381D01*
X135850477Y-64332381D01*
X135993334Y-64380000D01*
X136040953Y-64427619D01*
X136993334Y-65332381D02*
X136421905Y-65332381D01*
X136707619Y-65332381D02*
X136707619Y-64332381D01*
X136612381Y-64475238D01*
X136517143Y-64570476D01*
X136421905Y-64618095D01*
X137612381Y-64332381D02*
X137707620Y-64332381D01*
X137802858Y-64380000D01*
X137850477Y-64427619D01*
X137898096Y-64522857D01*
X137945715Y-64713333D01*
X137945715Y-64951429D01*
X137898096Y-65141905D01*
X137850477Y-65237143D01*
X137802858Y-65284762D01*
X137707620Y-65332381D01*
X137612381Y-65332381D01*
X137517143Y-65284762D01*
X137469524Y-65237143D01*
X137421905Y-65141905D01*
X137374286Y-64951429D01*
X137374286Y-64713333D01*
X137421905Y-64522857D01*
X137469524Y-64427619D01*
X137517143Y-64380000D01*
X137612381Y-64332381D01*
X138326667Y-64427619D02*
X138374286Y-64380000D01*
X138469524Y-64332381D01*
X138707620Y-64332381D01*
X138802858Y-64380000D01*
X138850477Y-64427619D01*
X138898096Y-64522857D01*
X138898096Y-64618095D01*
X138850477Y-64760952D01*
X138279048Y-65332381D01*
X138898096Y-65332381D01*
X119530953Y-51097143D02*
X119483334Y-51144762D01*
X119340477Y-51192381D01*
X119245239Y-51192381D01*
X119102381Y-51144762D01*
X119007143Y-51049524D01*
X118959524Y-50954286D01*
X118911905Y-50763810D01*
X118911905Y-50620952D01*
X118959524Y-50430476D01*
X119007143Y-50335238D01*
X119102381Y-50240000D01*
X119245239Y-50192381D01*
X119340477Y-50192381D01*
X119483334Y-50240000D01*
X119530953Y-50287619D01*
X120483334Y-51192381D02*
X119911905Y-51192381D01*
X120197619Y-51192381D02*
X120197619Y-50192381D01*
X120102381Y-50335238D01*
X120007143Y-50430476D01*
X119911905Y-50478095D01*
X121102381Y-50192381D02*
X121197620Y-50192381D01*
X121292858Y-50240000D01*
X121340477Y-50287619D01*
X121388096Y-50382857D01*
X121435715Y-50573333D01*
X121435715Y-50811429D01*
X121388096Y-51001905D01*
X121340477Y-51097143D01*
X121292858Y-51144762D01*
X121197620Y-51192381D01*
X121102381Y-51192381D01*
X121007143Y-51144762D01*
X120959524Y-51097143D01*
X120911905Y-51001905D01*
X120864286Y-50811429D01*
X120864286Y-50573333D01*
X120911905Y-50382857D01*
X120959524Y-50287619D01*
X121007143Y-50240000D01*
X121102381Y-50192381D01*
X121769048Y-50192381D02*
X122388096Y-50192381D01*
X122054762Y-50573333D01*
X122197620Y-50573333D01*
X122292858Y-50620952D01*
X122340477Y-50668571D01*
X122388096Y-50763810D01*
X122388096Y-51001905D01*
X122340477Y-51097143D01*
X122292858Y-51144762D01*
X122197620Y-51192381D01*
X121911905Y-51192381D01*
X121816667Y-51144762D01*
X121769048Y-51097143D01*
X111910953Y-51807143D02*
X111863334Y-51854762D01*
X111720477Y-51902381D01*
X111625239Y-51902381D01*
X111482381Y-51854762D01*
X111387143Y-51759524D01*
X111339524Y-51664286D01*
X111291905Y-51473810D01*
X111291905Y-51330952D01*
X111339524Y-51140476D01*
X111387143Y-51045238D01*
X111482381Y-50950000D01*
X111625239Y-50902381D01*
X111720477Y-50902381D01*
X111863334Y-50950000D01*
X111910953Y-50997619D01*
X112863334Y-51902381D02*
X112291905Y-51902381D01*
X112577619Y-51902381D02*
X112577619Y-50902381D01*
X112482381Y-51045238D01*
X112387143Y-51140476D01*
X112291905Y-51188095D01*
X113482381Y-50902381D02*
X113577620Y-50902381D01*
X113672858Y-50950000D01*
X113720477Y-50997619D01*
X113768096Y-51092857D01*
X113815715Y-51283333D01*
X113815715Y-51521429D01*
X113768096Y-51711905D01*
X113720477Y-51807143D01*
X113672858Y-51854762D01*
X113577620Y-51902381D01*
X113482381Y-51902381D01*
X113387143Y-51854762D01*
X113339524Y-51807143D01*
X113291905Y-51711905D01*
X113244286Y-51521429D01*
X113244286Y-51283333D01*
X113291905Y-51092857D01*
X113339524Y-50997619D01*
X113387143Y-50950000D01*
X113482381Y-50902381D01*
X114672858Y-51235714D02*
X114672858Y-51902381D01*
X114434762Y-50854762D02*
X114196667Y-51569048D01*
X114815715Y-51569048D01*
X120739048Y-53041429D02*
X121500953Y-53041429D01*
X121120001Y-53422381D02*
X121120001Y-52660476D01*
X104290953Y-64111143D02*
X104243334Y-64158762D01*
X104100477Y-64206381D01*
X104005239Y-64206381D01*
X103862381Y-64158762D01*
X103767143Y-64063524D01*
X103719524Y-63968286D01*
X103671905Y-63777810D01*
X103671905Y-63634952D01*
X103719524Y-63444476D01*
X103767143Y-63349238D01*
X103862381Y-63254000D01*
X104005239Y-63206381D01*
X104100477Y-63206381D01*
X104243334Y-63254000D01*
X104290953Y-63301619D01*
X105243334Y-64206381D02*
X104671905Y-64206381D01*
X104957619Y-64206381D02*
X104957619Y-63206381D01*
X104862381Y-63349238D01*
X104767143Y-63444476D01*
X104671905Y-63492095D01*
X105862381Y-63206381D02*
X105957620Y-63206381D01*
X106052858Y-63254000D01*
X106100477Y-63301619D01*
X106148096Y-63396857D01*
X106195715Y-63587333D01*
X106195715Y-63825429D01*
X106148096Y-64015905D01*
X106100477Y-64111143D01*
X106052858Y-64158762D01*
X105957620Y-64206381D01*
X105862381Y-64206381D01*
X105767143Y-64158762D01*
X105719524Y-64111143D01*
X105671905Y-64015905D01*
X105624286Y-63825429D01*
X105624286Y-63587333D01*
X105671905Y-63396857D01*
X105719524Y-63301619D01*
X105767143Y-63254000D01*
X105862381Y-63206381D01*
X107100477Y-63206381D02*
X106624286Y-63206381D01*
X106576667Y-63682571D01*
X106624286Y-63634952D01*
X106719524Y-63587333D01*
X106957620Y-63587333D01*
X107052858Y-63634952D01*
X107100477Y-63682571D01*
X107148096Y-63777810D01*
X107148096Y-64015905D01*
X107100477Y-64111143D01*
X107052858Y-64158762D01*
X106957620Y-64206381D01*
X106719524Y-64206381D01*
X106624286Y-64158762D01*
X106576667Y-64111143D01*
X110513953Y-77954143D02*
X110466334Y-78001762D01*
X110323477Y-78049381D01*
X110228239Y-78049381D01*
X110085381Y-78001762D01*
X109990143Y-77906524D01*
X109942524Y-77811286D01*
X109894905Y-77620810D01*
X109894905Y-77477952D01*
X109942524Y-77287476D01*
X109990143Y-77192238D01*
X110085381Y-77097000D01*
X110228239Y-77049381D01*
X110323477Y-77049381D01*
X110466334Y-77097000D01*
X110513953Y-77144619D01*
X111466334Y-78049381D02*
X110894905Y-78049381D01*
X111180619Y-78049381D02*
X111180619Y-77049381D01*
X111085381Y-77192238D01*
X110990143Y-77287476D01*
X110894905Y-77335095D01*
X112085381Y-77049381D02*
X112180620Y-77049381D01*
X112275858Y-77097000D01*
X112323477Y-77144619D01*
X112371096Y-77239857D01*
X112418715Y-77430333D01*
X112418715Y-77668429D01*
X112371096Y-77858905D01*
X112323477Y-77954143D01*
X112275858Y-78001762D01*
X112180620Y-78049381D01*
X112085381Y-78049381D01*
X111990143Y-78001762D01*
X111942524Y-77954143D01*
X111894905Y-77858905D01*
X111847286Y-77668429D01*
X111847286Y-77430333D01*
X111894905Y-77239857D01*
X111942524Y-77144619D01*
X111990143Y-77097000D01*
X112085381Y-77049381D01*
X113275858Y-77049381D02*
X113085381Y-77049381D01*
X112990143Y-77097000D01*
X112942524Y-77144619D01*
X112847286Y-77287476D01*
X112799667Y-77477952D01*
X112799667Y-77858905D01*
X112847286Y-77954143D01*
X112894905Y-78001762D01*
X112990143Y-78049381D01*
X113180620Y-78049381D01*
X113275858Y-78001762D01*
X113323477Y-77954143D01*
X113371096Y-77858905D01*
X113371096Y-77620810D01*
X113323477Y-77525571D01*
X113275858Y-77477952D01*
X113180620Y-77430333D01*
X112990143Y-77430333D01*
X112894905Y-77477952D01*
X112847286Y-77525571D01*
X112799667Y-77620810D01*
X70842143Y-115419047D02*
X70889762Y-115466666D01*
X70937381Y-115609523D01*
X70937381Y-115704761D01*
X70889762Y-115847619D01*
X70794524Y-115942857D01*
X70699286Y-115990476D01*
X70508810Y-116038095D01*
X70365952Y-116038095D01*
X70175476Y-115990476D01*
X70080238Y-115942857D01*
X69985000Y-115847619D01*
X69937381Y-115704761D01*
X69937381Y-115609523D01*
X69985000Y-115466666D01*
X70032619Y-115419047D01*
X70032619Y-115038095D02*
X69985000Y-114990476D01*
X69937381Y-114895238D01*
X69937381Y-114657142D01*
X69985000Y-114561904D01*
X70032619Y-114514285D01*
X70127857Y-114466666D01*
X70223095Y-114466666D01*
X70365952Y-114514285D01*
X70937381Y-115085714D01*
X70937381Y-114466666D01*
X69937381Y-113847619D02*
X69937381Y-113752380D01*
X69985000Y-113657142D01*
X70032619Y-113609523D01*
X70127857Y-113561904D01*
X70318333Y-113514285D01*
X70556429Y-113514285D01*
X70746905Y-113561904D01*
X70842143Y-113609523D01*
X70889762Y-113657142D01*
X70937381Y-113752380D01*
X70937381Y-113847619D01*
X70889762Y-113942857D01*
X70842143Y-113990476D01*
X70746905Y-114038095D01*
X70556429Y-114085714D01*
X70318333Y-114085714D01*
X70127857Y-114038095D01*
X70032619Y-113990476D01*
X69985000Y-113942857D01*
X69937381Y-113847619D01*
X70937381Y-112561904D02*
X70937381Y-113133333D01*
X70937381Y-112847619D02*
X69937381Y-112847619D01*
X70080238Y-112942857D01*
X70175476Y-113038095D01*
X70223095Y-113133333D01*
X63201429Y-112305952D02*
X63201429Y-111544047D01*
X63582381Y-111924999D02*
X62820476Y-111924999D01*
X70827143Y-105894047D02*
X70874762Y-105941666D01*
X70922381Y-106084523D01*
X70922381Y-106179761D01*
X70874762Y-106322619D01*
X70779524Y-106417857D01*
X70684286Y-106465476D01*
X70493810Y-106513095D01*
X70350952Y-106513095D01*
X70160476Y-106465476D01*
X70065238Y-106417857D01*
X69970000Y-106322619D01*
X69922381Y-106179761D01*
X69922381Y-106084523D01*
X69970000Y-105941666D01*
X70017619Y-105894047D01*
X70017619Y-105513095D02*
X69970000Y-105465476D01*
X69922381Y-105370238D01*
X69922381Y-105132142D01*
X69970000Y-105036904D01*
X70017619Y-104989285D01*
X70112857Y-104941666D01*
X70208095Y-104941666D01*
X70350952Y-104989285D01*
X70922381Y-105560714D01*
X70922381Y-104941666D01*
X69922381Y-104322619D02*
X69922381Y-104227380D01*
X69970000Y-104132142D01*
X70017619Y-104084523D01*
X70112857Y-104036904D01*
X70303333Y-103989285D01*
X70541429Y-103989285D01*
X70731905Y-104036904D01*
X70827143Y-104084523D01*
X70874762Y-104132142D01*
X70922381Y-104227380D01*
X70922381Y-104322619D01*
X70874762Y-104417857D01*
X70827143Y-104465476D01*
X70731905Y-104513095D01*
X70541429Y-104560714D01*
X70303333Y-104560714D01*
X70112857Y-104513095D01*
X70017619Y-104465476D01*
X69970000Y-104417857D01*
X69922381Y-104322619D01*
X70017619Y-103608333D02*
X69970000Y-103560714D01*
X69922381Y-103465476D01*
X69922381Y-103227380D01*
X69970000Y-103132142D01*
X70017619Y-103084523D01*
X70112857Y-103036904D01*
X70208095Y-103036904D01*
X70350952Y-103084523D01*
X70922381Y-103655952D01*
X70922381Y-103036904D01*
X69021429Y-109435952D02*
X69021429Y-108674047D01*
X69402381Y-109054999D02*
X68640476Y-109054999D01*
X61317143Y-117959047D02*
X61364762Y-118006666D01*
X61412381Y-118149523D01*
X61412381Y-118244761D01*
X61364762Y-118387619D01*
X61269524Y-118482857D01*
X61174286Y-118530476D01*
X60983810Y-118578095D01*
X60840952Y-118578095D01*
X60650476Y-118530476D01*
X60555238Y-118482857D01*
X60460000Y-118387619D01*
X60412381Y-118244761D01*
X60412381Y-118149523D01*
X60460000Y-118006666D01*
X60507619Y-117959047D01*
X60507619Y-117578095D02*
X60460000Y-117530476D01*
X60412381Y-117435238D01*
X60412381Y-117197142D01*
X60460000Y-117101904D01*
X60507619Y-117054285D01*
X60602857Y-117006666D01*
X60698095Y-117006666D01*
X60840952Y-117054285D01*
X61412381Y-117625714D01*
X61412381Y-117006666D01*
X60412381Y-116387619D02*
X60412381Y-116292380D01*
X60460000Y-116197142D01*
X60507619Y-116149523D01*
X60602857Y-116101904D01*
X60793333Y-116054285D01*
X61031429Y-116054285D01*
X61221905Y-116101904D01*
X61317143Y-116149523D01*
X61364762Y-116197142D01*
X61412381Y-116292380D01*
X61412381Y-116387619D01*
X61364762Y-116482857D01*
X61317143Y-116530476D01*
X61221905Y-116578095D01*
X61031429Y-116625714D01*
X60793333Y-116625714D01*
X60602857Y-116578095D01*
X60507619Y-116530476D01*
X60460000Y-116482857D01*
X60412381Y-116387619D01*
X60412381Y-115720952D02*
X60412381Y-115101904D01*
X60793333Y-115435238D01*
X60793333Y-115292380D01*
X60840952Y-115197142D01*
X60888571Y-115149523D01*
X60983810Y-115101904D01*
X61221905Y-115101904D01*
X61317143Y-115149523D01*
X61364762Y-115197142D01*
X61412381Y-115292380D01*
X61412381Y-115578095D01*
X61364762Y-115673333D01*
X61317143Y-115720952D01*
X61317143Y-104624047D02*
X61364762Y-104671666D01*
X61412381Y-104814523D01*
X61412381Y-104909761D01*
X61364762Y-105052619D01*
X61269524Y-105147857D01*
X61174286Y-105195476D01*
X60983810Y-105243095D01*
X60840952Y-105243095D01*
X60650476Y-105195476D01*
X60555238Y-105147857D01*
X60460000Y-105052619D01*
X60412381Y-104909761D01*
X60412381Y-104814523D01*
X60460000Y-104671666D01*
X60507619Y-104624047D01*
X60507619Y-104243095D02*
X60460000Y-104195476D01*
X60412381Y-104100238D01*
X60412381Y-103862142D01*
X60460000Y-103766904D01*
X60507619Y-103719285D01*
X60602857Y-103671666D01*
X60698095Y-103671666D01*
X60840952Y-103719285D01*
X61412381Y-104290714D01*
X61412381Y-103671666D01*
X60412381Y-103052619D02*
X60412381Y-102957380D01*
X60460000Y-102862142D01*
X60507619Y-102814523D01*
X60602857Y-102766904D01*
X60793333Y-102719285D01*
X61031429Y-102719285D01*
X61221905Y-102766904D01*
X61317143Y-102814523D01*
X61364762Y-102862142D01*
X61412381Y-102957380D01*
X61412381Y-103052619D01*
X61364762Y-103147857D01*
X61317143Y-103195476D01*
X61221905Y-103243095D01*
X61031429Y-103290714D01*
X60793333Y-103290714D01*
X60602857Y-103243095D01*
X60507619Y-103195476D01*
X60460000Y-103147857D01*
X60412381Y-103052619D01*
X60745714Y-101862142D02*
X61412381Y-101862142D01*
X60364762Y-102100238D02*
X61079048Y-102338333D01*
X61079048Y-101719285D01*
X57507143Y-117959047D02*
X57554762Y-118006666D01*
X57602381Y-118149523D01*
X57602381Y-118244761D01*
X57554762Y-118387619D01*
X57459524Y-118482857D01*
X57364286Y-118530476D01*
X57173810Y-118578095D01*
X57030952Y-118578095D01*
X56840476Y-118530476D01*
X56745238Y-118482857D01*
X56650000Y-118387619D01*
X56602381Y-118244761D01*
X56602381Y-118149523D01*
X56650000Y-118006666D01*
X56697619Y-117959047D01*
X56697619Y-117578095D02*
X56650000Y-117530476D01*
X56602381Y-117435238D01*
X56602381Y-117197142D01*
X56650000Y-117101904D01*
X56697619Y-117054285D01*
X56792857Y-117006666D01*
X56888095Y-117006666D01*
X57030952Y-117054285D01*
X57602381Y-117625714D01*
X57602381Y-117006666D01*
X56602381Y-116387619D02*
X56602381Y-116292380D01*
X56650000Y-116197142D01*
X56697619Y-116149523D01*
X56792857Y-116101904D01*
X56983333Y-116054285D01*
X57221429Y-116054285D01*
X57411905Y-116101904D01*
X57507143Y-116149523D01*
X57554762Y-116197142D01*
X57602381Y-116292380D01*
X57602381Y-116387619D01*
X57554762Y-116482857D01*
X57507143Y-116530476D01*
X57411905Y-116578095D01*
X57221429Y-116625714D01*
X56983333Y-116625714D01*
X56792857Y-116578095D01*
X56697619Y-116530476D01*
X56650000Y-116482857D01*
X56602381Y-116387619D01*
X56602381Y-115149523D02*
X56602381Y-115625714D01*
X57078571Y-115673333D01*
X57030952Y-115625714D01*
X56983333Y-115530476D01*
X56983333Y-115292380D01*
X57030952Y-115197142D01*
X57078571Y-115149523D01*
X57173810Y-115101904D01*
X57411905Y-115101904D01*
X57507143Y-115149523D01*
X57554762Y-115197142D01*
X57602381Y-115292380D01*
X57602381Y-115530476D01*
X57554762Y-115625714D01*
X57507143Y-115673333D01*
X57507143Y-104624047D02*
X57554762Y-104671666D01*
X57602381Y-104814523D01*
X57602381Y-104909761D01*
X57554762Y-105052619D01*
X57459524Y-105147857D01*
X57364286Y-105195476D01*
X57173810Y-105243095D01*
X57030952Y-105243095D01*
X56840476Y-105195476D01*
X56745238Y-105147857D01*
X56650000Y-105052619D01*
X56602381Y-104909761D01*
X56602381Y-104814523D01*
X56650000Y-104671666D01*
X56697619Y-104624047D01*
X56697619Y-104243095D02*
X56650000Y-104195476D01*
X56602381Y-104100238D01*
X56602381Y-103862142D01*
X56650000Y-103766904D01*
X56697619Y-103719285D01*
X56792857Y-103671666D01*
X56888095Y-103671666D01*
X57030952Y-103719285D01*
X57602381Y-104290714D01*
X57602381Y-103671666D01*
X56602381Y-103052619D02*
X56602381Y-102957380D01*
X56650000Y-102862142D01*
X56697619Y-102814523D01*
X56792857Y-102766904D01*
X56983333Y-102719285D01*
X57221429Y-102719285D01*
X57411905Y-102766904D01*
X57507143Y-102814523D01*
X57554762Y-102862142D01*
X57602381Y-102957380D01*
X57602381Y-103052619D01*
X57554762Y-103147857D01*
X57507143Y-103195476D01*
X57411905Y-103243095D01*
X57221429Y-103290714D01*
X56983333Y-103290714D01*
X56792857Y-103243095D01*
X56697619Y-103195476D01*
X56650000Y-103147857D01*
X56602381Y-103052619D01*
X56602381Y-101862142D02*
X56602381Y-102052619D01*
X56650000Y-102147857D01*
X56697619Y-102195476D01*
X56840476Y-102290714D01*
X57030952Y-102338333D01*
X57411905Y-102338333D01*
X57507143Y-102290714D01*
X57554762Y-102243095D01*
X57602381Y-102147857D01*
X57602381Y-101957380D01*
X57554762Y-101862142D01*
X57507143Y-101814523D01*
X57411905Y-101766904D01*
X57173810Y-101766904D01*
X57078571Y-101814523D01*
X57030952Y-101862142D01*
X56983333Y-101957380D01*
X56983333Y-102147857D01*
X57030952Y-102243095D01*
X57078571Y-102290714D01*
X57173810Y-102338333D01*
X76557143Y-77446047D02*
X76604762Y-77493666D01*
X76652381Y-77636523D01*
X76652381Y-77731761D01*
X76604762Y-77874619D01*
X76509524Y-77969857D01*
X76414286Y-78017476D01*
X76223810Y-78065095D01*
X76080952Y-78065095D01*
X75890476Y-78017476D01*
X75795238Y-77969857D01*
X75700000Y-77874619D01*
X75652381Y-77731761D01*
X75652381Y-77636523D01*
X75700000Y-77493666D01*
X75747619Y-77446047D01*
X75747619Y-77065095D02*
X75700000Y-77017476D01*
X75652381Y-76922238D01*
X75652381Y-76684142D01*
X75700000Y-76588904D01*
X75747619Y-76541285D01*
X75842857Y-76493666D01*
X75938095Y-76493666D01*
X76080952Y-76541285D01*
X76652381Y-77112714D01*
X76652381Y-76493666D01*
X75652381Y-75874619D02*
X75652381Y-75779380D01*
X75700000Y-75684142D01*
X75747619Y-75636523D01*
X75842857Y-75588904D01*
X76033333Y-75541285D01*
X76271429Y-75541285D01*
X76461905Y-75588904D01*
X76557143Y-75636523D01*
X76604762Y-75684142D01*
X76652381Y-75779380D01*
X76652381Y-75874619D01*
X76604762Y-75969857D01*
X76557143Y-76017476D01*
X76461905Y-76065095D01*
X76271429Y-76112714D01*
X76033333Y-76112714D01*
X75842857Y-76065095D01*
X75747619Y-76017476D01*
X75700000Y-75969857D01*
X75652381Y-75874619D01*
X75652381Y-75207952D02*
X75652381Y-74541285D01*
X76652381Y-74969857D01*
X79906953Y-81383143D02*
X79859334Y-81430762D01*
X79716477Y-81478381D01*
X79621239Y-81478381D01*
X79478381Y-81430762D01*
X79383143Y-81335524D01*
X79335524Y-81240286D01*
X79287905Y-81049810D01*
X79287905Y-80906952D01*
X79335524Y-80716476D01*
X79383143Y-80621238D01*
X79478381Y-80526000D01*
X79621239Y-80478381D01*
X79716477Y-80478381D01*
X79859334Y-80526000D01*
X79906953Y-80573619D01*
X80287905Y-80573619D02*
X80335524Y-80526000D01*
X80430762Y-80478381D01*
X80668858Y-80478381D01*
X80764096Y-80526000D01*
X80811715Y-80573619D01*
X80859334Y-80668857D01*
X80859334Y-80764095D01*
X80811715Y-80906952D01*
X80240286Y-81478381D01*
X80859334Y-81478381D01*
X81478381Y-80478381D02*
X81573620Y-80478381D01*
X81668858Y-80526000D01*
X81716477Y-80573619D01*
X81764096Y-80668857D01*
X81811715Y-80859333D01*
X81811715Y-81097429D01*
X81764096Y-81287905D01*
X81716477Y-81383143D01*
X81668858Y-81430762D01*
X81573620Y-81478381D01*
X81478381Y-81478381D01*
X81383143Y-81430762D01*
X81335524Y-81383143D01*
X81287905Y-81287905D01*
X81240286Y-81097429D01*
X81240286Y-80859333D01*
X81287905Y-80668857D01*
X81335524Y-80573619D01*
X81383143Y-80526000D01*
X81478381Y-80478381D01*
X82383143Y-80906952D02*
X82287905Y-80859333D01*
X82240286Y-80811714D01*
X82192667Y-80716476D01*
X82192667Y-80668857D01*
X82240286Y-80573619D01*
X82287905Y-80526000D01*
X82383143Y-80478381D01*
X82573620Y-80478381D01*
X82668858Y-80526000D01*
X82716477Y-80573619D01*
X82764096Y-80668857D01*
X82764096Y-80716476D01*
X82716477Y-80811714D01*
X82668858Y-80859333D01*
X82573620Y-80906952D01*
X82383143Y-80906952D01*
X82287905Y-80954571D01*
X82240286Y-81002190D01*
X82192667Y-81097429D01*
X82192667Y-81287905D01*
X82240286Y-81383143D01*
X82287905Y-81430762D01*
X82383143Y-81478381D01*
X82573620Y-81478381D01*
X82668858Y-81430762D01*
X82716477Y-81383143D01*
X82764096Y-81287905D01*
X82764096Y-81097429D01*
X82716477Y-81002190D01*
X82668858Y-80954571D01*
X82573620Y-80906952D01*
X78716143Y-74779047D02*
X78763762Y-74826666D01*
X78811381Y-74969523D01*
X78811381Y-75064761D01*
X78763762Y-75207619D01*
X78668524Y-75302857D01*
X78573286Y-75350476D01*
X78382810Y-75398095D01*
X78239952Y-75398095D01*
X78049476Y-75350476D01*
X77954238Y-75302857D01*
X77859000Y-75207619D01*
X77811381Y-75064761D01*
X77811381Y-74969523D01*
X77859000Y-74826666D01*
X77906619Y-74779047D01*
X77906619Y-74398095D02*
X77859000Y-74350476D01*
X77811381Y-74255238D01*
X77811381Y-74017142D01*
X77859000Y-73921904D01*
X77906619Y-73874285D01*
X78001857Y-73826666D01*
X78097095Y-73826666D01*
X78239952Y-73874285D01*
X78811381Y-74445714D01*
X78811381Y-73826666D01*
X77811381Y-73207619D02*
X77811381Y-73112380D01*
X77859000Y-73017142D01*
X77906619Y-72969523D01*
X78001857Y-72921904D01*
X78192333Y-72874285D01*
X78430429Y-72874285D01*
X78620905Y-72921904D01*
X78716143Y-72969523D01*
X78763762Y-73017142D01*
X78811381Y-73112380D01*
X78811381Y-73207619D01*
X78763762Y-73302857D01*
X78716143Y-73350476D01*
X78620905Y-73398095D01*
X78430429Y-73445714D01*
X78192333Y-73445714D01*
X78001857Y-73398095D01*
X77906619Y-73350476D01*
X77859000Y-73302857D01*
X77811381Y-73207619D01*
X78811381Y-72398095D02*
X78811381Y-72207619D01*
X78763762Y-72112380D01*
X78716143Y-72064761D01*
X78573286Y-71969523D01*
X78382810Y-71921904D01*
X78001857Y-71921904D01*
X77906619Y-71969523D01*
X77859000Y-72017142D01*
X77811381Y-72112380D01*
X77811381Y-72302857D01*
X77859000Y-72398095D01*
X77906619Y-72445714D01*
X78001857Y-72493333D01*
X78239952Y-72493333D01*
X78335190Y-72445714D01*
X78382810Y-72398095D01*
X78430429Y-72302857D01*
X78430429Y-72112380D01*
X78382810Y-72017142D01*
X78335190Y-71969523D01*
X78239952Y-71921904D01*
X106576953Y-48109143D02*
X106529334Y-48156762D01*
X106386477Y-48204381D01*
X106291239Y-48204381D01*
X106148381Y-48156762D01*
X106053143Y-48061524D01*
X106005524Y-47966286D01*
X105957905Y-47775810D01*
X105957905Y-47632952D01*
X106005524Y-47442476D01*
X106053143Y-47347238D01*
X106148381Y-47252000D01*
X106291239Y-47204381D01*
X106386477Y-47204381D01*
X106529334Y-47252000D01*
X106576953Y-47299619D01*
X106957905Y-47299619D02*
X107005524Y-47252000D01*
X107100762Y-47204381D01*
X107338858Y-47204381D01*
X107434096Y-47252000D01*
X107481715Y-47299619D01*
X107529334Y-47394857D01*
X107529334Y-47490095D01*
X107481715Y-47632952D01*
X106910286Y-48204381D01*
X107529334Y-48204381D01*
X108481715Y-48204381D02*
X107910286Y-48204381D01*
X108196000Y-48204381D02*
X108196000Y-47204381D01*
X108100762Y-47347238D01*
X108005524Y-47442476D01*
X107910286Y-47490095D01*
X109100762Y-47204381D02*
X109196001Y-47204381D01*
X109291239Y-47252000D01*
X109338858Y-47299619D01*
X109386477Y-47394857D01*
X109434096Y-47585333D01*
X109434096Y-47823429D01*
X109386477Y-48013905D01*
X109338858Y-48109143D01*
X109291239Y-48156762D01*
X109196001Y-48204381D01*
X109100762Y-48204381D01*
X109005524Y-48156762D01*
X108957905Y-48109143D01*
X108910286Y-48013905D01*
X108862667Y-47823429D01*
X108862667Y-47585333D01*
X108910286Y-47394857D01*
X108957905Y-47299619D01*
X109005524Y-47252000D01*
X109100762Y-47204381D01*
X99845953Y-52427143D02*
X99798334Y-52474762D01*
X99655477Y-52522381D01*
X99560239Y-52522381D01*
X99417381Y-52474762D01*
X99322143Y-52379524D01*
X99274524Y-52284286D01*
X99226905Y-52093810D01*
X99226905Y-51950952D01*
X99274524Y-51760476D01*
X99322143Y-51665238D01*
X99417381Y-51570000D01*
X99560239Y-51522381D01*
X99655477Y-51522381D01*
X99798334Y-51570000D01*
X99845953Y-51617619D01*
X100226905Y-51617619D02*
X100274524Y-51570000D01*
X100369762Y-51522381D01*
X100607858Y-51522381D01*
X100703096Y-51570000D01*
X100750715Y-51617619D01*
X100798334Y-51712857D01*
X100798334Y-51808095D01*
X100750715Y-51950952D01*
X100179286Y-52522381D01*
X100798334Y-52522381D01*
X101750715Y-52522381D02*
X101179286Y-52522381D01*
X101465000Y-52522381D02*
X101465000Y-51522381D01*
X101369762Y-51665238D01*
X101274524Y-51760476D01*
X101179286Y-51808095D01*
X102703096Y-52522381D02*
X102131667Y-52522381D01*
X102417381Y-52522381D02*
X102417381Y-51522381D01*
X102322143Y-51665238D01*
X102226905Y-51760476D01*
X102131667Y-51808095D01*
X102639953Y-48109143D02*
X102592334Y-48156762D01*
X102449477Y-48204381D01*
X102354239Y-48204381D01*
X102211381Y-48156762D01*
X102116143Y-48061524D01*
X102068524Y-47966286D01*
X102020905Y-47775810D01*
X102020905Y-47632952D01*
X102068524Y-47442476D01*
X102116143Y-47347238D01*
X102211381Y-47252000D01*
X102354239Y-47204381D01*
X102449477Y-47204381D01*
X102592334Y-47252000D01*
X102639953Y-47299619D01*
X103020905Y-47299619D02*
X103068524Y-47252000D01*
X103163762Y-47204381D01*
X103401858Y-47204381D01*
X103497096Y-47252000D01*
X103544715Y-47299619D01*
X103592334Y-47394857D01*
X103592334Y-47490095D01*
X103544715Y-47632952D01*
X102973286Y-48204381D01*
X103592334Y-48204381D01*
X104544715Y-48204381D02*
X103973286Y-48204381D01*
X104259000Y-48204381D02*
X104259000Y-47204381D01*
X104163762Y-47347238D01*
X104068524Y-47442476D01*
X103973286Y-47490095D01*
X104925667Y-47299619D02*
X104973286Y-47252000D01*
X105068524Y-47204381D01*
X105306620Y-47204381D01*
X105401858Y-47252000D01*
X105449477Y-47299619D01*
X105497096Y-47394857D01*
X105497096Y-47490095D01*
X105449477Y-47632952D01*
X104878048Y-48204381D01*
X105497096Y-48204381D01*
X96670953Y-77700143D02*
X96623334Y-77747762D01*
X96480477Y-77795381D01*
X96385239Y-77795381D01*
X96242381Y-77747762D01*
X96147143Y-77652524D01*
X96099524Y-77557286D01*
X96051905Y-77366810D01*
X96051905Y-77223952D01*
X96099524Y-77033476D01*
X96147143Y-76938238D01*
X96242381Y-76843000D01*
X96385239Y-76795381D01*
X96480477Y-76795381D01*
X96623334Y-76843000D01*
X96670953Y-76890619D01*
X97051905Y-76890619D02*
X97099524Y-76843000D01*
X97194762Y-76795381D01*
X97432858Y-76795381D01*
X97528096Y-76843000D01*
X97575715Y-76890619D01*
X97623334Y-76985857D01*
X97623334Y-77081095D01*
X97575715Y-77223952D01*
X97004286Y-77795381D01*
X97623334Y-77795381D01*
X98575715Y-77795381D02*
X98004286Y-77795381D01*
X98290000Y-77795381D02*
X98290000Y-76795381D01*
X98194762Y-76938238D01*
X98099524Y-77033476D01*
X98004286Y-77081095D01*
X98909048Y-76795381D02*
X99528096Y-76795381D01*
X99194762Y-77176333D01*
X99337620Y-77176333D01*
X99432858Y-77223952D01*
X99480477Y-77271571D01*
X99528096Y-77366810D01*
X99528096Y-77604905D01*
X99480477Y-77700143D01*
X99432858Y-77747762D01*
X99337620Y-77795381D01*
X99051905Y-77795381D01*
X98956667Y-77747762D01*
X98909048Y-77700143D01*
X94464143Y-76684047D02*
X94511762Y-76731666D01*
X94559381Y-76874523D01*
X94559381Y-76969761D01*
X94511762Y-77112619D01*
X94416524Y-77207857D01*
X94321286Y-77255476D01*
X94130810Y-77303095D01*
X93987952Y-77303095D01*
X93797476Y-77255476D01*
X93702238Y-77207857D01*
X93607000Y-77112619D01*
X93559381Y-76969761D01*
X93559381Y-76874523D01*
X93607000Y-76731666D01*
X93654619Y-76684047D01*
X93654619Y-76303095D02*
X93607000Y-76255476D01*
X93559381Y-76160238D01*
X93559381Y-75922142D01*
X93607000Y-75826904D01*
X93654619Y-75779285D01*
X93749857Y-75731666D01*
X93845095Y-75731666D01*
X93987952Y-75779285D01*
X94559381Y-76350714D01*
X94559381Y-75731666D01*
X94559381Y-74779285D02*
X94559381Y-75350714D01*
X94559381Y-75065000D02*
X93559381Y-75065000D01*
X93702238Y-75160238D01*
X93797476Y-75255476D01*
X93845095Y-75350714D01*
X93559381Y-73874523D02*
X93559381Y-74350714D01*
X94035571Y-74398333D01*
X93987952Y-74350714D01*
X93940333Y-74255476D01*
X93940333Y-74017380D01*
X93987952Y-73922142D01*
X94035571Y-73874523D01*
X94130810Y-73826904D01*
X94368905Y-73826904D01*
X94464143Y-73874523D01*
X94511762Y-73922142D01*
X94559381Y-74017380D01*
X94559381Y-74255476D01*
X94511762Y-74350714D01*
X94464143Y-74398333D01*
X62206143Y-90527047D02*
X62253762Y-90574666D01*
X62301381Y-90717523D01*
X62301381Y-90812761D01*
X62253762Y-90955619D01*
X62158524Y-91050857D01*
X62063286Y-91098476D01*
X61872810Y-91146095D01*
X61729952Y-91146095D01*
X61539476Y-91098476D01*
X61444238Y-91050857D01*
X61349000Y-90955619D01*
X61301381Y-90812761D01*
X61301381Y-90717523D01*
X61349000Y-90574666D01*
X61396619Y-90527047D01*
X61396619Y-90146095D02*
X61349000Y-90098476D01*
X61301381Y-90003238D01*
X61301381Y-89765142D01*
X61349000Y-89669904D01*
X61396619Y-89622285D01*
X61491857Y-89574666D01*
X61587095Y-89574666D01*
X61729952Y-89622285D01*
X62301381Y-90193714D01*
X62301381Y-89574666D01*
X62301381Y-88622285D02*
X62301381Y-89193714D01*
X62301381Y-88908000D02*
X61301381Y-88908000D01*
X61444238Y-89003238D01*
X61539476Y-89098476D01*
X61587095Y-89193714D01*
X61729952Y-88050857D02*
X61682333Y-88146095D01*
X61634714Y-88193714D01*
X61539476Y-88241333D01*
X61491857Y-88241333D01*
X61396619Y-88193714D01*
X61349000Y-88146095D01*
X61301381Y-88050857D01*
X61301381Y-87860380D01*
X61349000Y-87765142D01*
X61396619Y-87717523D01*
X61491857Y-87669904D01*
X61539476Y-87669904D01*
X61634714Y-87717523D01*
X61682333Y-87765142D01*
X61729952Y-87860380D01*
X61729952Y-88050857D01*
X61777571Y-88146095D01*
X61825190Y-88193714D01*
X61920429Y-88241333D01*
X62110905Y-88241333D01*
X62206143Y-88193714D01*
X62253762Y-88146095D01*
X62301381Y-88050857D01*
X62301381Y-87860380D01*
X62253762Y-87765142D01*
X62206143Y-87717523D01*
X62110905Y-87669904D01*
X61920429Y-87669904D01*
X61825190Y-87717523D01*
X61777571Y-87765142D01*
X61729952Y-87860380D01*
X72747143Y-79859047D02*
X72794762Y-79906666D01*
X72842381Y-80049523D01*
X72842381Y-80144761D01*
X72794762Y-80287619D01*
X72699524Y-80382857D01*
X72604286Y-80430476D01*
X72413810Y-80478095D01*
X72270952Y-80478095D01*
X72080476Y-80430476D01*
X71985238Y-80382857D01*
X71890000Y-80287619D01*
X71842381Y-80144761D01*
X71842381Y-80049523D01*
X71890000Y-79906666D01*
X71937619Y-79859047D01*
X71937619Y-79478095D02*
X71890000Y-79430476D01*
X71842381Y-79335238D01*
X71842381Y-79097142D01*
X71890000Y-79001904D01*
X71937619Y-78954285D01*
X72032857Y-78906666D01*
X72128095Y-78906666D01*
X72270952Y-78954285D01*
X72842381Y-79525714D01*
X72842381Y-78906666D01*
X72842381Y-77954285D02*
X72842381Y-78525714D01*
X72842381Y-78240000D02*
X71842381Y-78240000D01*
X71985238Y-78335238D01*
X72080476Y-78430476D01*
X72128095Y-78525714D01*
X72842381Y-77478095D02*
X72842381Y-77287619D01*
X72794762Y-77192380D01*
X72747143Y-77144761D01*
X72604286Y-77049523D01*
X72413810Y-77001904D01*
X72032857Y-77001904D01*
X71937619Y-77049523D01*
X71890000Y-77097142D01*
X71842381Y-77192380D01*
X71842381Y-77382857D01*
X71890000Y-77478095D01*
X71937619Y-77525714D01*
X72032857Y-77573333D01*
X72270952Y-77573333D01*
X72366190Y-77525714D01*
X72413810Y-77478095D01*
X72461429Y-77382857D01*
X72461429Y-77192380D01*
X72413810Y-77097142D01*
X72366190Y-77049523D01*
X72270952Y-77001904D01*
X116419524Y-25852381D02*
X116419524Y-24852381D01*
X116657619Y-24852381D01*
X116800477Y-24900000D01*
X116895715Y-24995238D01*
X116943334Y-25090476D01*
X116990953Y-25280952D01*
X116990953Y-25423810D01*
X116943334Y-25614286D01*
X116895715Y-25709524D01*
X116800477Y-25804762D01*
X116657619Y-25852381D01*
X116419524Y-25852381D01*
X117943334Y-25852381D02*
X117371905Y-25852381D01*
X117657619Y-25852381D02*
X117657619Y-24852381D01*
X117562381Y-24995238D01*
X117467143Y-25090476D01*
X117371905Y-25138095D01*
X118562381Y-24852381D02*
X118657620Y-24852381D01*
X118752858Y-24900000D01*
X118800477Y-24947619D01*
X118848096Y-25042857D01*
X118895715Y-25233333D01*
X118895715Y-25471429D01*
X118848096Y-25661905D01*
X118800477Y-25757143D01*
X118752858Y-25804762D01*
X118657620Y-25852381D01*
X118562381Y-25852381D01*
X118467143Y-25804762D01*
X118419524Y-25757143D01*
X118371905Y-25661905D01*
X118324286Y-25471429D01*
X118324286Y-25233333D01*
X118371905Y-25042857D01*
X118419524Y-24947619D01*
X118467143Y-24900000D01*
X118562381Y-24852381D01*
X119848096Y-25852381D02*
X119276667Y-25852381D01*
X119562381Y-25852381D02*
X119562381Y-24852381D01*
X119467143Y-24995238D01*
X119371905Y-25090476D01*
X119276667Y-25138095D01*
X78573524Y-121102381D02*
X78573524Y-120102381D01*
X78811619Y-120102381D01*
X78954477Y-120150000D01*
X79049715Y-120245238D01*
X79097334Y-120340476D01*
X79144953Y-120530952D01*
X79144953Y-120673810D01*
X79097334Y-120864286D01*
X79049715Y-120959524D01*
X78954477Y-121054762D01*
X78811619Y-121102381D01*
X78573524Y-121102381D01*
X79525905Y-120197619D02*
X79573524Y-120150000D01*
X79668762Y-120102381D01*
X79906858Y-120102381D01*
X80002096Y-120150000D01*
X80049715Y-120197619D01*
X80097334Y-120292857D01*
X80097334Y-120388095D01*
X80049715Y-120530952D01*
X79478286Y-121102381D01*
X80097334Y-121102381D01*
X80716381Y-120102381D02*
X80811620Y-120102381D01*
X80906858Y-120150000D01*
X80954477Y-120197619D01*
X81002096Y-120292857D01*
X81049715Y-120483333D01*
X81049715Y-120721429D01*
X81002096Y-120911905D01*
X80954477Y-121007143D01*
X80906858Y-121054762D01*
X80811620Y-121102381D01*
X80716381Y-121102381D01*
X80621143Y-121054762D01*
X80573524Y-121007143D01*
X80525905Y-120911905D01*
X80478286Y-120721429D01*
X80478286Y-120483333D01*
X80525905Y-120292857D01*
X80573524Y-120197619D01*
X80621143Y-120150000D01*
X80716381Y-120102381D01*
X82002096Y-121102381D02*
X81430667Y-121102381D01*
X81716381Y-121102381D02*
X81716381Y-120102381D01*
X81621143Y-120245238D01*
X81525905Y-120340476D01*
X81430667Y-120388095D01*
X145867381Y-98210476D02*
X144867381Y-98210476D01*
X144867381Y-97972381D01*
X144915000Y-97829523D01*
X145010238Y-97734285D01*
X145105476Y-97686666D01*
X145295952Y-97639047D01*
X145438810Y-97639047D01*
X145629286Y-97686666D01*
X145724524Y-97734285D01*
X145819762Y-97829523D01*
X145867381Y-97972381D01*
X145867381Y-98210476D01*
X144962619Y-97258095D02*
X144915000Y-97210476D01*
X144867381Y-97115238D01*
X144867381Y-96877142D01*
X144915000Y-96781904D01*
X144962619Y-96734285D01*
X145057857Y-96686666D01*
X145153095Y-96686666D01*
X145295952Y-96734285D01*
X145867381Y-97305714D01*
X145867381Y-96686666D01*
X144867381Y-96067619D02*
X144867381Y-95972380D01*
X144915000Y-95877142D01*
X144962619Y-95829523D01*
X145057857Y-95781904D01*
X145248333Y-95734285D01*
X145486429Y-95734285D01*
X145676905Y-95781904D01*
X145772143Y-95829523D01*
X145819762Y-95877142D01*
X145867381Y-95972380D01*
X145867381Y-96067619D01*
X145819762Y-96162857D01*
X145772143Y-96210476D01*
X145676905Y-96258095D01*
X145486429Y-96305714D01*
X145248333Y-96305714D01*
X145057857Y-96258095D01*
X144962619Y-96210476D01*
X144915000Y-96162857D01*
X144867381Y-96067619D01*
X145200714Y-94877142D02*
X145867381Y-94877142D01*
X144819762Y-95115238D02*
X145534048Y-95353333D01*
X145534048Y-94734285D01*
X126198524Y-77287381D02*
X126198524Y-76287381D01*
X126436619Y-76287381D01*
X126579477Y-76335000D01*
X126674715Y-76430238D01*
X126722334Y-76525476D01*
X126769953Y-76715952D01*
X126769953Y-76858810D01*
X126722334Y-77049286D01*
X126674715Y-77144524D01*
X126579477Y-77239762D01*
X126436619Y-77287381D01*
X126198524Y-77287381D01*
X127150905Y-76382619D02*
X127198524Y-76335000D01*
X127293762Y-76287381D01*
X127531858Y-76287381D01*
X127627096Y-76335000D01*
X127674715Y-76382619D01*
X127722334Y-76477857D01*
X127722334Y-76573095D01*
X127674715Y-76715952D01*
X127103286Y-77287381D01*
X127722334Y-77287381D01*
X128341381Y-76287381D02*
X128436620Y-76287381D01*
X128531858Y-76335000D01*
X128579477Y-76382619D01*
X128627096Y-76477857D01*
X128674715Y-76668333D01*
X128674715Y-76906429D01*
X128627096Y-77096905D01*
X128579477Y-77192143D01*
X128531858Y-77239762D01*
X128436620Y-77287381D01*
X128341381Y-77287381D01*
X128246143Y-77239762D01*
X128198524Y-77192143D01*
X128150905Y-77096905D01*
X128103286Y-76906429D01*
X128103286Y-76668333D01*
X128150905Y-76477857D01*
X128198524Y-76382619D01*
X128246143Y-76335000D01*
X128341381Y-76287381D01*
X129579477Y-76287381D02*
X129103286Y-76287381D01*
X129055667Y-76763571D01*
X129103286Y-76715952D01*
X129198524Y-76668333D01*
X129436620Y-76668333D01*
X129531858Y-76715952D01*
X129579477Y-76763571D01*
X129627096Y-76858810D01*
X129627096Y-77096905D01*
X129579477Y-77192143D01*
X129531858Y-77239762D01*
X129436620Y-77287381D01*
X129198524Y-77287381D01*
X129103286Y-77239762D01*
X129055667Y-77192143D01*
X57134286Y-41838571D02*
X56800952Y-41838571D01*
X56800952Y-42362381D02*
X56800952Y-41362381D01*
X57277143Y-41362381D01*
X58181905Y-42362381D02*
X57610476Y-42362381D01*
X57896190Y-42362381D02*
X57896190Y-41362381D01*
X57800952Y-41505238D01*
X57705714Y-41600476D01*
X57610476Y-41648095D01*
X58800952Y-41362381D02*
X58896191Y-41362381D01*
X58991429Y-41410000D01*
X59039048Y-41457619D01*
X59086667Y-41552857D01*
X59134286Y-41743333D01*
X59134286Y-41981429D01*
X59086667Y-42171905D01*
X59039048Y-42267143D01*
X58991429Y-42314762D01*
X58896191Y-42362381D01*
X58800952Y-42362381D01*
X58705714Y-42314762D01*
X58658095Y-42267143D01*
X58610476Y-42171905D01*
X58562857Y-41981429D01*
X58562857Y-41743333D01*
X58610476Y-41552857D01*
X58658095Y-41457619D01*
X58705714Y-41410000D01*
X58800952Y-41362381D01*
X60086667Y-42362381D02*
X59515238Y-42362381D01*
X59800952Y-42362381D02*
X59800952Y-41362381D01*
X59705714Y-41505238D01*
X59610476Y-41600476D01*
X59515238Y-41648095D01*
X45522381Y-49863333D02*
X46236667Y-49863333D01*
X46379524Y-49910953D01*
X46474762Y-50006191D01*
X46522381Y-50149048D01*
X46522381Y-50244286D01*
X46522381Y-48863333D02*
X46522381Y-49434762D01*
X46522381Y-49149048D02*
X45522381Y-49149048D01*
X45665238Y-49244286D01*
X45760476Y-49339524D01*
X45808095Y-49434762D01*
X82772381Y-120054619D02*
X82677143Y-120007000D01*
X82581905Y-119911762D01*
X82439048Y-119768905D01*
X82343809Y-119721286D01*
X82248571Y-119721286D01*
X82296190Y-119959381D02*
X82200952Y-119911762D01*
X82105714Y-119816524D01*
X82058095Y-119626048D01*
X82058095Y-119292714D01*
X82105714Y-119102238D01*
X82200952Y-119007000D01*
X82296190Y-118959381D01*
X82486667Y-118959381D01*
X82581905Y-119007000D01*
X82677143Y-119102238D01*
X82724762Y-119292714D01*
X82724762Y-119626048D01*
X82677143Y-119816524D01*
X82581905Y-119911762D01*
X82486667Y-119959381D01*
X82296190Y-119959381D01*
X83105714Y-119054619D02*
X83153333Y-119007000D01*
X83248571Y-118959381D01*
X83486667Y-118959381D01*
X83581905Y-119007000D01*
X83629524Y-119054619D01*
X83677143Y-119149857D01*
X83677143Y-119245095D01*
X83629524Y-119387952D01*
X83058095Y-119959381D01*
X83677143Y-119959381D01*
X84296190Y-118959381D02*
X84391429Y-118959381D01*
X84486667Y-119007000D01*
X84534286Y-119054619D01*
X84581905Y-119149857D01*
X84629524Y-119340333D01*
X84629524Y-119578429D01*
X84581905Y-119768905D01*
X84534286Y-119864143D01*
X84486667Y-119911762D01*
X84391429Y-119959381D01*
X84296190Y-119959381D01*
X84200952Y-119911762D01*
X84153333Y-119864143D01*
X84105714Y-119768905D01*
X84058095Y-119578429D01*
X84058095Y-119340333D01*
X84105714Y-119149857D01*
X84153333Y-119054619D01*
X84200952Y-119007000D01*
X84296190Y-118959381D01*
X85581905Y-119959381D02*
X85010476Y-119959381D01*
X85296190Y-119959381D02*
X85296190Y-118959381D01*
X85200952Y-119102238D01*
X85105714Y-119197476D01*
X85010476Y-119245095D01*
X83272334Y-101571381D02*
X82939000Y-101095190D01*
X82700905Y-101571381D02*
X82700905Y-100571381D01*
X83081858Y-100571381D01*
X83177096Y-100619000D01*
X83224715Y-100666619D01*
X83272334Y-100761857D01*
X83272334Y-100904714D01*
X83224715Y-100999952D01*
X83177096Y-101047571D01*
X83081858Y-101095190D01*
X82700905Y-101095190D01*
X84224715Y-101571381D02*
X83653286Y-101571381D01*
X83939000Y-101571381D02*
X83939000Y-100571381D01*
X83843762Y-100714238D01*
X83748524Y-100809476D01*
X83653286Y-100857095D01*
X81605381Y-88876047D02*
X81129190Y-89209381D01*
X81605381Y-89447476D02*
X80605381Y-89447476D01*
X80605381Y-89066523D01*
X80653000Y-88971285D01*
X80700619Y-88923666D01*
X80795857Y-88876047D01*
X80938714Y-88876047D01*
X81033952Y-88923666D01*
X81081571Y-88971285D01*
X81129190Y-89066523D01*
X81129190Y-89447476D01*
X80700619Y-88495095D02*
X80653000Y-88447476D01*
X80605381Y-88352238D01*
X80605381Y-88114142D01*
X80653000Y-88018904D01*
X80700619Y-87971285D01*
X80795857Y-87923666D01*
X80891095Y-87923666D01*
X81033952Y-87971285D01*
X81605381Y-88542714D01*
X81605381Y-87923666D01*
X80605381Y-87304619D02*
X80605381Y-87209380D01*
X80653000Y-87114142D01*
X80700619Y-87066523D01*
X80795857Y-87018904D01*
X80986333Y-86971285D01*
X81224429Y-86971285D01*
X81414905Y-87018904D01*
X81510143Y-87066523D01*
X81557762Y-87114142D01*
X81605381Y-87209380D01*
X81605381Y-87304619D01*
X81557762Y-87399857D01*
X81510143Y-87447476D01*
X81414905Y-87495095D01*
X81224429Y-87542714D01*
X80986333Y-87542714D01*
X80795857Y-87495095D01*
X80700619Y-87447476D01*
X80653000Y-87399857D01*
X80605381Y-87304619D01*
X81605381Y-86018904D02*
X81605381Y-86590333D01*
X81605381Y-86304619D02*
X80605381Y-86304619D01*
X80748238Y-86399857D01*
X80843476Y-86495095D01*
X80891095Y-86590333D01*
X74747381Y-85828047D02*
X74271190Y-86161381D01*
X74747381Y-86399476D02*
X73747381Y-86399476D01*
X73747381Y-86018523D01*
X73795000Y-85923285D01*
X73842619Y-85875666D01*
X73937857Y-85828047D01*
X74080714Y-85828047D01*
X74175952Y-85875666D01*
X74223571Y-85923285D01*
X74271190Y-86018523D01*
X74271190Y-86399476D01*
X73842619Y-85447095D02*
X73795000Y-85399476D01*
X73747381Y-85304238D01*
X73747381Y-85066142D01*
X73795000Y-84970904D01*
X73842619Y-84923285D01*
X73937857Y-84875666D01*
X74033095Y-84875666D01*
X74175952Y-84923285D01*
X74747381Y-85494714D01*
X74747381Y-84875666D01*
X73747381Y-84256619D02*
X73747381Y-84161380D01*
X73795000Y-84066142D01*
X73842619Y-84018523D01*
X73937857Y-83970904D01*
X74128333Y-83923285D01*
X74366429Y-83923285D01*
X74556905Y-83970904D01*
X74652143Y-84018523D01*
X74699762Y-84066142D01*
X74747381Y-84161380D01*
X74747381Y-84256619D01*
X74699762Y-84351857D01*
X74652143Y-84399476D01*
X74556905Y-84447095D01*
X74366429Y-84494714D01*
X74128333Y-84494714D01*
X73937857Y-84447095D01*
X73842619Y-84399476D01*
X73795000Y-84351857D01*
X73747381Y-84256619D01*
X73842619Y-83542333D02*
X73795000Y-83494714D01*
X73747381Y-83399476D01*
X73747381Y-83161380D01*
X73795000Y-83066142D01*
X73842619Y-83018523D01*
X73937857Y-82970904D01*
X74033095Y-82970904D01*
X74175952Y-83018523D01*
X74747381Y-83589952D01*
X74747381Y-82970904D01*
X82240381Y-76303047D02*
X81764190Y-76636381D01*
X82240381Y-76874476D02*
X81240381Y-76874476D01*
X81240381Y-76493523D01*
X81288000Y-76398285D01*
X81335619Y-76350666D01*
X81430857Y-76303047D01*
X81573714Y-76303047D01*
X81668952Y-76350666D01*
X81716571Y-76398285D01*
X81764190Y-76493523D01*
X81764190Y-76874476D01*
X81335619Y-75922095D02*
X81288000Y-75874476D01*
X81240381Y-75779238D01*
X81240381Y-75541142D01*
X81288000Y-75445904D01*
X81335619Y-75398285D01*
X81430857Y-75350666D01*
X81526095Y-75350666D01*
X81668952Y-75398285D01*
X82240381Y-75969714D01*
X82240381Y-75350666D01*
X81240381Y-74731619D02*
X81240381Y-74636380D01*
X81288000Y-74541142D01*
X81335619Y-74493523D01*
X81430857Y-74445904D01*
X81621333Y-74398285D01*
X81859429Y-74398285D01*
X82049905Y-74445904D01*
X82145143Y-74493523D01*
X82192762Y-74541142D01*
X82240381Y-74636380D01*
X82240381Y-74731619D01*
X82192762Y-74826857D01*
X82145143Y-74874476D01*
X82049905Y-74922095D01*
X81859429Y-74969714D01*
X81621333Y-74969714D01*
X81430857Y-74922095D01*
X81335619Y-74874476D01*
X81288000Y-74826857D01*
X81240381Y-74731619D01*
X81240381Y-74064952D02*
X81240381Y-73445904D01*
X81621333Y-73779238D01*
X81621333Y-73636380D01*
X81668952Y-73541142D01*
X81716571Y-73493523D01*
X81811810Y-73445904D01*
X82049905Y-73445904D01*
X82145143Y-73493523D01*
X82192762Y-73541142D01*
X82240381Y-73636380D01*
X82240381Y-73922095D01*
X82192762Y-74017333D01*
X82145143Y-74064952D01*
X79065381Y-91670047D02*
X78589190Y-92003381D01*
X79065381Y-92241476D02*
X78065381Y-92241476D01*
X78065381Y-91860523D01*
X78113000Y-91765285D01*
X78160619Y-91717666D01*
X78255857Y-91670047D01*
X78398714Y-91670047D01*
X78493952Y-91717666D01*
X78541571Y-91765285D01*
X78589190Y-91860523D01*
X78589190Y-92241476D01*
X78160619Y-91289095D02*
X78113000Y-91241476D01*
X78065381Y-91146238D01*
X78065381Y-90908142D01*
X78113000Y-90812904D01*
X78160619Y-90765285D01*
X78255857Y-90717666D01*
X78351095Y-90717666D01*
X78493952Y-90765285D01*
X79065381Y-91336714D01*
X79065381Y-90717666D01*
X78065381Y-90098619D02*
X78065381Y-90003380D01*
X78113000Y-89908142D01*
X78160619Y-89860523D01*
X78255857Y-89812904D01*
X78446333Y-89765285D01*
X78684429Y-89765285D01*
X78874905Y-89812904D01*
X78970143Y-89860523D01*
X79017762Y-89908142D01*
X79065381Y-90003380D01*
X79065381Y-90098619D01*
X79017762Y-90193857D01*
X78970143Y-90241476D01*
X78874905Y-90289095D01*
X78684429Y-90336714D01*
X78446333Y-90336714D01*
X78255857Y-90289095D01*
X78160619Y-90241476D01*
X78113000Y-90193857D01*
X78065381Y-90098619D01*
X78398714Y-88908142D02*
X79065381Y-88908142D01*
X78017762Y-89146238D02*
X78732048Y-89384333D01*
X78732048Y-88765285D01*
X97178953Y-75255381D02*
X96845619Y-74779190D01*
X96607524Y-75255381D02*
X96607524Y-74255381D01*
X96988477Y-74255381D01*
X97083715Y-74303000D01*
X97131334Y-74350619D01*
X97178953Y-74445857D01*
X97178953Y-74588714D01*
X97131334Y-74683952D01*
X97083715Y-74731571D01*
X96988477Y-74779190D01*
X96607524Y-74779190D01*
X97559905Y-74350619D02*
X97607524Y-74303000D01*
X97702762Y-74255381D01*
X97940858Y-74255381D01*
X98036096Y-74303000D01*
X98083715Y-74350619D01*
X98131334Y-74445857D01*
X98131334Y-74541095D01*
X98083715Y-74683952D01*
X97512286Y-75255381D01*
X98131334Y-75255381D01*
X98750381Y-74255381D02*
X98845620Y-74255381D01*
X98940858Y-74303000D01*
X98988477Y-74350619D01*
X99036096Y-74445857D01*
X99083715Y-74636333D01*
X99083715Y-74874429D01*
X99036096Y-75064905D01*
X98988477Y-75160143D01*
X98940858Y-75207762D01*
X98845620Y-75255381D01*
X98750381Y-75255381D01*
X98655143Y-75207762D01*
X98607524Y-75160143D01*
X98559905Y-75064905D01*
X98512286Y-74874429D01*
X98512286Y-74636333D01*
X98559905Y-74445857D01*
X98607524Y-74350619D01*
X98655143Y-74303000D01*
X98750381Y-74255381D01*
X99988477Y-74255381D02*
X99512286Y-74255381D01*
X99464667Y-74731571D01*
X99512286Y-74683952D01*
X99607524Y-74636333D01*
X99845620Y-74636333D01*
X99940858Y-74683952D01*
X99988477Y-74731571D01*
X100036096Y-74826810D01*
X100036096Y-75064905D01*
X99988477Y-75160143D01*
X99940858Y-75207762D01*
X99845620Y-75255381D01*
X99607524Y-75255381D01*
X99512286Y-75207762D01*
X99464667Y-75160143D01*
X103401953Y-82240381D02*
X103068619Y-81764190D01*
X102830524Y-82240381D02*
X102830524Y-81240381D01*
X103211477Y-81240381D01*
X103306715Y-81288000D01*
X103354334Y-81335619D01*
X103401953Y-81430857D01*
X103401953Y-81573714D01*
X103354334Y-81668952D01*
X103306715Y-81716571D01*
X103211477Y-81764190D01*
X102830524Y-81764190D01*
X103782905Y-81335619D02*
X103830524Y-81288000D01*
X103925762Y-81240381D01*
X104163858Y-81240381D01*
X104259096Y-81288000D01*
X104306715Y-81335619D01*
X104354334Y-81430857D01*
X104354334Y-81526095D01*
X104306715Y-81668952D01*
X103735286Y-82240381D01*
X104354334Y-82240381D01*
X104973381Y-81240381D02*
X105068620Y-81240381D01*
X105163858Y-81288000D01*
X105211477Y-81335619D01*
X105259096Y-81430857D01*
X105306715Y-81621333D01*
X105306715Y-81859429D01*
X105259096Y-82049905D01*
X105211477Y-82145143D01*
X105163858Y-82192762D01*
X105068620Y-82240381D01*
X104973381Y-82240381D01*
X104878143Y-82192762D01*
X104830524Y-82145143D01*
X104782905Y-82049905D01*
X104735286Y-81859429D01*
X104735286Y-81621333D01*
X104782905Y-81430857D01*
X104830524Y-81335619D01*
X104878143Y-81288000D01*
X104973381Y-81240381D01*
X106163858Y-81240381D02*
X105973381Y-81240381D01*
X105878143Y-81288000D01*
X105830524Y-81335619D01*
X105735286Y-81478476D01*
X105687667Y-81668952D01*
X105687667Y-82049905D01*
X105735286Y-82145143D01*
X105782905Y-82192762D01*
X105878143Y-82240381D01*
X106068620Y-82240381D01*
X106163858Y-82192762D01*
X106211477Y-82145143D01*
X106259096Y-82049905D01*
X106259096Y-81811810D01*
X106211477Y-81716571D01*
X106163858Y-81668952D01*
X106068620Y-81621333D01*
X105878143Y-81621333D01*
X105782905Y-81668952D01*
X105735286Y-81716571D01*
X105687667Y-81811810D01*
X92781381Y-92432047D02*
X92305190Y-92765381D01*
X92781381Y-93003476D02*
X91781381Y-93003476D01*
X91781381Y-92622523D01*
X91829000Y-92527285D01*
X91876619Y-92479666D01*
X91971857Y-92432047D01*
X92114714Y-92432047D01*
X92209952Y-92479666D01*
X92257571Y-92527285D01*
X92305190Y-92622523D01*
X92305190Y-93003476D01*
X91876619Y-92051095D02*
X91829000Y-92003476D01*
X91781381Y-91908238D01*
X91781381Y-91670142D01*
X91829000Y-91574904D01*
X91876619Y-91527285D01*
X91971857Y-91479666D01*
X92067095Y-91479666D01*
X92209952Y-91527285D01*
X92781381Y-92098714D01*
X92781381Y-91479666D01*
X91781381Y-90860619D02*
X91781381Y-90765380D01*
X91829000Y-90670142D01*
X91876619Y-90622523D01*
X91971857Y-90574904D01*
X92162333Y-90527285D01*
X92400429Y-90527285D01*
X92590905Y-90574904D01*
X92686143Y-90622523D01*
X92733762Y-90670142D01*
X92781381Y-90765380D01*
X92781381Y-90860619D01*
X92733762Y-90955857D01*
X92686143Y-91003476D01*
X92590905Y-91051095D01*
X92400429Y-91098714D01*
X92162333Y-91098714D01*
X91971857Y-91051095D01*
X91876619Y-91003476D01*
X91829000Y-90955857D01*
X91781381Y-90860619D01*
X91781381Y-90193952D02*
X91781381Y-89527285D01*
X92781381Y-89955857D01*
X108862953Y-61031381D02*
X108529619Y-60555190D01*
X108291524Y-61031381D02*
X108291524Y-60031381D01*
X108672477Y-60031381D01*
X108767715Y-60079000D01*
X108815334Y-60126619D01*
X108862953Y-60221857D01*
X108862953Y-60364714D01*
X108815334Y-60459952D01*
X108767715Y-60507571D01*
X108672477Y-60555190D01*
X108291524Y-60555190D01*
X109243905Y-60126619D02*
X109291524Y-60079000D01*
X109386762Y-60031381D01*
X109624858Y-60031381D01*
X109720096Y-60079000D01*
X109767715Y-60126619D01*
X109815334Y-60221857D01*
X109815334Y-60317095D01*
X109767715Y-60459952D01*
X109196286Y-61031381D01*
X109815334Y-61031381D01*
X110434381Y-60031381D02*
X110529620Y-60031381D01*
X110624858Y-60079000D01*
X110672477Y-60126619D01*
X110720096Y-60221857D01*
X110767715Y-60412333D01*
X110767715Y-60650429D01*
X110720096Y-60840905D01*
X110672477Y-60936143D01*
X110624858Y-60983762D01*
X110529620Y-61031381D01*
X110434381Y-61031381D01*
X110339143Y-60983762D01*
X110291524Y-60936143D01*
X110243905Y-60840905D01*
X110196286Y-60650429D01*
X110196286Y-60412333D01*
X110243905Y-60221857D01*
X110291524Y-60126619D01*
X110339143Y-60079000D01*
X110434381Y-60031381D01*
X111339143Y-60459952D02*
X111243905Y-60412333D01*
X111196286Y-60364714D01*
X111148667Y-60269476D01*
X111148667Y-60221857D01*
X111196286Y-60126619D01*
X111243905Y-60079000D01*
X111339143Y-60031381D01*
X111529620Y-60031381D01*
X111624858Y-60079000D01*
X111672477Y-60126619D01*
X111720096Y-60221857D01*
X111720096Y-60269476D01*
X111672477Y-60364714D01*
X111624858Y-60412333D01*
X111529620Y-60459952D01*
X111339143Y-60459952D01*
X111243905Y-60507571D01*
X111196286Y-60555190D01*
X111148667Y-60650429D01*
X111148667Y-60840905D01*
X111196286Y-60936143D01*
X111243905Y-60983762D01*
X111339143Y-61031381D01*
X111529620Y-61031381D01*
X111624858Y-60983762D01*
X111672477Y-60936143D01*
X111720096Y-60840905D01*
X111720096Y-60650429D01*
X111672477Y-60555190D01*
X111624858Y-60507571D01*
X111529620Y-60459952D01*
X74874381Y-78716047D02*
X74398190Y-79049381D01*
X74874381Y-79287476D02*
X73874381Y-79287476D01*
X73874381Y-78906523D01*
X73922000Y-78811285D01*
X73969619Y-78763666D01*
X74064857Y-78716047D01*
X74207714Y-78716047D01*
X74302952Y-78763666D01*
X74350571Y-78811285D01*
X74398190Y-78906523D01*
X74398190Y-79287476D01*
X73969619Y-78335095D02*
X73922000Y-78287476D01*
X73874381Y-78192238D01*
X73874381Y-77954142D01*
X73922000Y-77858904D01*
X73969619Y-77811285D01*
X74064857Y-77763666D01*
X74160095Y-77763666D01*
X74302952Y-77811285D01*
X74874381Y-78382714D01*
X74874381Y-77763666D01*
X74874381Y-76811285D02*
X74874381Y-77382714D01*
X74874381Y-77097000D02*
X73874381Y-77097000D01*
X74017238Y-77192238D01*
X74112476Y-77287476D01*
X74160095Y-77382714D01*
X73874381Y-76192238D02*
X73874381Y-76096999D01*
X73922000Y-76001761D01*
X73969619Y-75954142D01*
X74064857Y-75906523D01*
X74255333Y-75858904D01*
X74493429Y-75858904D01*
X74683905Y-75906523D01*
X74779143Y-75954142D01*
X74826762Y-76001761D01*
X74874381Y-76096999D01*
X74874381Y-76192238D01*
X74826762Y-76287476D01*
X74779143Y-76335095D01*
X74683905Y-76382714D01*
X74493429Y-76430333D01*
X74255333Y-76430333D01*
X74064857Y-76382714D01*
X73969619Y-76335095D01*
X73922000Y-76287476D01*
X73874381Y-76192238D01*
X66825953Y-87447381D02*
X66492619Y-86971190D01*
X66254524Y-87447381D02*
X66254524Y-86447381D01*
X66635477Y-86447381D01*
X66730715Y-86495000D01*
X66778334Y-86542619D01*
X66825953Y-86637857D01*
X66825953Y-86780714D01*
X66778334Y-86875952D01*
X66730715Y-86923571D01*
X66635477Y-86971190D01*
X66254524Y-86971190D01*
X67206905Y-86542619D02*
X67254524Y-86495000D01*
X67349762Y-86447381D01*
X67587858Y-86447381D01*
X67683096Y-86495000D01*
X67730715Y-86542619D01*
X67778334Y-86637857D01*
X67778334Y-86733095D01*
X67730715Y-86875952D01*
X67159286Y-87447381D01*
X67778334Y-87447381D01*
X68730715Y-87447381D02*
X68159286Y-87447381D01*
X68445000Y-87447381D02*
X68445000Y-86447381D01*
X68349762Y-86590238D01*
X68254524Y-86685476D01*
X68159286Y-86733095D01*
X69683096Y-87447381D02*
X69111667Y-87447381D01*
X69397381Y-87447381D02*
X69397381Y-86447381D01*
X69302143Y-86590238D01*
X69206905Y-86685476D01*
X69111667Y-86733095D01*
X62301381Y-86082047D02*
X61825190Y-86415381D01*
X62301381Y-86653476D02*
X61301381Y-86653476D01*
X61301381Y-86272523D01*
X61349000Y-86177285D01*
X61396619Y-86129666D01*
X61491857Y-86082047D01*
X61634714Y-86082047D01*
X61729952Y-86129666D01*
X61777571Y-86177285D01*
X61825190Y-86272523D01*
X61825190Y-86653476D01*
X61396619Y-85701095D02*
X61349000Y-85653476D01*
X61301381Y-85558238D01*
X61301381Y-85320142D01*
X61349000Y-85224904D01*
X61396619Y-85177285D01*
X61491857Y-85129666D01*
X61587095Y-85129666D01*
X61729952Y-85177285D01*
X62301381Y-85748714D01*
X62301381Y-85129666D01*
X62301381Y-84177285D02*
X62301381Y-84748714D01*
X62301381Y-84463000D02*
X61301381Y-84463000D01*
X61444238Y-84558238D01*
X61539476Y-84653476D01*
X61587095Y-84748714D01*
X61396619Y-83796333D02*
X61349000Y-83748714D01*
X61301381Y-83653476D01*
X61301381Y-83415380D01*
X61349000Y-83320142D01*
X61396619Y-83272523D01*
X61491857Y-83224904D01*
X61587095Y-83224904D01*
X61729952Y-83272523D01*
X62301381Y-83843952D01*
X62301381Y-83224904D01*
X108989954Y-63571381D02*
X108656620Y-63095190D01*
X108418525Y-63571381D02*
X108418525Y-62571381D01*
X108799478Y-62571381D01*
X108894716Y-62619000D01*
X108942335Y-62666619D01*
X108989954Y-62761857D01*
X108989954Y-62904714D01*
X108942335Y-62999952D01*
X108894716Y-63047571D01*
X108799478Y-63095190D01*
X108418525Y-63095190D01*
X109370906Y-62666619D02*
X109418525Y-62619000D01*
X109513763Y-62571381D01*
X109751859Y-62571381D01*
X109847097Y-62619000D01*
X109894716Y-62666619D01*
X109942335Y-62761857D01*
X109942335Y-62857095D01*
X109894716Y-62999952D01*
X109323287Y-63571381D01*
X109942335Y-63571381D01*
X110894716Y-63571381D02*
X110323287Y-63571381D01*
X110609001Y-63571381D02*
X110609001Y-62571381D01*
X110513763Y-62714238D01*
X110418525Y-62809476D01*
X110323287Y-62857095D01*
X111751859Y-62904714D02*
X111751859Y-63571381D01*
X111513763Y-62523762D02*
X111275668Y-63238048D01*
X111894716Y-63238048D01*
X108835524Y-66111381D02*
X108502190Y-65635190D01*
X108264095Y-66111381D02*
X108264095Y-65111381D01*
X108645048Y-65111381D01*
X108740286Y-65159000D01*
X108787905Y-65206619D01*
X108835524Y-65301857D01*
X108835524Y-65444714D01*
X108787905Y-65539952D01*
X108740286Y-65587571D01*
X108645048Y-65635190D01*
X108264095Y-65635190D01*
X109216476Y-65206619D02*
X109264095Y-65159000D01*
X109359333Y-65111381D01*
X109597429Y-65111381D01*
X109692667Y-65159000D01*
X109740286Y-65206619D01*
X109787905Y-65301857D01*
X109787905Y-65397095D01*
X109740286Y-65539952D01*
X109168857Y-66111381D01*
X109787905Y-66111381D01*
X110740286Y-66111381D02*
X110168857Y-66111381D01*
X110454571Y-66111381D02*
X110454571Y-65111381D01*
X110359333Y-65254238D01*
X110264095Y-65349476D01*
X110168857Y-65397095D01*
X111645048Y-65111381D02*
X111168857Y-65111381D01*
X111121238Y-65587571D01*
X111168857Y-65539952D01*
X111264095Y-65492333D01*
X111502191Y-65492333D01*
X111597429Y-65539952D01*
X111645048Y-65587571D01*
X111692667Y-65682810D01*
X111692667Y-65920905D01*
X111645048Y-66016143D01*
X111597429Y-66063762D01*
X111502191Y-66111381D01*
X111264095Y-66111381D01*
X111168857Y-66063762D01*
X111121238Y-66016143D01*
X62555381Y-78970047D02*
X62079190Y-79303381D01*
X62555381Y-79541476D02*
X61555381Y-79541476D01*
X61555381Y-79160523D01*
X61603000Y-79065285D01*
X61650619Y-79017666D01*
X61745857Y-78970047D01*
X61888714Y-78970047D01*
X61983952Y-79017666D01*
X62031571Y-79065285D01*
X62079190Y-79160523D01*
X62079190Y-79541476D01*
X61650619Y-78589095D02*
X61603000Y-78541476D01*
X61555381Y-78446238D01*
X61555381Y-78208142D01*
X61603000Y-78112904D01*
X61650619Y-78065285D01*
X61745857Y-78017666D01*
X61841095Y-78017666D01*
X61983952Y-78065285D01*
X62555381Y-78636714D01*
X62555381Y-78017666D01*
X62555381Y-77065285D02*
X62555381Y-77636714D01*
X62555381Y-77351000D02*
X61555381Y-77351000D01*
X61698238Y-77446238D01*
X61793476Y-77541476D01*
X61841095Y-77636714D01*
X61555381Y-76208142D02*
X61555381Y-76398619D01*
X61603000Y-76493857D01*
X61650619Y-76541476D01*
X61793476Y-76636714D01*
X61983952Y-76684333D01*
X62364905Y-76684333D01*
X62460143Y-76636714D01*
X62507762Y-76589095D01*
X62555381Y-76493857D01*
X62555381Y-76303380D01*
X62507762Y-76208142D01*
X62460143Y-76160523D01*
X62364905Y-76112904D01*
X62126810Y-76112904D01*
X62031571Y-76160523D01*
X61983952Y-76208142D01*
X61936333Y-76303380D01*
X61936333Y-76493857D01*
X61983952Y-76589095D01*
X62031571Y-76636714D01*
X62126810Y-76684333D01*
X60523381Y-86082047D02*
X60047190Y-86415381D01*
X60523381Y-86653476D02*
X59523381Y-86653476D01*
X59523381Y-86272523D01*
X59571000Y-86177285D01*
X59618619Y-86129666D01*
X59713857Y-86082047D01*
X59856714Y-86082047D01*
X59951952Y-86129666D01*
X59999571Y-86177285D01*
X60047190Y-86272523D01*
X60047190Y-86653476D01*
X59618619Y-85701095D02*
X59571000Y-85653476D01*
X59523381Y-85558238D01*
X59523381Y-85320142D01*
X59571000Y-85224904D01*
X59618619Y-85177285D01*
X59713857Y-85129666D01*
X59809095Y-85129666D01*
X59951952Y-85177285D01*
X60523381Y-85748714D01*
X60523381Y-85129666D01*
X60523381Y-84177285D02*
X60523381Y-84748714D01*
X60523381Y-84463000D02*
X59523381Y-84463000D01*
X59666238Y-84558238D01*
X59761476Y-84653476D01*
X59809095Y-84748714D01*
X59523381Y-83843952D02*
X59523381Y-83177285D01*
X60523381Y-83605857D01*
X82263381Y-92035238D02*
X81787190Y-92368572D01*
X82263381Y-92606667D02*
X81263381Y-92606667D01*
X81263381Y-92225714D01*
X81311000Y-92130476D01*
X81358619Y-92082857D01*
X81453857Y-92035238D01*
X81596714Y-92035238D01*
X81691952Y-92082857D01*
X81739571Y-92130476D01*
X81787190Y-92225714D01*
X81787190Y-92606667D01*
X81263381Y-91749524D02*
X82263381Y-91416191D01*
X81263381Y-91082857D01*
X82263381Y-90225714D02*
X82263381Y-90797143D01*
X82263381Y-90511429D02*
X81263381Y-90511429D01*
X81406238Y-90606667D01*
X81501476Y-90701905D01*
X81549095Y-90797143D01*
X70325381Y-92035238D02*
X69849190Y-92368572D01*
X70325381Y-92606667D02*
X69325381Y-92606667D01*
X69325381Y-92225714D01*
X69373000Y-92130476D01*
X69420619Y-92082857D01*
X69515857Y-92035238D01*
X69658714Y-92035238D01*
X69753952Y-92082857D01*
X69801571Y-92130476D01*
X69849190Y-92225714D01*
X69849190Y-92606667D01*
X69325381Y-91749524D02*
X70325381Y-91416191D01*
X69325381Y-91082857D01*
X69420619Y-90797143D02*
X69373000Y-90749524D01*
X69325381Y-90654286D01*
X69325381Y-90416190D01*
X69373000Y-90320952D01*
X69420619Y-90273333D01*
X69515857Y-90225714D01*
X69611095Y-90225714D01*
X69753952Y-90273333D01*
X70325381Y-90844762D01*
X70325381Y-90225714D01*
X56134286Y-34694762D02*
X56277143Y-34742381D01*
X56515239Y-34742381D01*
X56610477Y-34694762D01*
X56658096Y-34647143D01*
X56705715Y-34551905D01*
X56705715Y-34456667D01*
X56658096Y-34361429D01*
X56610477Y-34313810D01*
X56515239Y-34266190D01*
X56324762Y-34218571D01*
X56229524Y-34170952D01*
X56181905Y-34123333D01*
X56134286Y-34028095D01*
X56134286Y-33932857D01*
X56181905Y-33837619D01*
X56229524Y-33790000D01*
X56324762Y-33742381D01*
X56562858Y-33742381D01*
X56705715Y-33790000D01*
X57039048Y-33742381D02*
X57277143Y-34742381D01*
X57467620Y-34028095D01*
X57658096Y-34742381D01*
X57896191Y-33742381D01*
X58800953Y-34742381D02*
X58229524Y-34742381D01*
X58515238Y-34742381D02*
X58515238Y-33742381D01*
X58420000Y-33885238D01*
X58324762Y-33980476D01*
X58229524Y-34028095D01*
X59420000Y-33742381D02*
X59515239Y-33742381D01*
X59610477Y-33790000D01*
X59658096Y-33837619D01*
X59705715Y-33932857D01*
X59753334Y-34123333D01*
X59753334Y-34361429D01*
X59705715Y-34551905D01*
X59658096Y-34647143D01*
X59610477Y-34694762D01*
X59515239Y-34742381D01*
X59420000Y-34742381D01*
X59324762Y-34694762D01*
X59277143Y-34647143D01*
X59229524Y-34551905D01*
X59181905Y-34361429D01*
X59181905Y-34123333D01*
X59229524Y-33932857D01*
X59277143Y-33837619D01*
X59324762Y-33790000D01*
X59420000Y-33742381D01*
X60705715Y-34742381D02*
X60134286Y-34742381D01*
X60420000Y-34742381D02*
X60420000Y-33742381D01*
X60324762Y-33885238D01*
X60229524Y-33980476D01*
X60134286Y-34028095D01*
D15*
X76137143Y-60587143D02*
X77851429Y-60587143D01*
X76994286Y-63587143D02*
X76994286Y-60587143D01*
X80422857Y-63587143D02*
X78708572Y-63587143D01*
X79565714Y-63587143D02*
X79565714Y-60587143D01*
X79280000Y-61015714D01*
X78994286Y-61301429D01*
X78708572Y-61444286D01*
X82280000Y-60587143D02*
X82565715Y-60587143D01*
X82851429Y-60730000D01*
X82994286Y-60872857D01*
X83137143Y-61158571D01*
X83280000Y-61730000D01*
X83280000Y-62444286D01*
X83137143Y-63015714D01*
X82994286Y-63301429D01*
X82851429Y-63444286D01*
X82565715Y-63587143D01*
X82280000Y-63587143D01*
X81994286Y-63444286D01*
X81851429Y-63301429D01*
X81708572Y-63015714D01*
X81565715Y-62444286D01*
X81565715Y-61730000D01*
X81708572Y-61158571D01*
X81851429Y-60872857D01*
X81994286Y-60730000D01*
X82280000Y-60587143D01*
X86137143Y-63587143D02*
X84422858Y-63587143D01*
X85280000Y-63587143D02*
X85280000Y-60587143D01*
X84994286Y-61015714D01*
X84708572Y-61301429D01*
X84422858Y-61444286D01*
D12*
X106235714Y-35647381D02*
X106235714Y-36456905D01*
X106283333Y-36552143D01*
X106330952Y-36599762D01*
X106426190Y-36647381D01*
X106616667Y-36647381D01*
X106711905Y-36599762D01*
X106759524Y-36552143D01*
X106807143Y-36456905D01*
X106807143Y-35647381D01*
X107807143Y-36647381D02*
X107235714Y-36647381D01*
X107521428Y-36647381D02*
X107521428Y-35647381D01*
X107426190Y-35790238D01*
X107330952Y-35885476D01*
X107235714Y-35933095D01*
X108426190Y-35647381D02*
X108521429Y-35647381D01*
X108616667Y-35695000D01*
X108664286Y-35742619D01*
X108711905Y-35837857D01*
X108759524Y-36028333D01*
X108759524Y-36266429D01*
X108711905Y-36456905D01*
X108664286Y-36552143D01*
X108616667Y-36599762D01*
X108521429Y-36647381D01*
X108426190Y-36647381D01*
X108330952Y-36599762D01*
X108283333Y-36552143D01*
X108235714Y-36456905D01*
X108188095Y-36266429D01*
X108188095Y-36028333D01*
X108235714Y-35837857D01*
X108283333Y-35742619D01*
X108330952Y-35695000D01*
X108426190Y-35647381D01*
X109711905Y-36647381D02*
X109140476Y-36647381D01*
X109426190Y-36647381D02*
X109426190Y-35647381D01*
X109330952Y-35790238D01*
X109235714Y-35885476D01*
X109140476Y-35933095D01*
X97345714Y-57212381D02*
X97345714Y-58021905D01*
X97393333Y-58117143D01*
X97440952Y-58164762D01*
X97536190Y-58212381D01*
X97726667Y-58212381D01*
X97821905Y-58164762D01*
X97869524Y-58117143D01*
X97917143Y-58021905D01*
X97917143Y-57212381D01*
X98345714Y-57307619D02*
X98393333Y-57260000D01*
X98488571Y-57212381D01*
X98726667Y-57212381D01*
X98821905Y-57260000D01*
X98869524Y-57307619D01*
X98917143Y-57402857D01*
X98917143Y-57498095D01*
X98869524Y-57640952D01*
X98298095Y-58212381D01*
X98917143Y-58212381D01*
X99536190Y-57212381D02*
X99631429Y-57212381D01*
X99726667Y-57260000D01*
X99774286Y-57307619D01*
X99821905Y-57402857D01*
X99869524Y-57593333D01*
X99869524Y-57831429D01*
X99821905Y-58021905D01*
X99774286Y-58117143D01*
X99726667Y-58164762D01*
X99631429Y-58212381D01*
X99536190Y-58212381D01*
X99440952Y-58164762D01*
X99393333Y-58117143D01*
X99345714Y-58021905D01*
X99298095Y-57831429D01*
X99298095Y-57593333D01*
X99345714Y-57402857D01*
X99393333Y-57307619D01*
X99440952Y-57260000D01*
X99536190Y-57212381D01*
X100821905Y-58212381D02*
X100250476Y-58212381D01*
X100536190Y-58212381D02*
X100536190Y-57212381D01*
X100440952Y-57355238D01*
X100345714Y-57450476D01*
X100250476Y-57498095D01*
X82105714Y-109815381D02*
X82105714Y-110624905D01*
X82153333Y-110720143D01*
X82200952Y-110767762D01*
X82296190Y-110815381D01*
X82486667Y-110815381D01*
X82581905Y-110767762D01*
X82629524Y-110720143D01*
X82677143Y-110624905D01*
X82677143Y-109815381D01*
X83105714Y-109910619D02*
X83153333Y-109863000D01*
X83248571Y-109815381D01*
X83486667Y-109815381D01*
X83581905Y-109863000D01*
X83629524Y-109910619D01*
X83677143Y-110005857D01*
X83677143Y-110101095D01*
X83629524Y-110243952D01*
X83058095Y-110815381D01*
X83677143Y-110815381D01*
X84296190Y-109815381D02*
X84391429Y-109815381D01*
X84486667Y-109863000D01*
X84534286Y-109910619D01*
X84581905Y-110005857D01*
X84629524Y-110196333D01*
X84629524Y-110434429D01*
X84581905Y-110624905D01*
X84534286Y-110720143D01*
X84486667Y-110767762D01*
X84391429Y-110815381D01*
X84296190Y-110815381D01*
X84200952Y-110767762D01*
X84153333Y-110720143D01*
X84105714Y-110624905D01*
X84058095Y-110434429D01*
X84058095Y-110196333D01*
X84105714Y-110005857D01*
X84153333Y-109910619D01*
X84200952Y-109863000D01*
X84296190Y-109815381D01*
X84962857Y-109815381D02*
X85581905Y-109815381D01*
X85248571Y-110196333D01*
X85391429Y-110196333D01*
X85486667Y-110243952D01*
X85534286Y-110291571D01*
X85581905Y-110386810D01*
X85581905Y-110624905D01*
X85534286Y-110720143D01*
X85486667Y-110767762D01*
X85391429Y-110815381D01*
X85105714Y-110815381D01*
X85010476Y-110767762D01*
X84962857Y-110720143D01*
X96202714Y-83399381D02*
X96202714Y-84208905D01*
X96250333Y-84304143D01*
X96297952Y-84351762D01*
X96393190Y-84399381D01*
X96583667Y-84399381D01*
X96678905Y-84351762D01*
X96726524Y-84304143D01*
X96774143Y-84208905D01*
X96774143Y-83399381D01*
X97202714Y-83494619D02*
X97250333Y-83447000D01*
X97345571Y-83399381D01*
X97583667Y-83399381D01*
X97678905Y-83447000D01*
X97726524Y-83494619D01*
X97774143Y-83589857D01*
X97774143Y-83685095D01*
X97726524Y-83827952D01*
X97155095Y-84399381D01*
X97774143Y-84399381D01*
X98393190Y-83399381D02*
X98488429Y-83399381D01*
X98583667Y-83447000D01*
X98631286Y-83494619D01*
X98678905Y-83589857D01*
X98726524Y-83780333D01*
X98726524Y-84018429D01*
X98678905Y-84208905D01*
X98631286Y-84304143D01*
X98583667Y-84351762D01*
X98488429Y-84399381D01*
X98393190Y-84399381D01*
X98297952Y-84351762D01*
X98250333Y-84304143D01*
X98202714Y-84208905D01*
X98155095Y-84018429D01*
X98155095Y-83780333D01*
X98202714Y-83589857D01*
X98250333Y-83494619D01*
X98297952Y-83447000D01*
X98393190Y-83399381D01*
X99583667Y-83732714D02*
X99583667Y-84399381D01*
X99345571Y-83351762D02*
X99107476Y-84066048D01*
X99726524Y-84066048D01*
X85788714Y-76668381D02*
X85788714Y-77477905D01*
X85836333Y-77573143D01*
X85883952Y-77620762D01*
X85979190Y-77668381D01*
X86169667Y-77668381D01*
X86264905Y-77620762D01*
X86312524Y-77573143D01*
X86360143Y-77477905D01*
X86360143Y-76668381D01*
X86788714Y-76763619D02*
X86836333Y-76716000D01*
X86931571Y-76668381D01*
X87169667Y-76668381D01*
X87264905Y-76716000D01*
X87312524Y-76763619D01*
X87360143Y-76858857D01*
X87360143Y-76954095D01*
X87312524Y-77096952D01*
X86741095Y-77668381D01*
X87360143Y-77668381D01*
X87979190Y-76668381D02*
X88074429Y-76668381D01*
X88169667Y-76716000D01*
X88217286Y-76763619D01*
X88264905Y-76858857D01*
X88312524Y-77049333D01*
X88312524Y-77287429D01*
X88264905Y-77477905D01*
X88217286Y-77573143D01*
X88169667Y-77620762D01*
X88074429Y-77668381D01*
X87979190Y-77668381D01*
X87883952Y-77620762D01*
X87836333Y-77573143D01*
X87788714Y-77477905D01*
X87741095Y-77287429D01*
X87741095Y-77049333D01*
X87788714Y-76858857D01*
X87836333Y-76763619D01*
X87883952Y-76716000D01*
X87979190Y-76668381D01*
X89217286Y-76668381D02*
X88741095Y-76668381D01*
X88693476Y-77144571D01*
X88741095Y-77096952D01*
X88836333Y-77049333D01*
X89074429Y-77049333D01*
X89169667Y-77096952D01*
X89217286Y-77144571D01*
X89264905Y-77239810D01*
X89264905Y-77477905D01*
X89217286Y-77573143D01*
X89169667Y-77620762D01*
X89074429Y-77668381D01*
X88836333Y-77668381D01*
X88741095Y-77620762D01*
X88693476Y-77573143D01*
X122364714Y-64095381D02*
X122364714Y-64904905D01*
X122412333Y-65000143D01*
X122459952Y-65047762D01*
X122555190Y-65095381D01*
X122745667Y-65095381D01*
X122840905Y-65047762D01*
X122888524Y-65000143D01*
X122936143Y-64904905D01*
X122936143Y-64095381D01*
X123364714Y-64190619D02*
X123412333Y-64143000D01*
X123507571Y-64095381D01*
X123745667Y-64095381D01*
X123840905Y-64143000D01*
X123888524Y-64190619D01*
X123936143Y-64285857D01*
X123936143Y-64381095D01*
X123888524Y-64523952D01*
X123317095Y-65095381D01*
X123936143Y-65095381D01*
X124555190Y-64095381D02*
X124650429Y-64095381D01*
X124745667Y-64143000D01*
X124793286Y-64190619D01*
X124840905Y-64285857D01*
X124888524Y-64476333D01*
X124888524Y-64714429D01*
X124840905Y-64904905D01*
X124793286Y-65000143D01*
X124745667Y-65047762D01*
X124650429Y-65095381D01*
X124555190Y-65095381D01*
X124459952Y-65047762D01*
X124412333Y-65000143D01*
X124364714Y-64904905D01*
X124317095Y-64714429D01*
X124317095Y-64476333D01*
X124364714Y-64285857D01*
X124412333Y-64190619D01*
X124459952Y-64143000D01*
X124555190Y-64095381D01*
X125745667Y-64095381D02*
X125555190Y-64095381D01*
X125459952Y-64143000D01*
X125412333Y-64190619D01*
X125317095Y-64333476D01*
X125269476Y-64523952D01*
X125269476Y-64904905D01*
X125317095Y-65000143D01*
X125364714Y-65047762D01*
X125459952Y-65095381D01*
X125650429Y-65095381D01*
X125745667Y-65047762D01*
X125793286Y-65000143D01*
X125840905Y-64904905D01*
X125840905Y-64666810D01*
X125793286Y-64571571D01*
X125745667Y-64523952D01*
X125650429Y-64476333D01*
X125459952Y-64476333D01*
X125364714Y-64523952D01*
X125317095Y-64571571D01*
X125269476Y-64666810D01*
X110807714Y-67905381D02*
X110807714Y-68714905D01*
X110855333Y-68810143D01*
X110902952Y-68857762D01*
X110998190Y-68905381D01*
X111188667Y-68905381D01*
X111283905Y-68857762D01*
X111331524Y-68810143D01*
X111379143Y-68714905D01*
X111379143Y-67905381D01*
X111807714Y-68000619D02*
X111855333Y-67953000D01*
X111950571Y-67905381D01*
X112188667Y-67905381D01*
X112283905Y-67953000D01*
X112331524Y-68000619D01*
X112379143Y-68095857D01*
X112379143Y-68191095D01*
X112331524Y-68333952D01*
X111760095Y-68905381D01*
X112379143Y-68905381D01*
X112998190Y-67905381D02*
X113093429Y-67905381D01*
X113188667Y-67953000D01*
X113236286Y-68000619D01*
X113283905Y-68095857D01*
X113331524Y-68286333D01*
X113331524Y-68524429D01*
X113283905Y-68714905D01*
X113236286Y-68810143D01*
X113188667Y-68857762D01*
X113093429Y-68905381D01*
X112998190Y-68905381D01*
X112902952Y-68857762D01*
X112855333Y-68810143D01*
X112807714Y-68714905D01*
X112760095Y-68524429D01*
X112760095Y-68286333D01*
X112807714Y-68095857D01*
X112855333Y-68000619D01*
X112902952Y-67953000D01*
X112998190Y-67905381D01*
X113664857Y-67905381D02*
X114331524Y-67905381D01*
X113902952Y-68905381D01*
X65595714Y-77176381D02*
X65595714Y-77985905D01*
X65643333Y-78081143D01*
X65690952Y-78128762D01*
X65786190Y-78176381D01*
X65976667Y-78176381D01*
X66071905Y-78128762D01*
X66119524Y-78081143D01*
X66167143Y-77985905D01*
X66167143Y-77176381D01*
X66595714Y-77271619D02*
X66643333Y-77224000D01*
X66738571Y-77176381D01*
X66976667Y-77176381D01*
X67071905Y-77224000D01*
X67119524Y-77271619D01*
X67167143Y-77366857D01*
X67167143Y-77462095D01*
X67119524Y-77604952D01*
X66548095Y-78176381D01*
X67167143Y-78176381D01*
X67786190Y-77176381D02*
X67881429Y-77176381D01*
X67976667Y-77224000D01*
X68024286Y-77271619D01*
X68071905Y-77366857D01*
X68119524Y-77557333D01*
X68119524Y-77795429D01*
X68071905Y-77985905D01*
X68024286Y-78081143D01*
X67976667Y-78128762D01*
X67881429Y-78176381D01*
X67786190Y-78176381D01*
X67690952Y-78128762D01*
X67643333Y-78081143D01*
X67595714Y-77985905D01*
X67548095Y-77795429D01*
X67548095Y-77557333D01*
X67595714Y-77366857D01*
X67643333Y-77271619D01*
X67690952Y-77224000D01*
X67786190Y-77176381D01*
X68690952Y-77604952D02*
X68595714Y-77557333D01*
X68548095Y-77509714D01*
X68500476Y-77414476D01*
X68500476Y-77366857D01*
X68548095Y-77271619D01*
X68595714Y-77224000D01*
X68690952Y-77176381D01*
X68881429Y-77176381D01*
X68976667Y-77224000D01*
X69024286Y-77271619D01*
X69071905Y-77366857D01*
X69071905Y-77414476D01*
X69024286Y-77509714D01*
X68976667Y-77557333D01*
X68881429Y-77604952D01*
X68690952Y-77604952D01*
X68595714Y-77652571D01*
X68548095Y-77700190D01*
X68500476Y-77795429D01*
X68500476Y-77985905D01*
X68548095Y-78081143D01*
X68595714Y-78128762D01*
X68690952Y-78176381D01*
X68881429Y-78176381D01*
X68976667Y-78128762D01*
X69024286Y-78081143D01*
X69071905Y-77985905D01*
X69071905Y-77795429D01*
X69024286Y-77700190D01*
X68976667Y-77652571D01*
X68881429Y-77604952D01*
X42982381Y-113363333D02*
X43696667Y-113363333D01*
X43839524Y-113410953D01*
X43934762Y-113506191D01*
X43982381Y-113649048D01*
X43982381Y-113744286D01*
X43077619Y-112934762D02*
X43030000Y-112887143D01*
X42982381Y-112791905D01*
X42982381Y-112553809D01*
X43030000Y-112458571D01*
X43077619Y-112410952D01*
X43172857Y-112363333D01*
X43268095Y-112363333D01*
X43410952Y-112410952D01*
X43982381Y-112982381D01*
X43982381Y-112363333D01*
X74303095Y-70147381D02*
X74874524Y-70147381D01*
X74588809Y-71147381D02*
X74588809Y-70147381D01*
X75207857Y-71147381D02*
X75207857Y-70147381D01*
X75588810Y-70147381D01*
X75684048Y-70195000D01*
X75731667Y-70242619D01*
X75779286Y-70337857D01*
X75779286Y-70480714D01*
X75731667Y-70575952D01*
X75684048Y-70623571D01*
X75588810Y-70671190D01*
X75207857Y-70671190D01*
X76160238Y-70242619D02*
X76207857Y-70195000D01*
X76303095Y-70147381D01*
X76541191Y-70147381D01*
X76636429Y-70195000D01*
X76684048Y-70242619D01*
X76731667Y-70337857D01*
X76731667Y-70433095D01*
X76684048Y-70575952D01*
X76112619Y-71147381D01*
X76731667Y-71147381D01*
X55253095Y-88987381D02*
X55824524Y-88987381D01*
X55538809Y-89987381D02*
X55538809Y-88987381D01*
X56157857Y-89987381D02*
X56157857Y-88987381D01*
X56538810Y-88987381D01*
X56634048Y-89035000D01*
X56681667Y-89082619D01*
X56729286Y-89177857D01*
X56729286Y-89320714D01*
X56681667Y-89415952D01*
X56634048Y-89463571D01*
X56538810Y-89511190D01*
X56157857Y-89511190D01*
X57681667Y-89987381D02*
X57110238Y-89987381D01*
X57395952Y-89987381D02*
X57395952Y-88987381D01*
X57300714Y-89130238D01*
X57205476Y-89225476D01*
X57110238Y-89273095D01*
X87765095Y-116546381D02*
X88336524Y-116546381D01*
X88050809Y-117546381D02*
X88050809Y-116546381D01*
X88669857Y-117546381D02*
X88669857Y-116546381D01*
X89050810Y-116546381D01*
X89146048Y-116594000D01*
X89193667Y-116641619D01*
X89241286Y-116736857D01*
X89241286Y-116879714D01*
X89193667Y-116974952D01*
X89146048Y-117022571D01*
X89050810Y-117070190D01*
X88669857Y-117070190D01*
X89574619Y-116546381D02*
X90193667Y-116546381D01*
X89860333Y-116927333D01*
X90003191Y-116927333D01*
X90098429Y-116974952D01*
X90146048Y-117022571D01*
X90193667Y-117117810D01*
X90193667Y-117355905D01*
X90146048Y-117451143D01*
X90098429Y-117498762D01*
X90003191Y-117546381D01*
X89717476Y-117546381D01*
X89622238Y-117498762D01*
X89574619Y-117451143D01*
M02*
